<?xml version="1.0" encoding="utf-8" standalone="no"?>
<!DOCTYPE svg PUBLIC "-//W3C//DTD SVG 1.1//EN"
  "http://www.w3.org/Graphics/SVG/1.1/DTD/svg11.dtd">
<!-- Created with matplotlib (https://matplotlib.org/) -->
<svg height="412.495156pt" version="1.1" viewBox="0 0 411.625267 412.495156" width="411.625267pt" xmlns="http://www.w3.org/2000/svg" xmlns:xlink="http://www.w3.org/1999/xlink">
 <defs>
  <style type="text/css">
*{stroke-linecap:butt;stroke-linejoin:round;}
  </style>
 </defs>
 <g id="figure_1">
  <g id="patch_1">
   <path d="M 0 412.495156 
L 411.625267 412.495156 
L 411.625267 0 
L 0 0 
z
" style="fill:#ffffff;"/>
  </g>
  <g id="axes_1">
   <g id="patch_2">
    <path d="M 36.23175 179.338562 
L 196.535595 179.338562 
L 196.535595 25.053562 
L 36.23175 25.053562 
z
" style="fill:#eaeaf2;"/>
   </g>
   <g id="matplotlib.axis_1">
    <g id="xtick_1"/>
    <g id="xtick_2"/>
    <g id="xtick_3"/>
   </g>
   <g id="matplotlib.axis_2">
    <g id="ytick_1"/>
    <g id="ytick_2"/>
    <g id="ytick_3"/>
    <g id="ytick_4"/>
    <g id="ytick_5"/>
    <g id="text_1">
     <!-- signal_magnitude -->
     <defs>
      <path d="M 44.28125 53.078125 
L 44.28125 44.578125 
Q 40.484375 46.53125 36.375 47.5 
Q 32.28125 48.484375 27.875 48.484375 
Q 21.1875 48.484375 17.84375 46.4375 
Q 14.5 44.390625 14.5 40.28125 
Q 14.5 37.15625 16.890625 35.375 
Q 19.28125 33.59375 26.515625 31.984375 
L 29.59375 31.296875 
Q 39.15625 29.25 43.1875 25.515625 
Q 47.21875 21.78125 47.21875 15.09375 
Q 47.21875 7.46875 41.1875 3.015625 
Q 35.15625 -1.421875 24.609375 -1.421875 
Q 20.21875 -1.421875 15.453125 -0.5625 
Q 10.6875 0.296875 5.421875 2 
L 5.421875 11.28125 
Q 10.40625 8.6875 15.234375 7.390625 
Q 20.0625 6.109375 24.8125 6.109375 
Q 31.15625 6.109375 34.5625 8.28125 
Q 37.984375 10.453125 37.984375 14.40625 
Q 37.984375 18.0625 35.515625 20.015625 
Q 33.0625 21.96875 24.703125 23.78125 
L 21.578125 24.515625 
Q 13.234375 26.265625 9.515625 29.90625 
Q 5.8125 33.546875 5.8125 39.890625 
Q 5.8125 47.609375 11.28125 51.796875 
Q 16.75 56 26.8125 56 
Q 31.78125 56 36.171875 55.265625 
Q 40.578125 54.546875 44.28125 53.078125 
z
" id="DejaVuSans-115"/>
      <path d="M 9.421875 54.6875 
L 18.40625 54.6875 
L 18.40625 0 
L 9.421875 0 
z
M 9.421875 75.984375 
L 18.40625 75.984375 
L 18.40625 64.59375 
L 9.421875 64.59375 
z
" id="DejaVuSans-105"/>
      <path d="M 45.40625 27.984375 
Q 45.40625 37.75 41.375 43.109375 
Q 37.359375 48.484375 30.078125 48.484375 
Q 22.859375 48.484375 18.828125 43.109375 
Q 14.796875 37.75 14.796875 27.984375 
Q 14.796875 18.265625 18.828125 12.890625 
Q 22.859375 7.515625 30.078125 7.515625 
Q 37.359375 7.515625 41.375 12.890625 
Q 45.40625 18.265625 45.40625 27.984375 
z
M 54.390625 6.78125 
Q 54.390625 -7.171875 48.1875 -13.984375 
Q 42 -20.796875 29.203125 -20.796875 
Q 24.46875 -20.796875 20.265625 -20.09375 
Q 16.0625 -19.390625 12.109375 -17.921875 
L 12.109375 -9.1875 
Q 16.0625 -11.328125 19.921875 -12.34375 
Q 23.78125 -13.375 27.78125 -13.375 
Q 36.625 -13.375 41.015625 -8.765625 
Q 45.40625 -4.15625 45.40625 5.171875 
L 45.40625 9.625 
Q 42.625 4.78125 38.28125 2.390625 
Q 33.9375 0 27.875 0 
Q 17.828125 0 11.671875 7.65625 
Q 5.515625 15.328125 5.515625 27.984375 
Q 5.515625 40.671875 11.671875 48.328125 
Q 17.828125 56 27.875 56 
Q 33.9375 56 38.28125 53.609375 
Q 42.625 51.21875 45.40625 46.390625 
L 45.40625 54.6875 
L 54.390625 54.6875 
z
" id="DejaVuSans-103"/>
      <path d="M 54.890625 33.015625 
L 54.890625 0 
L 45.90625 0 
L 45.90625 32.71875 
Q 45.90625 40.484375 42.875 44.328125 
Q 39.84375 48.1875 33.796875 48.1875 
Q 26.515625 48.1875 22.3125 43.546875 
Q 18.109375 38.921875 18.109375 30.90625 
L 18.109375 0 
L 9.078125 0 
L 9.078125 54.6875 
L 18.109375 54.6875 
L 18.109375 46.1875 
Q 21.34375 51.125 25.703125 53.5625 
Q 30.078125 56 35.796875 56 
Q 45.21875 56 50.046875 50.171875 
Q 54.890625 44.34375 54.890625 33.015625 
z
" id="DejaVuSans-110"/>
      <path d="M 34.28125 27.484375 
Q 23.390625 27.484375 19.1875 25 
Q 14.984375 22.515625 14.984375 16.5 
Q 14.984375 11.71875 18.140625 8.90625 
Q 21.296875 6.109375 26.703125 6.109375 
Q 34.1875 6.109375 38.703125 11.40625 
Q 43.21875 16.703125 43.21875 25.484375 
L 43.21875 27.484375 
z
M 52.203125 31.203125 
L 52.203125 0 
L 43.21875 0 
L 43.21875 8.296875 
Q 40.140625 3.328125 35.546875 0.953125 
Q 30.953125 -1.421875 24.3125 -1.421875 
Q 15.921875 -1.421875 10.953125 3.296875 
Q 6 8.015625 6 15.921875 
Q 6 25.140625 12.171875 29.828125 
Q 18.359375 34.515625 30.609375 34.515625 
L 43.21875 34.515625 
L 43.21875 35.40625 
Q 43.21875 41.609375 39.140625 45 
Q 35.0625 48.390625 27.6875 48.390625 
Q 23 48.390625 18.546875 47.265625 
Q 14.109375 46.140625 10.015625 43.890625 
L 10.015625 52.203125 
Q 14.9375 54.109375 19.578125 55.046875 
Q 24.21875 56 28.609375 56 
Q 40.484375 56 46.34375 49.84375 
Q 52.203125 43.703125 52.203125 31.203125 
z
" id="DejaVuSans-97"/>
      <path d="M 9.421875 75.984375 
L 18.40625 75.984375 
L 18.40625 0 
L 9.421875 0 
z
" id="DejaVuSans-108"/>
      <path d="M 50.984375 -16.609375 
L 50.984375 -23.578125 
L -0.984375 -23.578125 
L -0.984375 -16.609375 
z
" id="DejaVuSans-95"/>
      <path d="M 52 44.1875 
Q 55.375 50.25 60.0625 53.125 
Q 64.75 56 71.09375 56 
Q 79.640625 56 84.28125 50.015625 
Q 88.921875 44.046875 88.921875 33.015625 
L 88.921875 0 
L 79.890625 0 
L 79.890625 32.71875 
Q 79.890625 40.578125 77.09375 44.375 
Q 74.3125 48.1875 68.609375 48.1875 
Q 61.625 48.1875 57.5625 43.546875 
Q 53.515625 38.921875 53.515625 30.90625 
L 53.515625 0 
L 44.484375 0 
L 44.484375 32.71875 
Q 44.484375 40.625 41.703125 44.40625 
Q 38.921875 48.1875 33.109375 48.1875 
Q 26.21875 48.1875 22.15625 43.53125 
Q 18.109375 38.875 18.109375 30.90625 
L 18.109375 0 
L 9.078125 0 
L 9.078125 54.6875 
L 18.109375 54.6875 
L 18.109375 46.1875 
Q 21.1875 51.21875 25.484375 53.609375 
Q 29.78125 56 35.6875 56 
Q 41.65625 56 45.828125 52.96875 
Q 50 49.953125 52 44.1875 
z
" id="DejaVuSans-109"/>
      <path d="M 18.3125 70.21875 
L 18.3125 54.6875 
L 36.8125 54.6875 
L 36.8125 47.703125 
L 18.3125 47.703125 
L 18.3125 18.015625 
Q 18.3125 11.328125 20.140625 9.421875 
Q 21.96875 7.515625 27.59375 7.515625 
L 36.8125 7.515625 
L 36.8125 0 
L 27.59375 0 
Q 17.1875 0 13.234375 3.875 
Q 9.28125 7.765625 9.28125 18.015625 
L 9.28125 47.703125 
L 2.6875 47.703125 
L 2.6875 54.6875 
L 9.28125 54.6875 
L 9.28125 70.21875 
z
" id="DejaVuSans-116"/>
      <path d="M 8.5 21.578125 
L 8.5 54.6875 
L 17.484375 54.6875 
L 17.484375 21.921875 
Q 17.484375 14.15625 20.5 10.265625 
Q 23.53125 6.390625 29.59375 6.390625 
Q 36.859375 6.390625 41.078125 11.03125 
Q 45.3125 15.671875 45.3125 23.6875 
L 45.3125 54.6875 
L 54.296875 54.6875 
L 54.296875 0 
L 45.3125 0 
L 45.3125 8.40625 
Q 42.046875 3.421875 37.71875 1 
Q 33.40625 -1.421875 27.6875 -1.421875 
Q 18.265625 -1.421875 13.375 4.4375 
Q 8.5 10.296875 8.5 21.578125 
z
M 31.109375 56 
z
" id="DejaVuSans-117"/>
      <path d="M 45.40625 46.390625 
L 45.40625 75.984375 
L 54.390625 75.984375 
L 54.390625 0 
L 45.40625 0 
L 45.40625 8.203125 
Q 42.578125 3.328125 38.25 0.953125 
Q 33.9375 -1.421875 27.875 -1.421875 
Q 17.96875 -1.421875 11.734375 6.484375 
Q 5.515625 14.40625 5.515625 27.296875 
Q 5.515625 40.1875 11.734375 48.09375 
Q 17.96875 56 27.875 56 
Q 33.9375 56 38.25 53.625 
Q 42.578125 51.265625 45.40625 46.390625 
z
M 14.796875 27.296875 
Q 14.796875 17.390625 18.875 11.75 
Q 22.953125 6.109375 30.078125 6.109375 
Q 37.203125 6.109375 41.296875 11.75 
Q 45.40625 17.390625 45.40625 27.296875 
Q 45.40625 37.203125 41.296875 42.84375 
Q 37.203125 48.484375 30.078125 48.484375 
Q 22.953125 48.484375 18.875 42.84375 
Q 14.796875 37.203125 14.796875 27.296875 
z
" id="DejaVuSans-100"/>
      <path d="M 56.203125 29.59375 
L 56.203125 25.203125 
L 14.890625 25.203125 
Q 15.484375 15.921875 20.484375 11.0625 
Q 25.484375 6.203125 34.421875 6.203125 
Q 39.59375 6.203125 44.453125 7.46875 
Q 49.3125 8.734375 54.109375 11.28125 
L 54.109375 2.78125 
Q 49.265625 0.734375 44.1875 -0.34375 
Q 39.109375 -1.421875 33.890625 -1.421875 
Q 20.796875 -1.421875 13.15625 6.1875 
Q 5.515625 13.8125 5.515625 26.8125 
Q 5.515625 40.234375 12.765625 48.109375 
Q 20.015625 56 32.328125 56 
Q 43.359375 56 49.78125 48.890625 
Q 56.203125 41.796875 56.203125 29.59375 
z
M 47.21875 32.234375 
Q 47.125 39.59375 43.09375 43.984375 
Q 39.0625 48.390625 32.421875 48.390625 
Q 24.90625 48.390625 20.390625 44.140625 
Q 15.875 39.890625 15.1875 32.171875 
z
" id="DejaVuSans-101"/>
     </defs>
     <g style="fill:#262626;" transform="translate(19.053563 171.360125)rotate(-90)scale(0.156 -0.156)">
      <use xlink:href="#DejaVuSans-115"/>
      <use x="52.099609" xlink:href="#DejaVuSans-105"/>
      <use x="79.882812" xlink:href="#DejaVuSans-103"/>
      <use x="143.359375" xlink:href="#DejaVuSans-110"/>
      <use x="206.738281" xlink:href="#DejaVuSans-97"/>
      <use x="268.017578" xlink:href="#DejaVuSans-108"/>
      <use x="295.800781" xlink:href="#DejaVuSans-95"/>
      <use x="345.800781" xlink:href="#DejaVuSans-109"/>
      <use x="443.212891" xlink:href="#DejaVuSans-97"/>
      <use x="504.492188" xlink:href="#DejaVuSans-103"/>
      <use x="567.96875" xlink:href="#DejaVuSans-110"/>
      <use x="631.347656" xlink:href="#DejaVuSans-105"/>
      <use x="659.130859" xlink:href="#DejaVuSans-116"/>
      <use x="698.339844" xlink:href="#DejaVuSans-117"/>
      <use x="761.71875" xlink:href="#DejaVuSans-100"/>
      <use x="825.195312" xlink:href="#DejaVuSans-101"/>
     </g>
    </g>
   </g>
   <g id="patch_3">
    <path clip-path="url(#p2383c89810)" d="M 60.095552 179.338562 
L 65.721169 179.338562 
L 65.721169 32.400467 
L 60.095552 32.400467 
z
" style="fill:#4c72b0;opacity:0.4;stroke:#ffffff;stroke-linejoin:miter;"/>
   </g>
   <g id="patch_4">
    <path clip-path="url(#p2383c89810)" d="M 65.721169 179.338562 
L 71.346787 179.338562 
L 71.346787 136.720154 
L 65.721169 136.720154 
z
" style="fill:#4c72b0;opacity:0.4;stroke:#ffffff;stroke-linejoin:miter;"/>
   </g>
   <g id="patch_5">
    <path clip-path="url(#p2383c89810)" d="M 71.346787 179.338562 
L 76.972404 179.338562 
L 76.972404 152.957332 
L 71.346787 152.957332 
z
" style="fill:#4c72b0;opacity:0.4;stroke:#ffffff;stroke-linejoin:miter;"/>
   </g>
   <g id="patch_6">
    <path clip-path="url(#p2383c89810)" d="M 76.972404 179.338562 
L 82.598021 179.338562 
L 82.598021 160.289172 
L 76.972404 160.289172 
z
" style="fill:#4c72b0;opacity:0.4;stroke:#ffffff;stroke-linejoin:miter;"/>
   </g>
   <g id="patch_7">
    <path clip-path="url(#p2383c89810)" d="M 82.598021 179.338562 
L 88.223638 179.338562 
L 88.223638 164.50749 
L 82.598021 164.50749 
z
" style="fill:#4c72b0;opacity:0.4;stroke:#ffffff;stroke-linejoin:miter;"/>
   </g>
   <g id="patch_8">
    <path clip-path="url(#p2383c89810)" d="M 88.223638 179.338562 
L 93.849255 179.338562 
L 93.849255 167.520575 
L 88.223638 167.520575 
z
" style="fill:#4c72b0;opacity:0.4;stroke:#ffffff;stroke-linejoin:miter;"/>
   </g>
   <g id="patch_9">
    <path clip-path="url(#p2383c89810)" d="M 93.849255 179.338562 
L 99.474873 179.338562 
L 99.474873 169.73017 
L 93.849255 169.73017 
z
" style="fill:#4c72b0;opacity:0.4;stroke:#ffffff;stroke-linejoin:miter;"/>
   </g>
   <g id="patch_10">
    <path clip-path="url(#p2383c89810)" d="M 99.474873 179.338562 
L 105.10049 179.338562 
L 105.10049 171.5715 
L 99.474873 171.5715 
z
" style="fill:#4c72b0;opacity:0.4;stroke:#ffffff;stroke-linejoin:miter;"/>
   </g>
   <g id="patch_11">
    <path clip-path="url(#p2383c89810)" d="M 105.10049 179.338562 
L 110.726107 179.338562 
L 110.726107 172.60934 
L 105.10049 172.60934 
z
" style="fill:#4c72b0;opacity:0.4;stroke:#ffffff;stroke-linejoin:miter;"/>
   </g>
   <g id="patch_12">
    <path clip-path="url(#p2383c89810)" d="M 110.726107 179.338562 
L 116.351724 179.338562 
L 116.351724 172.87717 
L 110.726107 172.87717 
z
" style="fill:#4c72b0;opacity:0.4;stroke:#ffffff;stroke-linejoin:miter;"/>
   </g>
   <g id="patch_13">
    <path clip-path="url(#p2383c89810)" d="M 116.351724 179.338562 
L 121.977342 179.338562 
L 121.977342 173.513265 
L 116.351724 173.513265 
z
" style="fill:#4c72b0;opacity:0.4;stroke:#ffffff;stroke-linejoin:miter;"/>
   </g>
   <g id="patch_14">
    <path clip-path="url(#p2383c89810)" d="M 121.977342 179.338562 
L 127.602959 179.338562 
L 127.602959 174.618063 
L 121.977342 174.618063 
z
" style="fill:#4c72b0;opacity:0.4;stroke:#ffffff;stroke-linejoin:miter;"/>
   </g>
   <g id="patch_15">
    <path clip-path="url(#p2383c89810)" d="M 127.602959 179.338562 
L 133.228576 179.338562 
L 133.228576 174.651542 
L 127.602959 174.651542 
z
" style="fill:#4c72b0;opacity:0.4;stroke:#ffffff;stroke-linejoin:miter;"/>
   </g>
   <g id="patch_16">
    <path clip-path="url(#p2383c89810)" d="M 133.228576 179.338562 
L 138.854193 179.338562 
L 138.854193 174.751978 
L 133.228576 174.751978 
z
" style="fill:#4c72b0;opacity:0.4;stroke:#ffffff;stroke-linejoin:miter;"/>
   </g>
   <g id="patch_17">
    <path clip-path="url(#p2383c89810)" d="M 138.854193 179.338562 
L 144.47981 179.338562 
L 144.47981 174.986329 
L 138.854193 174.986329 
z
" style="fill:#4c72b0;opacity:0.4;stroke:#ffffff;stroke-linejoin:miter;"/>
   </g>
   <g id="patch_18">
    <path clip-path="url(#p2383c89810)" d="M 144.47981 179.338562 
L 150.105428 179.338562 
L 150.105428 175.521989 
L 144.47981 175.521989 
z
" style="fill:#4c72b0;opacity:0.4;stroke:#ffffff;stroke-linejoin:miter;"/>
   </g>
   <g id="patch_19">
    <path clip-path="url(#p2383c89810)" d="M 150.105428 179.338562 
L 155.731045 179.338562 
L 155.731045 175.655903 
L 150.105428 175.655903 
z
" style="fill:#4c72b0;opacity:0.4;stroke:#ffffff;stroke-linejoin:miter;"/>
   </g>
   <g id="patch_20">
    <path clip-path="url(#p2383c89810)" d="M 155.731045 179.338562 
L 161.356662 179.338562 
L 161.356662 175.354595 
L 155.731045 175.354595 
z
" style="fill:#4c72b0;opacity:0.4;stroke:#ffffff;stroke-linejoin:miter;"/>
   </g>
   <g id="patch_21">
    <path clip-path="url(#p2383c89810)" d="M 161.356662 179.338562 
L 166.982279 179.338562 
L 166.982279 175.789818 
L 161.356662 175.789818 
z
" style="fill:#4c72b0;opacity:0.4;stroke:#ffffff;stroke-linejoin:miter;"/>
   </g>
   <g id="patch_22">
    <path clip-path="url(#p2383c89810)" d="M 166.982279 179.338562 
L 172.607897 179.338562 
L 172.607897 175.689382 
L 166.982279 175.689382 
z
" style="fill:#4c72b0;opacity:0.4;stroke:#ffffff;stroke-linejoin:miter;"/>
   </g>
   <g id="patch_23">
    <path clip-path="url(#p2383c89810)" d="M 60.095651 179.338562 
L 65.724453 179.338562 
L 65.724453 88.227594 
L 60.095651 88.227594 
z
" style="fill:#dd8452;opacity:0.4;stroke:#ffffff;stroke-linejoin:miter;"/>
   </g>
   <g id="patch_24">
    <path clip-path="url(#p2383c89810)" d="M 65.724453 179.338562 
L 71.353255 179.338562 
L 71.353255 142.934327 
L 65.724453 142.934327 
z
" style="fill:#dd8452;opacity:0.4;stroke:#ffffff;stroke-linejoin:miter;"/>
   </g>
   <g id="patch_25">
    <path clip-path="url(#p2383c89810)" d="M 71.353255 179.338562 
L 76.982058 179.338562 
L 76.982058 154.678708 
L 71.353255 154.678708 
z
" style="fill:#dd8452;opacity:0.4;stroke:#ffffff;stroke-linejoin:miter;"/>
   </g>
   <g id="patch_26">
    <path clip-path="url(#p2383c89810)" d="M 76.982058 179.338562 
L 82.61086 179.338562 
L 82.61086 159.296157 
L 76.982058 159.296157 
z
" style="fill:#dd8452;opacity:0.4;stroke:#ffffff;stroke-linejoin:miter;"/>
   </g>
   <g id="patch_27">
    <path clip-path="url(#p2383c89810)" d="M 82.61086 179.338562 
L 88.239662 179.338562 
L 88.239662 162.575215 
L 82.61086 162.575215 
z
" style="fill:#dd8452;opacity:0.4;stroke:#ffffff;stroke-linejoin:miter;"/>
   </g>
   <g id="patch_28">
    <path clip-path="url(#p2383c89810)" d="M 88.239662 179.338562 
L 93.868464 179.338562 
L 93.868464 163.210951 
L 88.239662 163.210951 
z
" style="fill:#dd8452;opacity:0.4;stroke:#ffffff;stroke-linejoin:miter;"/>
   </g>
   <g id="patch_29">
    <path clip-path="url(#p2383c89810)" d="M 93.868464 179.338562 
L 99.497266 179.338562 
L 99.497266 166.155411 
L 93.868464 166.155411 
z
" style="fill:#dd8452;opacity:0.4;stroke:#ffffff;stroke-linejoin:miter;"/>
   </g>
   <g id="patch_30">
    <path clip-path="url(#p2383c89810)" d="M 99.497266 179.338562 
L 105.126068 179.338562 
L 105.126068 167.426882 
L 99.497266 167.426882 
z
" style="fill:#dd8452;opacity:0.4;stroke:#ffffff;stroke-linejoin:miter;"/>
   </g>
   <g id="patch_31">
    <path clip-path="url(#p2383c89810)" d="M 105.126068 179.338562 
L 110.75487 179.338562 
L 110.75487 168.464135 
L 105.126068 168.464135 
z
" style="fill:#dd8452;opacity:0.4;stroke:#ffffff;stroke-linejoin:miter;"/>
   </g>
   <g id="patch_32">
    <path clip-path="url(#p2383c89810)" d="M 110.75487 179.338562 
L 116.383672 179.338562 
L 116.383672 169.401009 
L 110.75487 169.401009 
z
" style="fill:#dd8452;opacity:0.4;stroke:#ffffff;stroke-linejoin:miter;"/>
   </g>
   <g id="patch_33">
    <path clip-path="url(#p2383c89810)" d="M 116.383672 179.338562 
L 122.012475 179.338562 
L 122.012475 169.33409 
L 116.383672 169.33409 
z
" style="fill:#dd8452;opacity:0.4;stroke:#ffffff;stroke-linejoin:miter;"/>
   </g>
   <g id="patch_34">
    <path clip-path="url(#p2383c89810)" d="M 122.012475 179.338562 
L 127.641277 179.338562 
L 127.641277 169.635228 
L 122.012475 169.635228 
z
" style="fill:#dd8452;opacity:0.4;stroke:#ffffff;stroke-linejoin:miter;"/>
   </g>
   <g id="patch_35">
    <path clip-path="url(#p2383c89810)" d="M 127.641277 179.338562 
L 133.270079 179.338562 
L 133.270079 170.438262 
L 127.641277 170.438262 
z
" style="fill:#dd8452;opacity:0.4;stroke:#ffffff;stroke-linejoin:miter;"/>
   </g>
   <g id="patch_36">
    <path clip-path="url(#p2383c89810)" d="M 133.270079 179.338562 
L 138.898881 179.338562 
L 138.898881 170.070205 
L 133.270079 170.070205 
z
" style="fill:#dd8452;opacity:0.4;stroke:#ffffff;stroke-linejoin:miter;"/>
   </g>
   <g id="patch_37">
    <path clip-path="url(#p2383c89810)" d="M 138.898881 179.338562 
L 144.527683 179.338562 
L 144.527683 171.977412 
L 138.898881 171.977412 
z
" style="fill:#dd8452;opacity:0.4;stroke:#ffffff;stroke-linejoin:miter;"/>
   </g>
   <g id="patch_38">
    <path clip-path="url(#p2383c89810)" d="M 144.527683 179.338562 
L 150.156485 179.338562 
L 150.156485 170.77286 
L 144.527683 170.77286 
z
" style="fill:#dd8452;opacity:0.4;stroke:#ffffff;stroke-linejoin:miter;"/>
   </g>
   <g id="patch_39">
    <path clip-path="url(#p2383c89810)" d="M 150.156485 179.338562 
L 155.785287 179.338562 
L 155.785287 172.111251 
L 150.156485 172.111251 
z
" style="fill:#dd8452;opacity:0.4;stroke:#ffffff;stroke-linejoin:miter;"/>
   </g>
   <g id="patch_40">
    <path clip-path="url(#p2383c89810)" d="M 155.785287 179.338562 
L 161.41409 179.338562 
L 161.41409 171.508975 
L 155.785287 171.508975 
z
" style="fill:#dd8452;opacity:0.4;stroke:#ffffff;stroke-linejoin:miter;"/>
   </g>
   <g id="patch_41">
    <path clip-path="url(#p2383c89810)" d="M 161.41409 179.338562 
L 167.042892 179.338562 
L 167.042892 172.044331 
L 161.41409 172.044331 
z
" style="fill:#dd8452;opacity:0.4;stroke:#ffffff;stroke-linejoin:miter;"/>
   </g>
   <g id="patch_42">
    <path clip-path="url(#p2383c89810)" d="M 167.042892 179.338562 
L 172.671694 179.338562 
L 172.671694 171.642814 
L 167.042892 171.642814 
z
" style="fill:#dd8452;opacity:0.4;stroke:#ffffff;stroke-linejoin:miter;"/>
   </g>
   <g id="line2d_1">
    <path clip-path="url(#p2383c89810)" d="M 49.850229 178.847271 
L 50.897497 178.130796 
L 51.944764 176.612387 
L 52.992032 173.702391 
L 54.0393 168.662657 
L 55.086567 160.79513 
L 56.133835 149.768054 
L 58.22837 120.75013 
L 59.275638 106.1889 
L 60.322905 94.63337 
L 61.370173 87.915587 
L 62.417441 86.763203 
L 63.464708 90.63725 
L 64.511976 98.055565 
L 67.653779 124.844638 
L 68.701047 131.872673 
L 69.748314 137.534161 
L 70.795582 142.027448 
L 71.842849 145.607839 
L 72.890117 148.503452 
L 73.937385 150.892361 
L 74.984652 152.909866 
L 77.079188 156.225105 
L 79.173723 158.98509 
L 81.268258 161.33123 
L 83.362794 163.209228 
L 85.457329 164.6603 
L 88.599132 166.376993 
L 91.740935 167.829345 
L 94.882738 169.009494 
L 101.166344 170.985273 
L 103.260879 171.70316 
L 105.355414 172.209344 
L 107.449949 172.464216 
L 114.780823 173.043541 
L 121.064429 173.926313 
L 125.253499 174.465128 
L 128.395302 174.575646 
L 134.678908 174.563154 
L 140.962514 175.011686 
L 147.24612 175.50792 
L 152.482458 175.640074 
L 160.860599 175.705507 
L 167.144205 175.867005 
L 169.23874 176.235392 
L 171.333276 176.917687 
L 175.522346 178.556831 
L 177.616882 179.043361 
L 179.711417 179.251927 
L 181.805952 179.261088 
L 182.85322 179.151052 
L 182.85322 179.151052 
" style="fill:none;stroke:#4c72b0;stroke-linecap:round;stroke-width:1.5;"/>
   </g>
   <g id="line2d_2">
    <path clip-path="url(#p2383c89810)" d="M 43.518288 179.124292 
L 44.665775 178.94612 
L 45.813261 178.638175 
L 46.960748 178.133368 
L 48.108234 177.344208 
L 49.25572 176.166293 
L 50.403207 174.487774 
L 51.550693 172.205676 
L 52.698179 169.248141 
L 53.845666 165.599316 
L 54.993152 161.321349 
L 59.583098 142.138317 
L 60.730584 138.342219 
L 61.87807 135.51607 
L 63.025557 133.807252 
L 64.173043 133.244025 
L 65.320529 133.74062 
L 66.468016 135.121509 
L 67.615502 137.157571 
L 69.910475 142.238509 
L 72.205447 147.379711 
L 73.352934 149.673646 
L 74.50042 151.718185 
L 75.647907 153.507771 
L 76.795393 155.05765 
L 77.942879 156.394041 
L 80.237852 158.54497 
L 82.532825 160.174989 
L 84.827797 161.440835 
L 87.12277 162.454618 
L 90.565229 163.702934 
L 97.450147 165.905122 
L 102.040093 167.157251 
L 106.630038 168.131403 
L 111.219984 168.850744 
L 114.662443 169.193222 
L 122.694847 169.63556 
L 131.874738 170.302966 
L 143.349602 171.227408 
L 152.529493 171.58634 
L 159.414411 171.876132 
L 162.85687 172.088055 
L 165.151843 172.44184 
L 167.446816 173.071974 
L 169.741788 174.00748 
L 173.184247 175.796616 
L 176.626707 177.505218 
L 178.921679 178.33139 
L 181.216652 178.856632 
L 183.511625 179.137323 
L 186.954084 179.273589 
L 189.249057 179.220066 
L 189.249057 179.220066 
" style="fill:none;stroke:#dd8452;stroke-linecap:round;stroke-width:1.5;"/>
   </g>
   <g id="patch_43">
    <path d="M 36.23175 179.338562 
L 36.23175 25.053562 
" style="fill:none;stroke:#ffffff;stroke-linecap:square;stroke-linejoin:miter;stroke-width:1.25;"/>
   </g>
   <g id="patch_44">
    <path d="M 36.23175 179.338562 
L 196.535595 179.338562 
" style="fill:none;stroke:#ffffff;stroke-linecap:square;stroke-linejoin:miter;stroke-width:1.25;"/>
   </g>
   <g id="text_2">
    <g id="patch_45">
     <path d="M 76.307711 128.723469 
L 166.946774 128.723469 
Q 171.146774 128.723469 171.146774 124.523469 
L 171.146774 95.297156 
Q 171.146774 91.097156 166.946774 91.097156 
L 76.307711 91.097156 
Q 72.107711 91.097156 72.107711 95.297156 
L 72.107711 124.523469 
Q 72.107711 128.723469 76.307711 128.723469 
z
" style="fill:#f5deb3;opacity:0.5;stroke:#ffffff;stroke-linejoin:miter;"/>
    </g>
    <!-- lss pwr: 0.44 -->
    <defs>
     <path id="DejaVuSans-32"/>
     <path d="M 18.109375 8.203125 
L 18.109375 -20.796875 
L 9.078125 -20.796875 
L 9.078125 54.6875 
L 18.109375 54.6875 
L 18.109375 46.390625 
Q 20.953125 51.265625 25.265625 53.625 
Q 29.59375 56 35.59375 56 
Q 45.5625 56 51.78125 48.09375 
Q 58.015625 40.1875 58.015625 27.296875 
Q 58.015625 14.40625 51.78125 6.484375 
Q 45.5625 -1.421875 35.59375 -1.421875 
Q 29.59375 -1.421875 25.265625 0.953125 
Q 20.953125 3.328125 18.109375 8.203125 
z
M 48.6875 27.296875 
Q 48.6875 37.203125 44.609375 42.84375 
Q 40.53125 48.484375 33.40625 48.484375 
Q 26.265625 48.484375 22.1875 42.84375 
Q 18.109375 37.203125 18.109375 27.296875 
Q 18.109375 17.390625 22.1875 11.75 
Q 26.265625 6.109375 33.40625 6.109375 
Q 40.53125 6.109375 44.609375 11.75 
Q 48.6875 17.390625 48.6875 27.296875 
z
" id="DejaVuSans-112"/>
     <path d="M 4.203125 54.6875 
L 13.1875 54.6875 
L 24.421875 12.015625 
L 35.59375 54.6875 
L 46.1875 54.6875 
L 57.421875 12.015625 
L 68.609375 54.6875 
L 77.59375 54.6875 
L 63.28125 0 
L 52.6875 0 
L 40.921875 44.828125 
L 29.109375 0 
L 18.5 0 
z
" id="DejaVuSans-119"/>
     <path d="M 41.109375 46.296875 
Q 39.59375 47.171875 37.8125 47.578125 
Q 36.03125 48 33.890625 48 
Q 26.265625 48 22.1875 43.046875 
Q 18.109375 38.09375 18.109375 28.8125 
L 18.109375 0 
L 9.078125 0 
L 9.078125 54.6875 
L 18.109375 54.6875 
L 18.109375 46.1875 
Q 20.953125 51.171875 25.484375 53.578125 
Q 30.03125 56 36.53125 56 
Q 37.453125 56 38.578125 55.875 
Q 39.703125 55.765625 41.0625 55.515625 
z
" id="DejaVuSans-114"/>
     <path d="M 11.71875 12.40625 
L 22.015625 12.40625 
L 22.015625 0 
L 11.71875 0 
z
M 11.71875 51.703125 
L 22.015625 51.703125 
L 22.015625 39.3125 
L 11.71875 39.3125 
z
" id="DejaVuSans-58"/>
     <path d="M 31.78125 66.40625 
Q 24.171875 66.40625 20.328125 58.90625 
Q 16.5 51.421875 16.5 36.375 
Q 16.5 21.390625 20.328125 13.890625 
Q 24.171875 6.390625 31.78125 6.390625 
Q 39.453125 6.390625 43.28125 13.890625 
Q 47.125 21.390625 47.125 36.375 
Q 47.125 51.421875 43.28125 58.90625 
Q 39.453125 66.40625 31.78125 66.40625 
z
M 31.78125 74.21875 
Q 44.046875 74.21875 50.515625 64.515625 
Q 56.984375 54.828125 56.984375 36.375 
Q 56.984375 17.96875 50.515625 8.265625 
Q 44.046875 -1.421875 31.78125 -1.421875 
Q 19.53125 -1.421875 13.0625 8.265625 
Q 6.59375 17.96875 6.59375 36.375 
Q 6.59375 54.828125 13.0625 64.515625 
Q 19.53125 74.21875 31.78125 74.21875 
z
" id="DejaVuSans-48"/>
     <path d="M 10.6875 12.40625 
L 21 12.40625 
L 21 0 
L 10.6875 0 
z
" id="DejaVuSans-46"/>
     <path d="M 37.796875 64.3125 
L 12.890625 25.390625 
L 37.796875 25.390625 
z
M 35.203125 72.90625 
L 47.609375 72.90625 
L 47.609375 25.390625 
L 58.015625 25.390625 
L 58.015625 17.1875 
L 47.609375 17.1875 
L 47.609375 0 
L 37.796875 0 
L 37.796875 17.1875 
L 4.890625 17.1875 
L 4.890625 26.703125 
z
" id="DejaVuSans-52"/>
    </defs>
    <g style="fill:#262626;" transform="translate(76.307711 105.934969)scale(0.14 -0.14)">
     <use xlink:href="#DejaVuSans-108"/>
     <use x="27.783203" xlink:href="#DejaVuSans-115"/>
     <use x="79.882812" xlink:href="#DejaVuSans-115"/>
     <use x="131.982422" xlink:href="#DejaVuSans-32"/>
     <use x="163.769531" xlink:href="#DejaVuSans-112"/>
     <use x="227.246094" xlink:href="#DejaVuSans-119"/>
     <use x="309.033203" xlink:href="#DejaVuSans-114"/>
     <use x="350.130859" xlink:href="#DejaVuSans-58"/>
     <use x="383.822266" xlink:href="#DejaVuSans-32"/>
     <use x="415.609375" xlink:href="#DejaVuSans-48"/>
     <use x="479.232422" xlink:href="#DejaVuSans-46"/>
     <use x="511.019531" xlink:href="#DejaVuSans-52"/>
     <use x="574.642578" xlink:href="#DejaVuSans-52"/>
    </g>
    <!-- lsa pwr: 0.27 -->
    <defs>
     <path d="M 19.1875 8.296875 
L 53.609375 8.296875 
L 53.609375 0 
L 7.328125 0 
L 7.328125 8.296875 
Q 12.9375 14.109375 22.625 23.890625 
Q 32.328125 33.6875 34.8125 36.53125 
Q 39.546875 41.84375 41.421875 45.53125 
Q 43.3125 49.21875 43.3125 52.78125 
Q 43.3125 58.59375 39.234375 62.25 
Q 35.15625 65.921875 28.609375 65.921875 
Q 23.96875 65.921875 18.8125 64.3125 
Q 13.671875 62.703125 7.8125 59.421875 
L 7.8125 69.390625 
Q 13.765625 71.78125 18.9375 73 
Q 24.125 74.21875 28.421875 74.21875 
Q 39.75 74.21875 46.484375 68.546875 
Q 53.21875 62.890625 53.21875 53.421875 
Q 53.21875 48.921875 51.53125 44.890625 
Q 49.859375 40.875 45.40625 35.40625 
Q 44.1875 33.984375 37.640625 27.21875 
Q 31.109375 20.453125 19.1875 8.296875 
z
" id="DejaVuSans-50"/>
     <path d="M 8.203125 72.90625 
L 55.078125 72.90625 
L 55.078125 68.703125 
L 28.609375 0 
L 18.3125 0 
L 43.21875 64.59375 
L 8.203125 64.59375 
z
" id="DejaVuSans-55"/>
    </defs>
    <g style="fill:#262626;" transform="translate(76.307711 121.611906)scale(0.14 -0.14)">
     <use xlink:href="#DejaVuSans-108"/>
     <use x="27.783203" xlink:href="#DejaVuSans-115"/>
     <use x="79.882812" xlink:href="#DejaVuSans-97"/>
     <use x="141.162109" xlink:href="#DejaVuSans-32"/>
     <use x="172.949219" xlink:href="#DejaVuSans-112"/>
     <use x="236.425781" xlink:href="#DejaVuSans-119"/>
     <use x="318.212891" xlink:href="#DejaVuSans-114"/>
     <use x="359.310547" xlink:href="#DejaVuSans-58"/>
     <use x="393.001953" xlink:href="#DejaVuSans-32"/>
     <use x="424.789062" xlink:href="#DejaVuSans-48"/>
     <use x="488.412109" xlink:href="#DejaVuSans-46"/>
     <use x="520.199219" xlink:href="#DejaVuSans-50"/>
     <use x="583.822266" xlink:href="#DejaVuSans-55"/>
    </g>
   </g>
   <g id="text_3">
    <g id="patch_46">
     <path d="M 76.307711 128.723469 
L 166.946774 128.723469 
Q 171.146774 128.723469 171.146774 124.523469 
L 171.146774 95.297156 
Q 171.146774 91.097156 166.946774 91.097156 
L 76.307711 91.097156 
Q 72.107711 91.097156 72.107711 95.297156 
L 72.107711 124.523469 
Q 72.107711 128.723469 76.307711 128.723469 
z
" style="fill:#f5deb3;opacity:0.5;stroke:#ffffff;stroke-linejoin:miter;"/>
    </g>
    <!-- lss pwr: 0.44 -->
    <g style="fill:#262626;" transform="translate(76.307711 105.934969)scale(0.14 -0.14)">
     <use xlink:href="#DejaVuSans-108"/>
     <use x="27.783203" xlink:href="#DejaVuSans-115"/>
     <use x="79.882812" xlink:href="#DejaVuSans-115"/>
     <use x="131.982422" xlink:href="#DejaVuSans-32"/>
     <use x="163.769531" xlink:href="#DejaVuSans-112"/>
     <use x="227.246094" xlink:href="#DejaVuSans-119"/>
     <use x="309.033203" xlink:href="#DejaVuSans-114"/>
     <use x="350.130859" xlink:href="#DejaVuSans-58"/>
     <use x="383.822266" xlink:href="#DejaVuSans-32"/>
     <use x="415.609375" xlink:href="#DejaVuSans-48"/>
     <use x="479.232422" xlink:href="#DejaVuSans-46"/>
     <use x="511.019531" xlink:href="#DejaVuSans-52"/>
     <use x="574.642578" xlink:href="#DejaVuSans-52"/>
    </g>
    <!-- lsa pwr: 0.27 -->
    <g style="fill:#262626;" transform="translate(76.307711 121.611906)scale(0.14 -0.14)">
     <use xlink:href="#DejaVuSans-108"/>
     <use x="27.783203" xlink:href="#DejaVuSans-115"/>
     <use x="79.882812" xlink:href="#DejaVuSans-97"/>
     <use x="141.162109" xlink:href="#DejaVuSans-32"/>
     <use x="172.949219" xlink:href="#DejaVuSans-112"/>
     <use x="236.425781" xlink:href="#DejaVuSans-119"/>
     <use x="318.212891" xlink:href="#DejaVuSans-114"/>
     <use x="359.310547" xlink:href="#DejaVuSans-58"/>
     <use x="393.001953" xlink:href="#DejaVuSans-32"/>
     <use x="424.789062" xlink:href="#DejaVuSans-48"/>
     <use x="488.412109" xlink:href="#DejaVuSans-46"/>
     <use x="520.199219" xlink:href="#DejaVuSans-50"/>
     <use x="583.822266" xlink:href="#DejaVuSans-55"/>
    </g>
   </g>
   <g id="text_4">
    <!-- trial_var = 0 -->
    <defs>
     <path d="M 2.984375 54.6875 
L 12.5 54.6875 
L 29.59375 8.796875 
L 46.6875 54.6875 
L 56.203125 54.6875 
L 35.6875 0 
L 23.484375 0 
z
" id="DejaVuSans-118"/>
     <path d="M 10.59375 45.40625 
L 73.1875 45.40625 
L 73.1875 37.203125 
L 10.59375 37.203125 
z
M 10.59375 25.484375 
L 73.1875 25.484375 
L 73.1875 17.1875 
L 10.59375 17.1875 
z
" id="DejaVuSans-61"/>
    </defs>
    <g style="fill:#262626;" transform="translate(68.04561 19.053562)scale(0.156 -0.156)">
     <use xlink:href="#DejaVuSans-116"/>
     <use x="39.208984" xlink:href="#DejaVuSans-114"/>
     <use x="80.322266" xlink:href="#DejaVuSans-105"/>
     <use x="108.105469" xlink:href="#DejaVuSans-97"/>
     <use x="169.384766" xlink:href="#DejaVuSans-108"/>
     <use x="197.167969" xlink:href="#DejaVuSans-95"/>
     <use x="247.167969" xlink:href="#DejaVuSans-118"/>
     <use x="306.347656" xlink:href="#DejaVuSans-97"/>
     <use x="367.626953" xlink:href="#DejaVuSans-114"/>
     <use x="408.740234" xlink:href="#DejaVuSans-32"/>
     <use x="440.527344" xlink:href="#DejaVuSans-61"/>
     <use x="524.316406" xlink:href="#DejaVuSans-32"/>
     <use x="556.103516" xlink:href="#DejaVuSans-48"/>
    </g>
   </g>
  </g>
  <g id="axes_2">
   <g id="patch_47">
    <path d="M 225.383595 179.338562 
L 385.68744 179.338562 
L 385.68744 25.053562 
L 225.383595 25.053562 
z
" style="fill:#eaeaf2;"/>
   </g>
   <g id="matplotlib.axis_3">
    <g id="xtick_4"/>
    <g id="xtick_5"/>
    <g id="xtick_6"/>
   </g>
   <g id="matplotlib.axis_4">
    <g id="ytick_6"/>
    <g id="ytick_7"/>
    <g id="ytick_8"/>
    <g id="ytick_9"/>
    <g id="ytick_10"/>
   </g>
   <g id="patch_48">
    <path clip-path="url(#pd8eedf03ba)" d="M 249.247395 179.338562 
L 254.876374 179.338562 
L 254.876374 32.400467 
L 249.247395 32.400467 
z
" style="fill:#4c72b0;opacity:0.4;stroke:#ffffff;stroke-linejoin:miter;"/>
   </g>
   <g id="patch_49">
    <path clip-path="url(#pd8eedf03ba)" d="M 254.876374 179.338562 
L 260.505353 179.338562 
L 260.505353 140.424739 
L 254.876374 140.424739 
z
" style="fill:#4c72b0;opacity:0.4;stroke:#ffffff;stroke-linejoin:miter;"/>
   </g>
   <g id="patch_50">
    <path clip-path="url(#pd8eedf03ba)" d="M 260.505353 179.338562 
L 266.134332 179.338562 
L 266.134332 153.720034 
L 260.505353 153.720034 
z
" style="fill:#4c72b0;opacity:0.4;stroke:#ffffff;stroke-linejoin:miter;"/>
   </g>
   <g id="patch_51">
    <path clip-path="url(#pd8eedf03ba)" d="M 266.134332 179.338562 
L 271.763311 179.338562 
L 271.763311 161.182959 
L 266.134332 161.182959 
z
" style="fill:#4c72b0;opacity:0.4;stroke:#ffffff;stroke-linejoin:miter;"/>
   </g>
   <g id="patch_52">
    <path clip-path="url(#pd8eedf03ba)" d="M 271.763311 179.338562 
L 277.392289 179.338562 
L 277.392289 165.91784 
L 271.763311 165.91784 
z
" style="fill:#4c72b0;opacity:0.4;stroke:#ffffff;stroke-linejoin:miter;"/>
   </g>
   <g id="patch_53">
    <path clip-path="url(#pd8eedf03ba)" d="M 277.392289 179.338562 
L 283.021268 179.338562 
L 283.021268 168.457743 
L 277.392289 168.457743 
z
" style="fill:#4c72b0;opacity:0.4;stroke:#ffffff;stroke-linejoin:miter;"/>
   </g>
   <g id="patch_54">
    <path clip-path="url(#pd8eedf03ba)" d="M 283.021268 179.338562 
L 288.650247 179.338562 
L 288.650247 170.495937 
L 283.021268 170.495937 
z
" style="fill:#4c72b0;opacity:0.4;stroke:#ffffff;stroke-linejoin:miter;"/>
   </g>
   <g id="patch_55">
    <path clip-path="url(#pd8eedf03ba)" d="M 288.650247 179.338562 
L 294.279226 179.338562 
L 294.279226 171.875637 
L 288.650247 171.875637 
z
" style="fill:#4c72b0;opacity:0.4;stroke:#ffffff;stroke-linejoin:miter;"/>
   </g>
   <g id="patch_56">
    <path clip-path="url(#pd8eedf03ba)" d="M 294.279226 179.338562 
L 299.908205 179.338562 
L 299.908205 172.722272 
L 294.279226 172.722272 
z
" style="fill:#4c72b0;opacity:0.4;stroke:#ffffff;stroke-linejoin:miter;"/>
   </g>
   <g id="patch_57">
    <path clip-path="url(#pd8eedf03ba)" d="M 299.908205 179.338562 
L 305.537184 179.338562 
L 305.537184 174.666395 
L 299.908205 174.666395 
z
" style="fill:#4c72b0;opacity:0.4;stroke:#ffffff;stroke-linejoin:miter;"/>
   </g>
   <g id="patch_58">
    <path clip-path="url(#pd8eedf03ba)" d="M 305.537184 179.338562 
L 311.166163 179.338562 
L 311.166163 174.196043 
L 305.537184 174.196043 
z
" style="fill:#4c72b0;opacity:0.4;stroke:#ffffff;stroke-linejoin:miter;"/>
   </g>
   <g id="patch_59">
    <path clip-path="url(#pd8eedf03ba)" d="M 311.166163 179.338562 
L 316.795142 179.338562 
L 316.795142 174.697752 
L 311.166163 174.697752 
z
" style="fill:#4c72b0;opacity:0.4;stroke:#ffffff;stroke-linejoin:miter;"/>
   </g>
   <g id="patch_60">
    <path clip-path="url(#pd8eedf03ba)" d="M 316.795142 179.338562 
L 322.424121 179.338562 
L 322.424121 176.171523 
L 316.795142 176.171523 
z
" style="fill:#4c72b0;opacity:0.4;stroke:#ffffff;stroke-linejoin:miter;"/>
   </g>
   <g id="patch_61">
    <path clip-path="url(#pd8eedf03ba)" d="M 322.424121 179.338562 
L 328.0531 179.338562 
L 328.0531 176.29695 
L 322.424121 176.29695 
z
" style="fill:#4c72b0;opacity:0.4;stroke:#ffffff;stroke-linejoin:miter;"/>
   </g>
   <g id="patch_62">
    <path clip-path="url(#pd8eedf03ba)" d="M 328.0531 179.338562 
L 333.682079 179.338562 
L 333.682079 176.20288 
L 328.0531 176.20288 
z
" style="fill:#4c72b0;opacity:0.4;stroke:#ffffff;stroke-linejoin:miter;"/>
   </g>
   <g id="patch_63">
    <path clip-path="url(#pd8eedf03ba)" d="M 333.682079 179.338562 
L 339.311058 179.338562 
L 339.311058 176.830016 
L 333.682079 176.830016 
z
" style="fill:#4c72b0;opacity:0.4;stroke:#ffffff;stroke-linejoin:miter;"/>
   </g>
   <g id="patch_64">
    <path clip-path="url(#pd8eedf03ba)" d="M 339.311058 179.338562 
L 344.940037 179.338562 
L 344.940037 176.422378 
L 339.311058 176.422378 
z
" style="fill:#4c72b0;opacity:0.4;stroke:#ffffff;stroke-linejoin:miter;"/>
   </g>
   <g id="patch_65">
    <path clip-path="url(#pd8eedf03ba)" d="M 344.940037 179.338562 
L 350.569016 179.338562 
L 350.569016 176.485091 
L 344.940037 176.485091 
z
" style="fill:#4c72b0;opacity:0.4;stroke:#ffffff;stroke-linejoin:miter;"/>
   </g>
   <g id="patch_66">
    <path clip-path="url(#pd8eedf03ba)" d="M 350.569016 179.338562 
L 356.197995 179.338562 
L 356.197995 177.018157 
L 350.569016 177.018157 
z
" style="fill:#4c72b0;opacity:0.4;stroke:#ffffff;stroke-linejoin:miter;"/>
   </g>
   <g id="patch_67">
    <path clip-path="url(#pd8eedf03ba)" d="M 356.197995 179.338562 
L 361.826973 179.338562 
L 361.826973 176.767303 
L 356.197995 176.767303 
z
" style="fill:#4c72b0;opacity:0.4;stroke:#ffffff;stroke-linejoin:miter;"/>
   </g>
   <g id="patch_68">
    <path clip-path="url(#pd8eedf03ba)" d="M 249.247424 179.338562 
L 254.875838 179.338562 
L 254.875838 86.889368 
L 249.247424 86.889368 
z
" style="fill:#dd8452;opacity:0.4;stroke:#ffffff;stroke-linejoin:miter;"/>
   </g>
   <g id="patch_69">
    <path clip-path="url(#pd8eedf03ba)" d="M 254.875838 179.338562 
L 260.504253 179.338562 
L 260.504253 142.459237 
L 254.875838 142.459237 
z
" style="fill:#dd8452;opacity:0.4;stroke:#ffffff;stroke-linejoin:miter;"/>
   </g>
   <g id="patch_70">
    <path clip-path="url(#pd8eedf03ba)" d="M 260.504253 179.338562 
L 266.132668 179.338562 
L 266.132668 154.187866 
L 260.504253 154.187866 
z
" style="fill:#dd8452;opacity:0.4;stroke:#ffffff;stroke-linejoin:miter;"/>
   </g>
   <g id="patch_71">
    <path clip-path="url(#pd8eedf03ba)" d="M 266.132668 179.338562 
L 271.761083 179.338562 
L 271.761083 159.738581 
L 266.132668 159.738581 
z
" style="fill:#dd8452;opacity:0.4;stroke:#ffffff;stroke-linejoin:miter;"/>
   </g>
   <g id="patch_72">
    <path clip-path="url(#pd8eedf03ba)" d="M 271.761083 179.338562 
L 277.389497 179.338562 
L 277.389497 164.442576 
L 271.761083 164.442576 
z
" style="fill:#dd8452;opacity:0.4;stroke:#ffffff;stroke-linejoin:miter;"/>
   </g>
   <g id="patch_73">
    <path clip-path="url(#pd8eedf03ba)" d="M 277.389497 179.338562 
L 283.017912 179.338562 
L 283.017912 165.634255 
L 277.389497 165.634255 
z
" style="fill:#dd8452;opacity:0.4;stroke:#ffffff;stroke-linejoin:miter;"/>
   </g>
   <g id="patch_74">
    <path clip-path="url(#pd8eedf03ba)" d="M 283.017912 179.338562 
L 288.646327 179.338562 
L 288.646327 166.951374 
L 283.017912 166.951374 
z
" style="fill:#dd8452;opacity:0.4;stroke:#ffffff;stroke-linejoin:miter;"/>
   </g>
   <g id="patch_75">
    <path clip-path="url(#pd8eedf03ba)" d="M 288.646327 179.338562 
L 294.274742 179.338562 
L 294.274742 168.174413 
L 288.646327 168.174413 
z
" style="fill:#dd8452;opacity:0.4;stroke:#ffffff;stroke-linejoin:miter;"/>
   </g>
   <g id="patch_76">
    <path clip-path="url(#pd8eedf03ba)" d="M 294.274742 179.338562 
L 299.903156 179.338562 
L 299.903156 169.648331 
L 294.274742 169.648331 
z
" style="fill:#dd8452;opacity:0.4;stroke:#ffffff;stroke-linejoin:miter;"/>
   </g>
   <g id="patch_77">
    <path clip-path="url(#pd8eedf03ba)" d="M 299.903156 179.338562 
L 305.531571 179.338562 
L 305.531571 170.306891 
L 299.903156 170.306891 
z
" style="fill:#dd8452;opacity:0.4;stroke:#ffffff;stroke-linejoin:miter;"/>
   </g>
   <g id="patch_78">
    <path clip-path="url(#pd8eedf03ba)" d="M 305.531571 179.338562 
L 311.159986 179.338562 
L 311.159986 171.937609 
L 305.531571 171.937609 
z
" style="fill:#dd8452;opacity:0.4;stroke:#ffffff;stroke-linejoin:miter;"/>
   </g>
   <g id="patch_79">
    <path clip-path="url(#pd8eedf03ba)" d="M 311.159986 179.338562 
L 316.788401 179.338562 
L 316.788401 171.68673 
L 311.159986 171.68673 
z
" style="fill:#dd8452;opacity:0.4;stroke:#ffffff;stroke-linejoin:miter;"/>
   </g>
   <g id="patch_80">
    <path clip-path="url(#pd8eedf03ba)" d="M 316.788401 179.338562 
L 322.416815 179.338562 
L 322.416815 172.094409 
L 316.788401 172.094409 
z
" style="fill:#dd8452;opacity:0.4;stroke:#ffffff;stroke-linejoin:miter;"/>
   </g>
   <g id="patch_81">
    <path clip-path="url(#pd8eedf03ba)" d="M 322.416815 179.338562 
L 328.04523 179.338562 
L 328.04523 172.439369 
L 322.416815 172.439369 
z
" style="fill:#dd8452;opacity:0.4;stroke:#ffffff;stroke-linejoin:miter;"/>
   </g>
   <g id="patch_82">
    <path clip-path="url(#pd8eedf03ba)" d="M 328.04523 179.338562 
L 333.673645 179.338562 
L 333.673645 171.968969 
L 328.04523 171.968969 
z
" style="fill:#dd8452;opacity:0.4;stroke:#ffffff;stroke-linejoin:miter;"/>
   </g>
   <g id="patch_83">
    <path clip-path="url(#pd8eedf03ba)" d="M 333.673645 179.338562 
L 339.30206 179.338562 
L 339.30206 172.815689 
L 333.673645 172.815689 
z
" style="fill:#dd8452;opacity:0.4;stroke:#ffffff;stroke-linejoin:miter;"/>
   </g>
   <g id="patch_84">
    <path clip-path="url(#pd8eedf03ba)" d="M 339.30206 179.338562 
L 344.930474 179.338562 
L 344.930474 172.408009 
L 339.30206 172.408009 
z
" style="fill:#dd8452;opacity:0.4;stroke:#ffffff;stroke-linejoin:miter;"/>
   </g>
   <g id="patch_85">
    <path clip-path="url(#pd8eedf03ba)" d="M 344.930474 179.338562 
L 350.558889 179.338562 
L 350.558889 173.411528 
L 344.930474 173.411528 
z
" style="fill:#dd8452;opacity:0.4;stroke:#ffffff;stroke-linejoin:miter;"/>
   </g>
   <g id="patch_86">
    <path clip-path="url(#pd8eedf03ba)" d="M 350.558889 179.338562 
L 356.187304 179.338562 
L 356.187304 172.847048 
L 350.558889 172.847048 
z
" style="fill:#dd8452;opacity:0.4;stroke:#ffffff;stroke-linejoin:miter;"/>
   </g>
   <g id="patch_87">
    <path clip-path="url(#pd8eedf03ba)" d="M 356.187304 179.338562 
L 361.815718 179.338562 
L 361.815718 172.878408 
L 356.187304 172.878408 
z
" style="fill:#dd8452;opacity:0.4;stroke:#ffffff;stroke-linejoin:miter;"/>
   </g>
   <g id="line2d_3">
    <path clip-path="url(#pd8eedf03ba)" d="M 240.418049 178.806135 
L 241.443548 177.869499 
L 242.469046 175.71339 
L 243.494544 171.344484 
L 244.520042 163.571822 
L 245.54554 151.48652 
L 246.571039 135.185987 
L 248.622035 98.204078 
L 249.647533 84.451572 
L 250.673031 77.874856 
L 251.698529 79.159132 
L 252.724028 86.803204 
L 255.800522 120.866942 
L 256.82602 129.679972 
L 257.851519 136.426783 
L 258.877017 141.474707 
L 259.902515 145.286894 
L 260.928013 148.264056 
L 261.953511 150.696726 
L 262.979009 152.769766 
L 265.030006 156.199402 
L 267.081002 158.943055 
L 269.131999 161.26444 
L 271.182995 163.316826 
L 273.233991 164.968458 
L 275.284988 166.093691 
L 280.412479 168.287655 
L 283.488973 169.699848 
L 285.53997 170.411244 
L 288.616464 171.165885 
L 293.743955 172.253017 
L 297.845948 173.067793 
L 301.947941 174.118193 
L 303.998937 174.341294 
L 310.151926 174.444175 
L 314.253919 174.897081 
L 317.330413 175.457202 
L 320.406908 176.156313 
L 322.457904 176.367788 
L 325.534399 176.26018 
L 328.610893 176.178286 
L 331.687388 176.396265 
L 335.789381 176.7147 
L 338.865875 176.682975 
L 343.993366 176.456529 
L 349.120857 176.586904 
L 355.273846 176.972664 
L 357.324842 177.036807 
L 359.375839 177.326181 
L 361.426835 177.920535 
L 364.50333 178.866882 
L 366.554326 179.195114 
L 368.605323 179.297137 
L 370.656319 179.163328 
L 370.656319 179.163328 
" style="fill:none;stroke:#4c72b0;stroke-linecap:round;stroke-width:1.5;"/>
   </g>
   <g id="line2d_4">
    <path clip-path="url(#pd8eedf03ba)" d="M 233.051755 179.120654 
L 234.193169 178.933451 
L 235.334584 178.607375 
L 236.475998 178.068881 
L 237.617412 177.221915 
L 238.758827 175.952049 
L 239.900241 174.137581 
L 241.041656 171.668519 
L 242.18307 168.47218 
L 243.324485 164.541289 
L 244.465899 159.957891 
L 249.031557 139.996789 
L 250.172971 136.273428 
L 251.314386 133.645577 
L 252.4558 132.237553 
L 253.597214 132.039752 
L 254.738629 132.9216 
L 255.880043 134.664805 
L 257.021458 137.007255 
L 261.587115 147.747031 
L 263.869944 152.126299 
L 266.152773 155.576942 
L 268.435602 158.308352 
L 270.718431 160.505982 
L 273.00126 162.266561 
L 275.284089 163.640795 
L 277.566918 164.682788 
L 279.849746 165.466217 
L 283.27399 166.342619 
L 293.54672 168.73599 
L 298.112377 169.728018 
L 303.819449 170.73529 
L 308.385107 171.363766 
L 312.950765 171.735661 
L 319.799251 172.008648 
L 332.35481 172.401576 
L 338.061882 172.615751 
L 346.051783 172.866182 
L 351.758856 173.244414 
L 354.041684 173.534239 
L 356.324513 174.019091 
L 358.607342 174.754601 
L 362.031585 176.230149 
L 365.455829 177.704723 
L 367.738658 178.436107 
L 370.021486 178.90637 
L 372.304315 179.158763 
L 375.728559 179.279005 
L 378.011387 179.22077 
L 378.011387 179.22077 
" style="fill:none;stroke:#dd8452;stroke-linecap:round;stroke-width:1.5;"/>
   </g>
   <g id="patch_88">
    <path d="M 225.383595 179.338562 
L 225.383595 25.053562 
" style="fill:none;stroke:#ffffff;stroke-linecap:square;stroke-linejoin:miter;stroke-width:1.25;"/>
   </g>
   <g id="patch_89">
    <path d="M 225.383595 179.338562 
L 385.68744 179.338562 
" style="fill:none;stroke:#ffffff;stroke-linecap:square;stroke-linejoin:miter;stroke-width:1.25;"/>
   </g>
   <g id="text_5">
    <g id="patch_90">
     <path d="M 265.459556 128.723469 
L 356.098619 128.723469 
Q 360.298619 128.723469 360.298619 124.523469 
L 360.298619 95.297156 
Q 360.298619 91.097156 356.098619 91.097156 
L 265.459556 91.097156 
Q 261.259556 91.097156 261.259556 95.297156 
L 261.259556 124.523469 
Q 261.259556 128.723469 265.459556 128.723469 
z
" style="fill:#f5deb3;opacity:0.5;stroke:#ffffff;stroke-linejoin:miter;"/>
    </g>
    <!-- lss pwr: 0.47 -->
    <g style="fill:#262626;" transform="translate(265.459556 105.934969)scale(0.14 -0.14)">
     <use xlink:href="#DejaVuSans-108"/>
     <use x="27.783203" xlink:href="#DejaVuSans-115"/>
     <use x="79.882812" xlink:href="#DejaVuSans-115"/>
     <use x="131.982422" xlink:href="#DejaVuSans-32"/>
     <use x="163.769531" xlink:href="#DejaVuSans-112"/>
     <use x="227.246094" xlink:href="#DejaVuSans-119"/>
     <use x="309.033203" xlink:href="#DejaVuSans-114"/>
     <use x="350.130859" xlink:href="#DejaVuSans-58"/>
     <use x="383.822266" xlink:href="#DejaVuSans-32"/>
     <use x="415.609375" xlink:href="#DejaVuSans-48"/>
     <use x="479.232422" xlink:href="#DejaVuSans-46"/>
     <use x="511.019531" xlink:href="#DejaVuSans-52"/>
     <use x="574.642578" xlink:href="#DejaVuSans-55"/>
    </g>
    <!-- lsa pwr: 0.29 -->
    <defs>
     <path d="M 10.984375 1.515625 
L 10.984375 10.5 
Q 14.703125 8.734375 18.5 7.8125 
Q 22.3125 6.890625 25.984375 6.890625 
Q 35.75 6.890625 40.890625 13.453125 
Q 46.046875 20.015625 46.78125 33.40625 
Q 43.953125 29.203125 39.59375 26.953125 
Q 35.25 24.703125 29.984375 24.703125 
Q 19.046875 24.703125 12.671875 31.3125 
Q 6.296875 37.9375 6.296875 49.421875 
Q 6.296875 60.640625 12.9375 67.421875 
Q 19.578125 74.21875 30.609375 74.21875 
Q 43.265625 74.21875 49.921875 64.515625 
Q 56.59375 54.828125 56.59375 36.375 
Q 56.59375 19.140625 48.40625 8.859375 
Q 40.234375 -1.421875 26.421875 -1.421875 
Q 22.703125 -1.421875 18.890625 -0.6875 
Q 15.09375 0.046875 10.984375 1.515625 
z
M 30.609375 32.421875 
Q 37.25 32.421875 41.125 36.953125 
Q 45.015625 41.5 45.015625 49.421875 
Q 45.015625 57.28125 41.125 61.84375 
Q 37.25 66.40625 30.609375 66.40625 
Q 23.96875 66.40625 20.09375 61.84375 
Q 16.21875 57.28125 16.21875 49.421875 
Q 16.21875 41.5 20.09375 36.953125 
Q 23.96875 32.421875 30.609375 32.421875 
z
" id="DejaVuSans-57"/>
    </defs>
    <g style="fill:#262626;" transform="translate(265.459556 121.611906)scale(0.14 -0.14)">
     <use xlink:href="#DejaVuSans-108"/>
     <use x="27.783203" xlink:href="#DejaVuSans-115"/>
     <use x="79.882812" xlink:href="#DejaVuSans-97"/>
     <use x="141.162109" xlink:href="#DejaVuSans-32"/>
     <use x="172.949219" xlink:href="#DejaVuSans-112"/>
     <use x="236.425781" xlink:href="#DejaVuSans-119"/>
     <use x="318.212891" xlink:href="#DejaVuSans-114"/>
     <use x="359.310547" xlink:href="#DejaVuSans-58"/>
     <use x="393.001953" xlink:href="#DejaVuSans-32"/>
     <use x="424.789062" xlink:href="#DejaVuSans-48"/>
     <use x="488.412109" xlink:href="#DejaVuSans-46"/>
     <use x="520.199219" xlink:href="#DejaVuSans-50"/>
     <use x="583.822266" xlink:href="#DejaVuSans-57"/>
    </g>
   </g>
   <g id="text_6">
    <g id="patch_91">
     <path d="M 265.459556 128.723469 
L 356.098619 128.723469 
Q 360.298619 128.723469 360.298619 124.523469 
L 360.298619 95.297156 
Q 360.298619 91.097156 356.098619 91.097156 
L 265.459556 91.097156 
Q 261.259556 91.097156 261.259556 95.297156 
L 261.259556 124.523469 
Q 261.259556 128.723469 265.459556 128.723469 
z
" style="fill:#f5deb3;opacity:0.5;stroke:#ffffff;stroke-linejoin:miter;"/>
    </g>
    <!-- lss pwr: 0.47 -->
    <g style="fill:#262626;" transform="translate(265.459556 105.934969)scale(0.14 -0.14)">
     <use xlink:href="#DejaVuSans-108"/>
     <use x="27.783203" xlink:href="#DejaVuSans-115"/>
     <use x="79.882812" xlink:href="#DejaVuSans-115"/>
     <use x="131.982422" xlink:href="#DejaVuSans-32"/>
     <use x="163.769531" xlink:href="#DejaVuSans-112"/>
     <use x="227.246094" xlink:href="#DejaVuSans-119"/>
     <use x="309.033203" xlink:href="#DejaVuSans-114"/>
     <use x="350.130859" xlink:href="#DejaVuSans-58"/>
     <use x="383.822266" xlink:href="#DejaVuSans-32"/>
     <use x="415.609375" xlink:href="#DejaVuSans-48"/>
     <use x="479.232422" xlink:href="#DejaVuSans-46"/>
     <use x="511.019531" xlink:href="#DejaVuSans-52"/>
     <use x="574.642578" xlink:href="#DejaVuSans-55"/>
    </g>
    <!-- lsa pwr: 0.29 -->
    <g style="fill:#262626;" transform="translate(265.459556 121.611906)scale(0.14 -0.14)">
     <use xlink:href="#DejaVuSans-108"/>
     <use x="27.783203" xlink:href="#DejaVuSans-115"/>
     <use x="79.882812" xlink:href="#DejaVuSans-97"/>
     <use x="141.162109" xlink:href="#DejaVuSans-32"/>
     <use x="172.949219" xlink:href="#DejaVuSans-112"/>
     <use x="236.425781" xlink:href="#DejaVuSans-119"/>
     <use x="318.212891" xlink:href="#DejaVuSans-114"/>
     <use x="359.310547" xlink:href="#DejaVuSans-58"/>
     <use x="393.001953" xlink:href="#DejaVuSans-32"/>
     <use x="424.789062" xlink:href="#DejaVuSans-48"/>
     <use x="488.412109" xlink:href="#DejaVuSans-46"/>
     <use x="520.199219" xlink:href="#DejaVuSans-50"/>
     <use x="583.822266" xlink:href="#DejaVuSans-57"/>
    </g>
   </g>
   <g id="text_7">
    <g id="patch_92">
     <path d="M 384.837517 12.519219 
L 384.837517 191.872906 
L 408.481267 191.872906 
L 408.481267 12.519219 
z
" style="fill:#ffffff;stroke:#ffffff;stroke-linejoin:miter;"/>
    </g>
    <!-- signal_magnitude = 1 -->
    <defs>
     <path d="M 12.40625 8.296875 
L 28.515625 8.296875 
L 28.515625 63.921875 
L 10.984375 60.40625 
L 10.984375 69.390625 
L 28.421875 72.90625 
L 38.28125 72.90625 
L 38.28125 8.296875 
L 54.390625 8.296875 
L 54.390625 0 
L 12.40625 0 
z
" id="DejaVuSans-49"/>
    </defs>
    <g style="fill:#262626;" transform="translate(392.571704 16.575219)rotate(-270)scale(0.156 -0.156)">
     <use xlink:href="#DejaVuSans-115"/>
     <use x="52.099609" xlink:href="#DejaVuSans-105"/>
     <use x="79.882812" xlink:href="#DejaVuSans-103"/>
     <use x="143.359375" xlink:href="#DejaVuSans-110"/>
     <use x="206.738281" xlink:href="#DejaVuSans-97"/>
     <use x="268.017578" xlink:href="#DejaVuSans-108"/>
     <use x="295.800781" xlink:href="#DejaVuSans-95"/>
     <use x="345.800781" xlink:href="#DejaVuSans-109"/>
     <use x="443.212891" xlink:href="#DejaVuSans-97"/>
     <use x="504.492188" xlink:href="#DejaVuSans-103"/>
     <use x="567.96875" xlink:href="#DejaVuSans-110"/>
     <use x="631.347656" xlink:href="#DejaVuSans-105"/>
     <use x="659.130859" xlink:href="#DejaVuSans-116"/>
     <use x="698.339844" xlink:href="#DejaVuSans-117"/>
     <use x="761.71875" xlink:href="#DejaVuSans-100"/>
     <use x="825.195312" xlink:href="#DejaVuSans-101"/>
     <use x="886.71875" xlink:href="#DejaVuSans-32"/>
     <use x="918.505859" xlink:href="#DejaVuSans-61"/>
     <use x="1002.294922" xlink:href="#DejaVuSans-32"/>
     <use x="1034.082031" xlink:href="#DejaVuSans-49"/>
    </g>
   </g>
   <g id="text_8">
    <!-- trial_var = 1 -->
    <g style="fill:#262626;" transform="translate(257.197455 19.053562)scale(0.156 -0.156)">
     <use xlink:href="#DejaVuSans-116"/>
     <use x="39.208984" xlink:href="#DejaVuSans-114"/>
     <use x="80.322266" xlink:href="#DejaVuSans-105"/>
     <use x="108.105469" xlink:href="#DejaVuSans-97"/>
     <use x="169.384766" xlink:href="#DejaVuSans-108"/>
     <use x="197.167969" xlink:href="#DejaVuSans-95"/>
     <use x="247.167969" xlink:href="#DejaVuSans-118"/>
     <use x="306.347656" xlink:href="#DejaVuSans-97"/>
     <use x="367.626953" xlink:href="#DejaVuSans-114"/>
     <use x="408.740234" xlink:href="#DejaVuSans-32"/>
     <use x="440.527344" xlink:href="#DejaVuSans-61"/>
     <use x="524.316406" xlink:href="#DejaVuSans-32"/>
     <use x="556.103516" xlink:href="#DejaVuSans-49"/>
    </g>
   </g>
   <g id="legend_1">
    <g id="patch_93">
     <path d="M 309.732096 78.473 
L 375.67744 78.473 
Q 378.53744 78.473 378.53744 75.613 
L 378.53744 35.063562 
Q 378.53744 32.203562 375.67744 32.203562 
L 309.732096 32.203562 
Q 306.872096 32.203562 306.872096 35.063562 
L 306.872096 75.613 
Q 306.872096 78.473 309.732096 78.473 
z
" style="fill:#eaeaf2;opacity:0.8;stroke:#cccccc;stroke-linejoin:miter;"/>
    </g>
    <g id="patch_94">
     <path d="M 312.592096 48.789328 
L 341.192096 48.789328 
L 341.192096 38.779328 
L 312.592096 38.779328 
z
" style="fill:#4c72b0;opacity:0.4;stroke:#ffffff;stroke-linejoin:miter;"/>
    </g>
    <g id="text_9">
     <!-- lss -->
     <g style="fill:#262626;" transform="translate(352.632096 48.789328)scale(0.143 -0.143)">
      <use xlink:href="#DejaVuSans-108"/>
      <use x="27.783203" xlink:href="#DejaVuSans-115"/>
      <use x="79.882812" xlink:href="#DejaVuSans-115"/>
     </g>
    </g>
    <g id="patch_95">
     <path d="M 312.592096 69.779047 
L 341.192096 69.779047 
L 341.192096 59.769047 
L 312.592096 59.769047 
z
" style="fill:#dd8452;opacity:0.4;stroke:#ffffff;stroke-linejoin:miter;"/>
    </g>
    <g id="text_10">
     <!-- lsa -->
     <g style="fill:#262626;" transform="translate(352.632096 69.779047)scale(0.143 -0.143)">
      <use xlink:href="#DejaVuSans-108"/>
      <use x="27.783203" xlink:href="#DejaVuSans-115"/>
      <use x="79.882812" xlink:href="#DejaVuSans-97"/>
     </g>
    </g>
   </g>
  </g>
  <g id="axes_3">
   <g id="patch_96">
    <path d="M 36.23175 362.857563 
L 196.535595 362.857563 
L 196.535595 208.572563 
L 36.23175 208.572563 
z
" style="fill:#eaeaf2;"/>
   </g>
   <g id="matplotlib.axis_5">
    <g id="xtick_7">
     <g id="text_11">
      <!-- 0.0 -->
      <g style="fill:#262626;" transform="translate(48.724813 383.223328)scale(0.143 -0.143)">
       <use xlink:href="#DejaVuSans-48"/>
       <use x="63.623047" xlink:href="#DejaVuSans-46"/>
       <use x="95.410156" xlink:href="#DejaVuSans-48"/>
      </g>
     </g>
    </g>
    <g id="xtick_8">
     <g id="text_12">
      <!-- 0.5 -->
      <defs>
       <path d="M 10.796875 72.90625 
L 49.515625 72.90625 
L 49.515625 64.59375 
L 19.828125 64.59375 
L 19.828125 46.734375 
Q 21.96875 47.46875 24.109375 47.828125 
Q 26.265625 48.1875 28.421875 48.1875 
Q 40.625 48.1875 47.75 41.5 
Q 54.890625 34.8125 54.890625 23.390625 
Q 54.890625 11.625 47.5625 5.09375 
Q 40.234375 -1.421875 26.90625 -1.421875 
Q 22.3125 -1.421875 17.546875 -0.640625 
Q 12.796875 0.140625 7.71875 1.703125 
L 7.71875 11.625 
Q 12.109375 9.234375 16.796875 8.0625 
Q 21.484375 6.890625 26.703125 6.890625 
Q 35.15625 6.890625 40.078125 11.328125 
Q 45.015625 15.765625 45.015625 23.390625 
Q 45.015625 31 40.078125 35.4375 
Q 35.15625 39.890625 26.703125 39.890625 
Q 22.75 39.890625 18.8125 39.015625 
Q 14.890625 38.140625 10.796875 36.28125 
z
" id="DejaVuSans-53"/>
      </defs>
      <g style="fill:#262626;" transform="translate(105.015971 383.223328)scale(0.143 -0.143)">
       <use xlink:href="#DejaVuSans-48"/>
       <use x="63.623047" xlink:href="#DejaVuSans-46"/>
       <use x="95.410156" xlink:href="#DejaVuSans-53"/>
      </g>
     </g>
    </g>
    <g id="xtick_9">
     <g id="text_13">
      <!-- 1.0 -->
      <g style="fill:#262626;" transform="translate(161.307128 383.223328)scale(0.143 -0.143)">
       <use xlink:href="#DejaVuSans-49"/>
       <use x="63.623047" xlink:href="#DejaVuSans-46"/>
       <use x="95.410156" xlink:href="#DejaVuSans-48"/>
      </g>
     </g>
    </g>
    <g id="text_14">
     <!-- p value -->
     <g style="fill:#262626;" transform="translate(87.646766 402.050844)scale(0.156 -0.156)">
      <use xlink:href="#DejaVuSans-112"/>
      <use x="63.476562" xlink:href="#DejaVuSans-32"/>
      <use x="95.263672" xlink:href="#DejaVuSans-118"/>
      <use x="154.443359" xlink:href="#DejaVuSans-97"/>
      <use x="215.722656" xlink:href="#DejaVuSans-108"/>
      <use x="243.505859" xlink:href="#DejaVuSans-117"/>
      <use x="306.884766" xlink:href="#DejaVuSans-101"/>
     </g>
    </g>
   </g>
   <g id="matplotlib.axis_6">
    <g id="ytick_11"/>
    <g id="ytick_12"/>
    <g id="ytick_13"/>
    <g id="ytick_14"/>
    <g id="text_15">
     <!-- signal_magnitude -->
     <g style="fill:#262626;" transform="translate(19.053563 354.879125)rotate(-90)scale(0.156 -0.156)">
      <use xlink:href="#DejaVuSans-115"/>
      <use x="52.099609" xlink:href="#DejaVuSans-105"/>
      <use x="79.882812" xlink:href="#DejaVuSans-103"/>
      <use x="143.359375" xlink:href="#DejaVuSans-110"/>
      <use x="206.738281" xlink:href="#DejaVuSans-97"/>
      <use x="268.017578" xlink:href="#DejaVuSans-108"/>
      <use x="295.800781" xlink:href="#DejaVuSans-95"/>
      <use x="345.800781" xlink:href="#DejaVuSans-109"/>
      <use x="443.212891" xlink:href="#DejaVuSans-97"/>
      <use x="504.492188" xlink:href="#DejaVuSans-103"/>
      <use x="567.96875" xlink:href="#DejaVuSans-110"/>
      <use x="631.347656" xlink:href="#DejaVuSans-105"/>
      <use x="659.130859" xlink:href="#DejaVuSans-116"/>
      <use x="698.339844" xlink:href="#DejaVuSans-117"/>
      <use x="761.71875" xlink:href="#DejaVuSans-100"/>
      <use x="825.195312" xlink:href="#DejaVuSans-101"/>
     </g>
    </g>
   </g>
   <g id="patch_97">
    <path clip-path="url(#pafd8ad67be)" d="M 60.095547 362.857563 
L 63.115689 362.857563 
L 63.115689 287.706634 
L 60.095547 287.706634 
z
" style="fill:#4c72b0;opacity:0.4;stroke:#ffffff;stroke-linejoin:miter;"/>
   </g>
   <g id="patch_98">
    <path clip-path="url(#pafd8ad67be)" d="M 63.115689 362.857563 
L 66.135831 362.857563 
L 66.135831 361.934994 
L 63.115689 361.934994 
z
" style="fill:#4c72b0;opacity:0.4;stroke:#ffffff;stroke-linejoin:miter;"/>
   </g>
   <g id="patch_99">
    <path clip-path="url(#pafd8ad67be)" d="M 66.135831 362.857563 
L 69.155973 362.857563 
L 69.155973 362.519287 
L 66.135831 362.519287 
z
" style="fill:#4c72b0;opacity:0.4;stroke:#ffffff;stroke-linejoin:miter;"/>
   </g>
   <g id="patch_100">
    <path clip-path="url(#pafd8ad67be)" d="M 69.155973 362.857563 
L 72.176115 362.857563 
L 72.176115 362.711489 
L 69.155973 362.711489 
z
" style="fill:#4c72b0;opacity:0.4;stroke:#ffffff;stroke-linejoin:miter;"/>
   </g>
   <g id="patch_101">
    <path clip-path="url(#pafd8ad67be)" d="M 72.176115 362.857563 
L 75.196257 362.857563 
L 75.196257 362.749929 
L 72.176115 362.749929 
z
" style="fill:#4c72b0;opacity:0.4;stroke:#ffffff;stroke-linejoin:miter;"/>
   </g>
   <g id="patch_102">
    <path clip-path="url(#pafd8ad67be)" d="M 75.196257 362.857563 
L 78.216399 362.857563 
L 78.216399 362.757618 
L 75.196257 362.757618 
z
" style="fill:#4c72b0;opacity:0.4;stroke:#ffffff;stroke-linejoin:miter;"/>
   </g>
   <g id="patch_103">
    <path clip-path="url(#pafd8ad67be)" d="M 78.216399 362.857563 
L 81.236541 362.857563 
L 81.236541 362.842186 
L 78.216399 362.842186 
z
" style="fill:#4c72b0;opacity:0.4;stroke:#ffffff;stroke-linejoin:miter;"/>
   </g>
   <g id="patch_104">
    <path clip-path="url(#pafd8ad67be)" d="M 81.236541 362.857563 
L 84.256683 362.857563 
L 84.256683 362.78837 
L 81.236541 362.78837 
z
" style="fill:#4c72b0;opacity:0.4;stroke:#ffffff;stroke-linejoin:miter;"/>
   </g>
   <g id="patch_105">
    <path clip-path="url(#pafd8ad67be)" d="M 84.256683 362.857563 
L 87.276825 362.857563 
L 87.276825 362.849874 
L 84.256683 362.849874 
z
" style="fill:#4c72b0;opacity:0.4;stroke:#ffffff;stroke-linejoin:miter;"/>
   </g>
   <g id="patch_106">
    <path clip-path="url(#pafd8ad67be)" d="M 87.276825 362.857563 
L 90.296967 362.857563 
L 90.296967 362.842186 
L 87.276825 362.842186 
z
" style="fill:#4c72b0;opacity:0.4;stroke:#ffffff;stroke-linejoin:miter;"/>
   </g>
   <g id="patch_107">
    <path clip-path="url(#pafd8ad67be)" d="M 90.296967 362.857563 
L 93.317109 362.857563 
L 93.317109 362.857563 
L 90.296967 362.857563 
z
" style="fill:#4c72b0;opacity:0.4;stroke:#ffffff;stroke-linejoin:miter;"/>
   </g>
   <g id="patch_108">
    <path clip-path="url(#pafd8ad67be)" d="M 93.317109 362.857563 
L 96.337251 362.857563 
L 96.337251 362.842186 
L 93.317109 362.842186 
z
" style="fill:#4c72b0;opacity:0.4;stroke:#ffffff;stroke-linejoin:miter;"/>
   </g>
   <g id="patch_109">
    <path clip-path="url(#pafd8ad67be)" d="M 96.337251 362.857563 
L 99.357393 362.857563 
L 99.357393 362.857563 
L 96.337251 362.857563 
z
" style="fill:#4c72b0;opacity:0.4;stroke:#ffffff;stroke-linejoin:miter;"/>
   </g>
   <g id="patch_110">
    <path clip-path="url(#pafd8ad67be)" d="M 99.357393 362.857563 
L 102.377535 362.857563 
L 102.377535 362.849874 
L 99.357393 362.849874 
z
" style="fill:#4c72b0;opacity:0.4;stroke:#ffffff;stroke-linejoin:miter;"/>
   </g>
   <g id="patch_111">
    <path clip-path="url(#pafd8ad67be)" d="M 102.377535 362.857563 
L 105.397677 362.857563 
L 105.397677 362.842186 
L 102.377535 362.842186 
z
" style="fill:#4c72b0;opacity:0.4;stroke:#ffffff;stroke-linejoin:miter;"/>
   </g>
   <g id="patch_112">
    <path clip-path="url(#pafd8ad67be)" d="M 105.397677 362.857563 
L 108.417819 362.857563 
L 108.417819 362.857563 
L 105.397677 362.857563 
z
" style="fill:#4c72b0;opacity:0.4;stroke:#ffffff;stroke-linejoin:miter;"/>
   </g>
   <g id="patch_113">
    <path clip-path="url(#pafd8ad67be)" d="M 108.417819 362.857563 
L 111.437961 362.857563 
L 111.437961 362.857563 
L 108.417819 362.857563 
z
" style="fill:#4c72b0;opacity:0.4;stroke:#ffffff;stroke-linejoin:miter;"/>
   </g>
   <g id="patch_114">
    <path clip-path="url(#pafd8ad67be)" d="M 111.437961 362.857563 
L 114.458103 362.857563 
L 114.458103 362.849874 
L 111.437961 362.849874 
z
" style="fill:#4c72b0;opacity:0.4;stroke:#ffffff;stroke-linejoin:miter;"/>
   </g>
   <g id="patch_115">
    <path clip-path="url(#pafd8ad67be)" d="M 114.458103 362.857563 
L 117.478245 362.857563 
L 117.478245 362.857563 
L 114.458103 362.857563 
z
" style="fill:#4c72b0;opacity:0.4;stroke:#ffffff;stroke-linejoin:miter;"/>
   </g>
   <g id="patch_116">
    <path clip-path="url(#pafd8ad67be)" d="M 117.478245 362.857563 
L 120.498387 362.857563 
L 120.498387 362.834498 
L 117.478245 362.834498 
z
" style="fill:#4c72b0;opacity:0.4;stroke:#ffffff;stroke-linejoin:miter;"/>
   </g>
   <g id="patch_117">
    <path clip-path="url(#pafd8ad67be)" d="M 60.095547 362.857563 
L 61.666103 362.857563 
L 61.666103 215.919467 
L 60.095547 215.919467 
z
" style="fill:#dd8452;opacity:0.4;stroke:#ffffff;stroke-linejoin:miter;"/>
   </g>
   <g id="patch_118">
    <path clip-path="url(#pafd8ad67be)" d="M 61.666103 362.857563 
L 63.236658 362.857563 
L 63.236658 362.207067 
L 61.666103 362.207067 
z
" style="fill:#dd8452;opacity:0.4;stroke:#ffffff;stroke-linejoin:miter;"/>
   </g>
   <g id="patch_119">
    <path clip-path="url(#pafd8ad67be)" d="M 63.236658 362.857563 
L 64.807213 362.857563 
L 64.807213 362.709723 
L 63.236658 362.709723 
z
" style="fill:#dd8452;opacity:0.4;stroke:#ffffff;stroke-linejoin:miter;"/>
   </g>
   <g id="patch_120">
    <path clip-path="url(#pafd8ad67be)" d="M 64.807213 362.857563 
L 66.377769 362.857563 
L 66.377769 362.768859 
L 64.807213 362.768859 
z
" style="fill:#dd8452;opacity:0.4;stroke:#ffffff;stroke-linejoin:miter;"/>
   </g>
   <g id="patch_121">
    <path clip-path="url(#pafd8ad67be)" d="M 66.377769 362.857563 
L 67.948324 362.857563 
L 67.948324 362.827995 
L 66.377769 362.827995 
z
" style="fill:#dd8452;opacity:0.4;stroke:#ffffff;stroke-linejoin:miter;"/>
   </g>
   <g id="patch_122">
    <path clip-path="url(#pafd8ad67be)" d="M 67.948324 362.857563 
L 69.518879 362.857563 
L 69.518879 362.827995 
L 67.948324 362.827995 
z
" style="fill:#dd8452;opacity:0.4;stroke:#ffffff;stroke-linejoin:miter;"/>
   </g>
   <g id="patch_123">
    <path clip-path="url(#pafd8ad67be)" d="M 69.518879 362.857563 
L 71.089434 362.857563 
L 71.089434 362.842779 
L 69.518879 362.842779 
z
" style="fill:#dd8452;opacity:0.4;stroke:#ffffff;stroke-linejoin:miter;"/>
   </g>
   <g id="patch_124">
    <path clip-path="url(#pafd8ad67be)" d="M 71.089434 362.857563 
L 72.65999 362.857563 
L 72.65999 362.842779 
L 71.089434 362.842779 
z
" style="fill:#dd8452;opacity:0.4;stroke:#ffffff;stroke-linejoin:miter;"/>
   </g>
   <g id="patch_125">
    <path clip-path="url(#pafd8ad67be)" d="M 72.65999 362.857563 
L 74.230545 362.857563 
L 74.230545 362.857563 
L 72.65999 362.857563 
z
" style="fill:#dd8452;opacity:0.4;stroke:#ffffff;stroke-linejoin:miter;"/>
   </g>
   <g id="patch_126">
    <path clip-path="url(#pafd8ad67be)" d="M 74.230545 362.857563 
L 75.8011 362.857563 
L 75.8011 362.857563 
L 74.230545 362.857563 
z
" style="fill:#dd8452;opacity:0.4;stroke:#ffffff;stroke-linejoin:miter;"/>
   </g>
   <g id="patch_127">
    <path clip-path="url(#pafd8ad67be)" d="M 75.8011 362.857563 
L 77.371656 362.857563 
L 77.371656 362.857563 
L 75.8011 362.857563 
z
" style="fill:#dd8452;opacity:0.4;stroke:#ffffff;stroke-linejoin:miter;"/>
   </g>
   <g id="patch_128">
    <path clip-path="url(#pafd8ad67be)" d="M 77.371656 362.857563 
L 78.942211 362.857563 
L 78.942211 362.857563 
L 77.371656 362.857563 
z
" style="fill:#dd8452;opacity:0.4;stroke:#ffffff;stroke-linejoin:miter;"/>
   </g>
   <g id="patch_129">
    <path clip-path="url(#pafd8ad67be)" d="M 78.942211 362.857563 
L 80.512766 362.857563 
L 80.512766 362.857563 
L 78.942211 362.857563 
z
" style="fill:#dd8452;opacity:0.4;stroke:#ffffff;stroke-linejoin:miter;"/>
   </g>
   <g id="patch_130">
    <path clip-path="url(#pafd8ad67be)" d="M 80.512766 362.857563 
L 82.083321 362.857563 
L 82.083321 362.842779 
L 80.512766 362.842779 
z
" style="fill:#dd8452;opacity:0.4;stroke:#ffffff;stroke-linejoin:miter;"/>
   </g>
   <g id="patch_131">
    <path clip-path="url(#pafd8ad67be)" d="M 82.083321 362.857563 
L 83.653877 362.857563 
L 83.653877 362.857563 
L 82.083321 362.857563 
z
" style="fill:#dd8452;opacity:0.4;stroke:#ffffff;stroke-linejoin:miter;"/>
   </g>
   <g id="patch_132">
    <path clip-path="url(#pafd8ad67be)" d="M 83.653877 362.857563 
L 85.224432 362.857563 
L 85.224432 362.857563 
L 83.653877 362.857563 
z
" style="fill:#dd8452;opacity:0.4;stroke:#ffffff;stroke-linejoin:miter;"/>
   </g>
   <g id="patch_133">
    <path clip-path="url(#pafd8ad67be)" d="M 85.224432 362.857563 
L 86.794987 362.857563 
L 86.794987 362.842779 
L 85.224432 362.842779 
z
" style="fill:#dd8452;opacity:0.4;stroke:#ffffff;stroke-linejoin:miter;"/>
   </g>
   <g id="patch_134">
    <path clip-path="url(#pafd8ad67be)" d="M 86.794987 362.857563 
L 88.365542 362.857563 
L 88.365542 362.857563 
L 86.794987 362.857563 
z
" style="fill:#dd8452;opacity:0.4;stroke:#ffffff;stroke-linejoin:miter;"/>
   </g>
   <g id="patch_135">
    <path clip-path="url(#pafd8ad67be)" d="M 88.365542 362.857563 
L 89.936098 362.857563 
L 89.936098 362.857563 
L 88.365542 362.857563 
z
" style="fill:#dd8452;opacity:0.4;stroke:#ffffff;stroke-linejoin:miter;"/>
   </g>
   <g id="patch_136">
    <path clip-path="url(#pafd8ad67be)" d="M 89.936098 362.857563 
L 91.506653 362.857563 
L 91.506653 362.842779 
L 89.936098 362.842779 
z
" style="fill:#dd8452;opacity:0.4;stroke:#ffffff;stroke-linejoin:miter;"/>
   </g>
   <g id="line2d_5">
    <path clip-path="url(#pafd8ad67be)" d="M 60.083599 362.380925 
L 60.5594 362.857563 
L 61.035201 358.038711 
L 61.511002 356.875024 
L 61.986803 359.3314 
L 62.462604 360.796896 
L 62.938405 359.964493 
L 63.414206 362.060909 
L 63.890007 361.234535 
L 64.365808 362.243941 
L 64.841609 361.671802 
L 65.317411 362.245273 
L 65.793212 362.359751 
L 66.269013 362.597532 
L 66.744814 362.536926 
L 67.220615 362.360264 
L 67.696416 362.457635 
L 68.172217 362.434344 
L 68.648018 362.631453 
L 69.123819 362.689218 
L 69.59962 362.56192 
L 70.075421 362.842375 
L 70.551222 362.703973 
L 71.027023 362.750459 
L 71.502825 362.672425 
L 72.454427 362.80326 
L 73.406029 362.539694 
L 73.88183 362.857563 
L 74.357631 362.652024 
L 74.833432 362.857563 
L 75.309233 362.564866 
L 75.785034 362.857563 
L 76.260835 362.71207 
L 77.212437 362.797095 
L 78.16404 362.767098 
L 78.639841 362.848211 
L 79.115642 362.796734 
L 80.067244 362.849473 
L 81.970448 362.807224 
L 83.397851 362.682836 
L 83.873652 362.83052 
L 85.776857 362.788326 
L 86.728459 362.854955 
L 103.381497 362.752022 
L 103.857298 362.857563 
L 108.615308 362.847993 
L 112.897518 362.857563 
L 114.324921 362.753654 
L 114.800722 362.857563 
L 116.228126 362.812161 
L 117.655529 362.857563 
L 118.13133 362.772703 
L 118.607131 362.857563 
L 119.082932 362.706589 
L 119.558733 362.857563 
L 120.034534 362.662277 
L 120.510335 362.857563 
L 120.510335 362.857563 
" style="fill:none;stroke:#4c72b0;stroke-linecap:round;stroke-width:1.5;"/>
   </g>
   <g id="line2d_6">
    <path clip-path="url(#pafd8ad67be)" d="M 60.094673 362.401506 
L 60.342019 362.857563 
L 60.589364 358.621068 
L 61.3314 360.717479 
L 61.82609 362.40014 
L 62.073436 361.663451 
L 62.320781 362.611338 
L 62.568126 361.871604 
L 62.815472 362.648698 
L 63.062817 362.320864 
L 63.804853 362.741916 
L 64.052198 362.65043 
L 64.299543 362.857563 
L 64.546889 362.616858 
L 64.794234 362.857563 
L 65.041579 362.538087 
L 65.288925 362.857563 
L 65.53627 362.692516 
L 65.783615 362.856016 
L 66.030961 362.655863 
L 66.278306 362.857563 
L 66.525651 362.674792 
L 66.772997 362.857563 
L 67.020342 362.672729 
L 67.267687 362.857563 
L 67.515032 362.797767 
L 67.762378 362.857563 
L 68.009723 362.744711 
L 68.257068 362.856322 
L 69.74114 362.857563 
L 70.483176 362.857563 
L 70.730521 362.71516 
L 70.977867 362.857563 
L 71.472557 362.810827 
L 72.214593 362.857563 
L 78.398226 362.852086 
L 83.097787 362.857563 
L 85.323895 362.693299 
L 85.57124 362.857563 
L 86.313276 362.831218 
L 87.550002 362.857563 
L 88.786729 362.824352 
L 89.528765 362.857563 
L 90.270801 362.783501 
L 90.518146 362.857563 
L 90.765491 362.747942 
L 91.012837 362.857563 
L 91.260182 362.682724 
L 91.507527 362.857563 
L 91.507527 362.857563 
" style="fill:none;stroke:#dd8452;stroke-linecap:round;stroke-width:1.5;"/>
   </g>
   <g id="patch_137">
    <path d="M 36.23175 362.857563 
L 36.23175 208.572563 
" style="fill:none;stroke:#ffffff;stroke-linecap:square;stroke-linejoin:miter;stroke-width:1.25;"/>
   </g>
   <g id="patch_138">
    <path d="M 36.23175 362.857563 
L 196.535595 362.857563 
" style="fill:none;stroke:#ffffff;stroke-linecap:square;stroke-linejoin:miter;stroke-width:1.25;"/>
   </g>
   <g id="text_16">
    <g id="patch_139">
     <path d="M 76.307711 312.242469 
L 165.660524 312.242469 
Q 169.860524 312.242469 169.860524 308.042469 
L 169.860524 278.816156 
Q 169.860524 274.616156 165.660524 274.616156 
L 76.307711 274.616156 
Q 72.107711 274.616156 72.107711 278.816156 
L 72.107711 308.042469 
Q 72.107711 312.242469 76.307711 312.242469 
z
" style="fill:#f5deb3;opacity:0.5;stroke:#ffffff;stroke-linejoin:miter;"/>
    </g>
    <!-- lss pwr: 0.99 -->
    <g style="fill:#262626;" transform="translate(76.307711 289.453969)scale(0.14 -0.14)">
     <use xlink:href="#DejaVuSans-108"/>
     <use x="27.783203" xlink:href="#DejaVuSans-115"/>
     <use x="79.882812" xlink:href="#DejaVuSans-115"/>
     <use x="131.982422" xlink:href="#DejaVuSans-32"/>
     <use x="163.769531" xlink:href="#DejaVuSans-112"/>
     <use x="227.246094" xlink:href="#DejaVuSans-119"/>
     <use x="309.033203" xlink:href="#DejaVuSans-114"/>
     <use x="350.130859" xlink:href="#DejaVuSans-58"/>
     <use x="383.822266" xlink:href="#DejaVuSans-32"/>
     <use x="415.609375" xlink:href="#DejaVuSans-48"/>
     <use x="479.232422" xlink:href="#DejaVuSans-46"/>
     <use x="511.019531" xlink:href="#DejaVuSans-57"/>
     <use x="574.642578" xlink:href="#DejaVuSans-57"/>
    </g>
    <!-- lsa pwr: 1.0 -->
    <g style="fill:#262626;" transform="translate(76.307711 305.130906)scale(0.14 -0.14)">
     <use xlink:href="#DejaVuSans-108"/>
     <use x="27.783203" xlink:href="#DejaVuSans-115"/>
     <use x="79.882812" xlink:href="#DejaVuSans-97"/>
     <use x="141.162109" xlink:href="#DejaVuSans-32"/>
     <use x="172.949219" xlink:href="#DejaVuSans-112"/>
     <use x="236.425781" xlink:href="#DejaVuSans-119"/>
     <use x="318.212891" xlink:href="#DejaVuSans-114"/>
     <use x="359.310547" xlink:href="#DejaVuSans-58"/>
     <use x="393.001953" xlink:href="#DejaVuSans-32"/>
     <use x="424.789062" xlink:href="#DejaVuSans-49"/>
     <use x="488.412109" xlink:href="#DejaVuSans-46"/>
     <use x="520.199219" xlink:href="#DejaVuSans-48"/>
    </g>
   </g>
   <g id="text_17">
    <g id="patch_140">
     <path d="M 76.307711 312.242469 
L 165.660524 312.242469 
Q 169.860524 312.242469 169.860524 308.042469 
L 169.860524 278.816156 
Q 169.860524 274.616156 165.660524 274.616156 
L 76.307711 274.616156 
Q 72.107711 274.616156 72.107711 278.816156 
L 72.107711 308.042469 
Q 72.107711 312.242469 76.307711 312.242469 
z
" style="fill:#f5deb3;opacity:0.5;stroke:#ffffff;stroke-linejoin:miter;"/>
    </g>
    <!-- lss pwr: 0.99 -->
    <g style="fill:#262626;" transform="translate(76.307711 289.453969)scale(0.14 -0.14)">
     <use xlink:href="#DejaVuSans-108"/>
     <use x="27.783203" xlink:href="#DejaVuSans-115"/>
     <use x="79.882812" xlink:href="#DejaVuSans-115"/>
     <use x="131.982422" xlink:href="#DejaVuSans-32"/>
     <use x="163.769531" xlink:href="#DejaVuSans-112"/>
     <use x="227.246094" xlink:href="#DejaVuSans-119"/>
     <use x="309.033203" xlink:href="#DejaVuSans-114"/>
     <use x="350.130859" xlink:href="#DejaVuSans-58"/>
     <use x="383.822266" xlink:href="#DejaVuSans-32"/>
     <use x="415.609375" xlink:href="#DejaVuSans-48"/>
     <use x="479.232422" xlink:href="#DejaVuSans-46"/>
     <use x="511.019531" xlink:href="#DejaVuSans-57"/>
     <use x="574.642578" xlink:href="#DejaVuSans-57"/>
    </g>
    <!-- lsa pwr: 1.0 -->
    <g style="fill:#262626;" transform="translate(76.307711 305.130906)scale(0.14 -0.14)">
     <use xlink:href="#DejaVuSans-108"/>
     <use x="27.783203" xlink:href="#DejaVuSans-115"/>
     <use x="79.882812" xlink:href="#DejaVuSans-97"/>
     <use x="141.162109" xlink:href="#DejaVuSans-32"/>
     <use x="172.949219" xlink:href="#DejaVuSans-112"/>
     <use x="236.425781" xlink:href="#DejaVuSans-119"/>
     <use x="318.212891" xlink:href="#DejaVuSans-114"/>
     <use x="359.310547" xlink:href="#DejaVuSans-58"/>
     <use x="393.001953" xlink:href="#DejaVuSans-32"/>
     <use x="424.789062" xlink:href="#DejaVuSans-49"/>
     <use x="488.412109" xlink:href="#DejaVuSans-46"/>
     <use x="520.199219" xlink:href="#DejaVuSans-48"/>
    </g>
   </g>
  </g>
  <g id="axes_4">
   <g id="patch_141">
    <path d="M 225.383595 362.857563 
L 385.68744 362.857563 
L 385.68744 208.572563 
L 225.383595 208.572563 
z
" style="fill:#eaeaf2;"/>
   </g>
   <g id="matplotlib.axis_7">
    <g id="xtick_10">
     <g id="text_18">
      <!-- 0.0 -->
      <g style="fill:#262626;" transform="translate(237.876658 383.223328)scale(0.143 -0.143)">
       <use xlink:href="#DejaVuSans-48"/>
       <use x="63.623047" xlink:href="#DejaVuSans-46"/>
       <use x="95.410156" xlink:href="#DejaVuSans-48"/>
      </g>
     </g>
    </g>
    <g id="xtick_11">
     <g id="text_19">
      <!-- 0.5 -->
      <g style="fill:#262626;" transform="translate(294.167816 383.223328)scale(0.143 -0.143)">
       <use xlink:href="#DejaVuSans-48"/>
       <use x="63.623047" xlink:href="#DejaVuSans-46"/>
       <use x="95.410156" xlink:href="#DejaVuSans-53"/>
      </g>
     </g>
    </g>
    <g id="xtick_12">
     <g id="text_20">
      <!-- 1.0 -->
      <g style="fill:#262626;" transform="translate(350.458973 383.223328)scale(0.143 -0.143)">
       <use xlink:href="#DejaVuSans-49"/>
       <use x="63.623047" xlink:href="#DejaVuSans-46"/>
       <use x="95.410156" xlink:href="#DejaVuSans-48"/>
      </g>
     </g>
    </g>
    <g id="text_21">
     <!-- p value -->
     <g style="fill:#262626;" transform="translate(276.798611 402.050844)scale(0.156 -0.156)">
      <use xlink:href="#DejaVuSans-112"/>
      <use x="63.476562" xlink:href="#DejaVuSans-32"/>
      <use x="95.263672" xlink:href="#DejaVuSans-118"/>
      <use x="154.443359" xlink:href="#DejaVuSans-97"/>
      <use x="215.722656" xlink:href="#DejaVuSans-108"/>
      <use x="243.505859" xlink:href="#DejaVuSans-117"/>
      <use x="306.884766" xlink:href="#DejaVuSans-101"/>
     </g>
    </g>
   </g>
   <g id="matplotlib.axis_8">
    <g id="ytick_15"/>
    <g id="ytick_16"/>
    <g id="ytick_17"/>
    <g id="ytick_18"/>
    <g id="ytick_19"/>
   </g>
   <g id="patch_142">
    <path clip-path="url(#p29c6e29d22)" d="M 249.247392 362.857563 
L 249.547407 362.857563 
L 249.547407 308.910775 
L 249.247392 308.910775 
z
" style="fill:#4c72b0;opacity:0.4;stroke:#ffffff;stroke-linejoin:miter;"/>
   </g>
   <g id="patch_143">
    <path clip-path="url(#p29c6e29d22)" d="M 249.547407 362.857563 
L 249.847421 362.857563 
L 249.847421 362.496678 
L 249.547407 362.496678 
z
" style="fill:#4c72b0;opacity:0.4;stroke:#ffffff;stroke-linejoin:miter;"/>
   </g>
   <g id="patch_144">
    <path clip-path="url(#p29c6e29d22)" d="M 249.847421 362.857563 
L 250.147436 362.857563 
L 250.147436 362.682588 
L 249.847421 362.682588 
z
" style="fill:#4c72b0;opacity:0.4;stroke:#ffffff;stroke-linejoin:miter;"/>
   </g>
   <g id="patch_145">
    <path clip-path="url(#p29c6e29d22)" d="M 250.147436 362.857563 
L 250.44745 362.857563 
L 250.44745 362.797415 
L 250.147436 362.797415 
z
" style="fill:#4c72b0;opacity:0.4;stroke:#ffffff;stroke-linejoin:miter;"/>
   </g>
   <g id="patch_146">
    <path clip-path="url(#p29c6e29d22)" d="M 250.44745 362.857563 
L 250.747465 362.857563 
L 250.747465 362.830223 
L 250.44745 362.830223 
z
" style="fill:#4c72b0;opacity:0.4;stroke:#ffffff;stroke-linejoin:miter;"/>
   </g>
   <g id="patch_147">
    <path clip-path="url(#p29c6e29d22)" d="M 250.747465 362.857563 
L 251.047479 362.857563 
L 251.047479 362.813819 
L 250.747465 362.813819 
z
" style="fill:#4c72b0;opacity:0.4;stroke:#ffffff;stroke-linejoin:miter;"/>
   </g>
   <g id="patch_148">
    <path clip-path="url(#p29c6e29d22)" d="M 251.047479 362.857563 
L 251.347493 362.857563 
L 251.347493 362.824755 
L 251.047479 362.824755 
z
" style="fill:#4c72b0;opacity:0.4;stroke:#ffffff;stroke-linejoin:miter;"/>
   </g>
   <g id="patch_149">
    <path clip-path="url(#p29c6e29d22)" d="M 251.347493 362.857563 
L 251.647508 362.857563 
L 251.647508 362.830223 
L 251.347493 362.830223 
z
" style="fill:#4c72b0;opacity:0.4;stroke:#ffffff;stroke-linejoin:miter;"/>
   </g>
   <g id="patch_150">
    <path clip-path="url(#p29c6e29d22)" d="M 251.647508 362.857563 
L 251.947522 362.857563 
L 251.947522 362.852095 
L 251.647508 362.852095 
z
" style="fill:#4c72b0;opacity:0.4;stroke:#ffffff;stroke-linejoin:miter;"/>
   </g>
   <g id="patch_151">
    <path clip-path="url(#p29c6e29d22)" d="M 251.947522 362.857563 
L 252.247537 362.857563 
L 252.247537 362.852095 
L 251.947522 362.852095 
z
" style="fill:#4c72b0;opacity:0.4;stroke:#ffffff;stroke-linejoin:miter;"/>
   </g>
   <g id="patch_152">
    <path clip-path="url(#p29c6e29d22)" d="M 252.247537 362.857563 
L 252.547551 362.857563 
L 252.547551 362.835691 
L 252.247537 362.835691 
z
" style="fill:#4c72b0;opacity:0.4;stroke:#ffffff;stroke-linejoin:miter;"/>
   </g>
   <g id="patch_153">
    <path clip-path="url(#p29c6e29d22)" d="M 252.547551 362.857563 
L 252.847566 362.857563 
L 252.847566 362.857563 
L 252.547551 362.857563 
z
" style="fill:#4c72b0;opacity:0.4;stroke:#ffffff;stroke-linejoin:miter;"/>
   </g>
   <g id="patch_154">
    <path clip-path="url(#p29c6e29d22)" d="M 252.847566 362.857563 
L 253.14758 362.857563 
L 253.14758 362.857563 
L 252.847566 362.857563 
z
" style="fill:#4c72b0;opacity:0.4;stroke:#ffffff;stroke-linejoin:miter;"/>
   </g>
   <g id="patch_155">
    <path clip-path="url(#p29c6e29d22)" d="M 253.14758 362.857563 
L 253.447595 362.857563 
L 253.447595 362.852095 
L 253.14758 362.852095 
z
" style="fill:#4c72b0;opacity:0.4;stroke:#ffffff;stroke-linejoin:miter;"/>
   </g>
   <g id="patch_156">
    <path clip-path="url(#p29c6e29d22)" d="M 253.447595 362.857563 
L 253.747609 362.857563 
L 253.747609 362.852095 
L 253.447595 362.852095 
z
" style="fill:#4c72b0;opacity:0.4;stroke:#ffffff;stroke-linejoin:miter;"/>
   </g>
   <g id="patch_157">
    <path clip-path="url(#p29c6e29d22)" d="M 253.747609 362.857563 
L 254.047623 362.857563 
L 254.047623 362.857563 
L 253.747609 362.857563 
z
" style="fill:#4c72b0;opacity:0.4;stroke:#ffffff;stroke-linejoin:miter;"/>
   </g>
   <g id="patch_158">
    <path clip-path="url(#p29c6e29d22)" d="M 254.047623 362.857563 
L 254.347638 362.857563 
L 254.347638 362.857563 
L 254.047623 362.857563 
z
" style="fill:#4c72b0;opacity:0.4;stroke:#ffffff;stroke-linejoin:miter;"/>
   </g>
   <g id="patch_159">
    <path clip-path="url(#p29c6e29d22)" d="M 254.347638 362.857563 
L 254.647652 362.857563 
L 254.647652 362.857563 
L 254.347638 362.857563 
z
" style="fill:#4c72b0;opacity:0.4;stroke:#ffffff;stroke-linejoin:miter;"/>
   </g>
   <g id="patch_160">
    <path clip-path="url(#p29c6e29d22)" d="M 254.647652 362.857563 
L 254.947667 362.857563 
L 254.947667 362.857563 
L 254.647652 362.857563 
z
" style="fill:#4c72b0;opacity:0.4;stroke:#ffffff;stroke-linejoin:miter;"/>
   </g>
   <g id="patch_161">
    <path clip-path="url(#p29c6e29d22)" d="M 254.947667 362.857563 
L 255.247681 362.857563 
L 255.247681 362.852095 
L 254.947667 362.852095 
z
" style="fill:#4c72b0;opacity:0.4;stroke:#ffffff;stroke-linejoin:miter;"/>
   </g>
   <g id="patch_162">
    <path clip-path="url(#p29c6e29d22)" d="M 249.247392 362.857563 
L 249.358757 362.857563 
L 249.358757 215.919467 
L 249.247392 215.919467 
z
" style="fill:#dd8452;opacity:0.4;stroke:#ffffff;stroke-linejoin:miter;"/>
   </g>
   <g id="patch_163">
    <path clip-path="url(#p29c6e29d22)" d="M 249.358757 362.857563 
L 249.470121 362.857563 
L 249.470121 362.607142 
L 249.358757 362.607142 
z
" style="fill:#dd8452;opacity:0.4;stroke:#ffffff;stroke-linejoin:miter;"/>
   </g>
   <g id="patch_164">
    <path clip-path="url(#p29c6e29d22)" d="M 249.470121 362.857563 
L 249.581485 362.857563 
L 249.581485 362.754448 
L 249.470121 362.754448 
z
" style="fill:#dd8452;opacity:0.4;stroke:#ffffff;stroke-linejoin:miter;"/>
   </g>
   <g id="patch_165">
    <path clip-path="url(#p29c6e29d22)" d="M 249.581485 362.857563 
L 249.692849 362.857563 
L 249.692849 362.79864 
L 249.581485 362.79864 
z
" style="fill:#dd8452;opacity:0.4;stroke:#ffffff;stroke-linejoin:miter;"/>
   </g>
   <g id="patch_166">
    <path clip-path="url(#p29c6e29d22)" d="M 249.692849 362.857563 
L 249.804213 362.857563 
L 249.804213 362.842832 
L 249.692849 362.842832 
z
" style="fill:#dd8452;opacity:0.4;stroke:#ffffff;stroke-linejoin:miter;"/>
   </g>
   <g id="patch_167">
    <path clip-path="url(#p29c6e29d22)" d="M 249.804213 362.857563 
L 249.915577 362.857563 
L 249.915577 362.857563 
L 249.804213 362.857563 
z
" style="fill:#dd8452;opacity:0.4;stroke:#ffffff;stroke-linejoin:miter;"/>
   </g>
   <g id="patch_168">
    <path clip-path="url(#p29c6e29d22)" d="M 249.915577 362.857563 
L 250.026941 362.857563 
L 250.026941 362.828101 
L 249.915577 362.828101 
z
" style="fill:#dd8452;opacity:0.4;stroke:#ffffff;stroke-linejoin:miter;"/>
   </g>
   <g id="patch_169">
    <path clip-path="url(#p29c6e29d22)" d="M 250.026941 362.857563 
L 250.138305 362.857563 
L 250.138305 362.857563 
L 250.026941 362.857563 
z
" style="fill:#dd8452;opacity:0.4;stroke:#ffffff;stroke-linejoin:miter;"/>
   </g>
   <g id="patch_170">
    <path clip-path="url(#p29c6e29d22)" d="M 250.138305 362.857563 
L 250.249669 362.857563 
L 250.249669 362.857563 
L 250.138305 362.857563 
z
" style="fill:#dd8452;opacity:0.4;stroke:#ffffff;stroke-linejoin:miter;"/>
   </g>
   <g id="patch_171">
    <path clip-path="url(#p29c6e29d22)" d="M 250.249669 362.857563 
L 250.361033 362.857563 
L 250.361033 362.857563 
L 250.249669 362.857563 
z
" style="fill:#dd8452;opacity:0.4;stroke:#ffffff;stroke-linejoin:miter;"/>
   </g>
   <g id="patch_172">
    <path clip-path="url(#p29c6e29d22)" d="M 250.361033 362.857563 
L 250.472397 362.857563 
L 250.472397 362.842832 
L 250.361033 362.842832 
z
" style="fill:#dd8452;opacity:0.4;stroke:#ffffff;stroke-linejoin:miter;"/>
   </g>
   <g id="patch_173">
    <path clip-path="url(#p29c6e29d22)" d="M 250.472397 362.857563 
L 250.583761 362.857563 
L 250.583761 362.857563 
L 250.472397 362.857563 
z
" style="fill:#dd8452;opacity:0.4;stroke:#ffffff;stroke-linejoin:miter;"/>
   </g>
   <g id="patch_174">
    <path clip-path="url(#p29c6e29d22)" d="M 250.583761 362.857563 
L 250.695125 362.857563 
L 250.695125 362.857563 
L 250.583761 362.857563 
z
" style="fill:#dd8452;opacity:0.4;stroke:#ffffff;stroke-linejoin:miter;"/>
   </g>
   <g id="patch_175">
    <path clip-path="url(#p29c6e29d22)" d="M 250.695125 362.857563 
L 250.80649 362.857563 
L 250.80649 362.857563 
L 250.695125 362.857563 
z
" style="fill:#dd8452;opacity:0.4;stroke:#ffffff;stroke-linejoin:miter;"/>
   </g>
   <g id="patch_176">
    <path clip-path="url(#p29c6e29d22)" d="M 250.80649 362.857563 
L 250.917854 362.857563 
L 250.917854 362.857563 
L 250.80649 362.857563 
z
" style="fill:#dd8452;opacity:0.4;stroke:#ffffff;stroke-linejoin:miter;"/>
   </g>
   <g id="patch_177">
    <path clip-path="url(#p29c6e29d22)" d="M 250.917854 362.857563 
L 251.029218 362.857563 
L 251.029218 362.857563 
L 250.917854 362.857563 
z
" style="fill:#dd8452;opacity:0.4;stroke:#ffffff;stroke-linejoin:miter;"/>
   </g>
   <g id="patch_178">
    <path clip-path="url(#p29c6e29d22)" d="M 251.029218 362.857563 
L 251.140582 362.857563 
L 251.140582 362.857563 
L 251.029218 362.857563 
z
" style="fill:#dd8452;opacity:0.4;stroke:#ffffff;stroke-linejoin:miter;"/>
   </g>
   <g id="patch_179">
    <path clip-path="url(#p29c6e29d22)" d="M 251.140582 362.857563 
L 251.251946 362.857563 
L 251.251946 362.857563 
L 251.140582 362.857563 
z
" style="fill:#dd8452;opacity:0.4;stroke:#ffffff;stroke-linejoin:miter;"/>
   </g>
   <g id="patch_180">
    <path clip-path="url(#p29c6e29d22)" d="M 251.251946 362.857563 
L 251.36331 362.857563 
L 251.36331 362.857563 
L 251.251946 362.857563 
z
" style="fill:#dd8452;opacity:0.4;stroke:#ffffff;stroke-linejoin:miter;"/>
   </g>
   <g id="patch_181">
    <path clip-path="url(#p29c6e29d22)" d="M 251.36331 362.857563 
L 251.474674 362.857563 
L 251.474674 362.842832 
L 251.36331 362.842832 
z
" style="fill:#dd8452;opacity:0.4;stroke:#ffffff;stroke-linejoin:miter;"/>
   </g>
   <g id="line2d_7">
    <path clip-path="url(#p29c6e29d22)" d="M 249.247042 362.719008 
L 249.294294 362.857563 
L 249.388798 360.505508 
L 249.43605 361.500082 
L 249.861317 362.741716 
L 250.050324 362.632704 
L 250.097576 362.620386 
L 250.19208 362.795461 
L 250.239332 362.760718 
L 250.522843 362.857563 
L 250.570095 362.751757 
L 250.617347 362.836249 
L 250.94811 362.808771 
L 251.184369 362.857563 
L 251.373377 362.764029 
L 251.515133 362.830734 
L 251.845896 362.844432 
L 252.271163 362.857563 
L 252.412918 362.811807 
L 252.601926 362.850022 
L 253.121697 362.857563 
L 253.263452 362.851388 
L 254.113986 362.857563 
L 255.248031 362.857563 
L 255.248031 362.857563 
" style="fill:none;stroke:#4c72b0;stroke-linecap:round;stroke-width:1.5;"/>
   </g>
   <g id="line2d_8">
    <path clip-path="url(#p29c6e29d22)" d="M 249.247386 362.737055 
L 249.264924 362.857563 
L 249.282461 361.461398 
L 249.37015 362.845911 
L 249.387688 362.270492 
L 249.475377 362.82538 
L 249.510452 362.559899 
L 249.598141 362.780224 
L 249.703368 362.857563 
L 249.633217 362.57484 
L 249.720905 362.839546 
L 249.738443 362.857563 
L 249.755981 362.709964 
L 249.84367 362.857563 
L 250.001509 362.659807 
L 250.089198 362.857563 
L 250.510104 362.857123 
L 251.47468 362.80863 
L 251.47468 362.80863 
" style="fill:none;stroke:#dd8452;stroke-linecap:round;stroke-width:1.5;"/>
   </g>
   <g id="patch_182">
    <path d="M 225.383595 362.857563 
L 225.383595 208.572563 
" style="fill:none;stroke:#ffffff;stroke-linecap:square;stroke-linejoin:miter;stroke-width:1.25;"/>
   </g>
   <g id="patch_183">
    <path d="M 225.383595 362.857563 
L 385.68744 362.857563 
" style="fill:none;stroke:#ffffff;stroke-linecap:square;stroke-linejoin:miter;stroke-width:1.25;"/>
   </g>
   <g id="text_22">
    <g id="patch_184">
     <path d="M 265.459556 312.242469 
L 347.191119 312.242469 
Q 351.391119 312.242469 351.391119 308.042469 
L 351.391119 278.816156 
Q 351.391119 274.616156 347.191119 274.616156 
L 265.459556 274.616156 
Q 261.259556 274.616156 261.259556 278.816156 
L 261.259556 308.042469 
Q 261.259556 312.242469 265.459556 312.242469 
z
" style="fill:#f5deb3;opacity:0.5;stroke:#ffffff;stroke-linejoin:miter;"/>
    </g>
    <!-- lss pwr: 1.0 -->
    <g style="fill:#262626;" transform="translate(265.459556 289.453969)scale(0.14 -0.14)">
     <use xlink:href="#DejaVuSans-108"/>
     <use x="27.783203" xlink:href="#DejaVuSans-115"/>
     <use x="79.882812" xlink:href="#DejaVuSans-115"/>
     <use x="131.982422" xlink:href="#DejaVuSans-32"/>
     <use x="163.769531" xlink:href="#DejaVuSans-112"/>
     <use x="227.246094" xlink:href="#DejaVuSans-119"/>
     <use x="309.033203" xlink:href="#DejaVuSans-114"/>
     <use x="350.130859" xlink:href="#DejaVuSans-58"/>
     <use x="383.822266" xlink:href="#DejaVuSans-32"/>
     <use x="415.609375" xlink:href="#DejaVuSans-49"/>
     <use x="479.232422" xlink:href="#DejaVuSans-46"/>
     <use x="511.019531" xlink:href="#DejaVuSans-48"/>
    </g>
    <!-- lsa pwr: 1.0 -->
    <g style="fill:#262626;" transform="translate(265.459556 305.130906)scale(0.14 -0.14)">
     <use xlink:href="#DejaVuSans-108"/>
     <use x="27.783203" xlink:href="#DejaVuSans-115"/>
     <use x="79.882812" xlink:href="#DejaVuSans-97"/>
     <use x="141.162109" xlink:href="#DejaVuSans-32"/>
     <use x="172.949219" xlink:href="#DejaVuSans-112"/>
     <use x="236.425781" xlink:href="#DejaVuSans-119"/>
     <use x="318.212891" xlink:href="#DejaVuSans-114"/>
     <use x="359.310547" xlink:href="#DejaVuSans-58"/>
     <use x="393.001953" xlink:href="#DejaVuSans-32"/>
     <use x="424.789062" xlink:href="#DejaVuSans-49"/>
     <use x="488.412109" xlink:href="#DejaVuSans-46"/>
     <use x="520.199219" xlink:href="#DejaVuSans-48"/>
    </g>
   </g>
   <g id="text_23">
    <g id="patch_185">
     <path d="M 265.459556 312.242469 
L 347.191119 312.242469 
Q 351.391119 312.242469 351.391119 308.042469 
L 351.391119 278.816156 
Q 351.391119 274.616156 347.191119 274.616156 
L 265.459556 274.616156 
Q 261.259556 274.616156 261.259556 278.816156 
L 261.259556 308.042469 
Q 261.259556 312.242469 265.459556 312.242469 
z
" style="fill:#f5deb3;opacity:0.5;stroke:#ffffff;stroke-linejoin:miter;"/>
    </g>
    <!-- lss pwr: 1.0 -->
    <g style="fill:#262626;" transform="translate(265.459556 289.453969)scale(0.14 -0.14)">
     <use xlink:href="#DejaVuSans-108"/>
     <use x="27.783203" xlink:href="#DejaVuSans-115"/>
     <use x="79.882812" xlink:href="#DejaVuSans-115"/>
     <use x="131.982422" xlink:href="#DejaVuSans-32"/>
     <use x="163.769531" xlink:href="#DejaVuSans-112"/>
     <use x="227.246094" xlink:href="#DejaVuSans-119"/>
     <use x="309.033203" xlink:href="#DejaVuSans-114"/>
     <use x="350.130859" xlink:href="#DejaVuSans-58"/>
     <use x="383.822266" xlink:href="#DejaVuSans-32"/>
     <use x="415.609375" xlink:href="#DejaVuSans-49"/>
     <use x="479.232422" xlink:href="#DejaVuSans-46"/>
     <use x="511.019531" xlink:href="#DejaVuSans-48"/>
    </g>
    <!-- lsa pwr: 1.0 -->
    <g style="fill:#262626;" transform="translate(265.459556 305.130906)scale(0.14 -0.14)">
     <use xlink:href="#DejaVuSans-108"/>
     <use x="27.783203" xlink:href="#DejaVuSans-115"/>
     <use x="79.882812" xlink:href="#DejaVuSans-97"/>
     <use x="141.162109" xlink:href="#DejaVuSans-32"/>
     <use x="172.949219" xlink:href="#DejaVuSans-112"/>
     <use x="236.425781" xlink:href="#DejaVuSans-119"/>
     <use x="318.212891" xlink:href="#DejaVuSans-114"/>
     <use x="359.310547" xlink:href="#DejaVuSans-58"/>
     <use x="393.001953" xlink:href="#DejaVuSans-32"/>
     <use x="424.789062" xlink:href="#DejaVuSans-49"/>
     <use x="488.412109" xlink:href="#DejaVuSans-46"/>
     <use x="520.199219" xlink:href="#DejaVuSans-48"/>
    </g>
   </g>
   <g id="text_24">
    <g id="patch_186">
     <path d="M 384.837517 191.075469 
L 384.837517 380.354656 
L 408.481267 380.354656 
L 408.481267 191.075469 
z
" style="fill:#ffffff;stroke:#ffffff;stroke-linejoin:miter;"/>
    </g>
    <!-- signal_magnitude = 10 -->
    <g style="fill:#262626;" transform="translate(392.571704 195.131469)rotate(-270)scale(0.156 -0.156)">
     <use xlink:href="#DejaVuSans-115"/>
     <use x="52.099609" xlink:href="#DejaVuSans-105"/>
     <use x="79.882812" xlink:href="#DejaVuSans-103"/>
     <use x="143.359375" xlink:href="#DejaVuSans-110"/>
     <use x="206.738281" xlink:href="#DejaVuSans-97"/>
     <use x="268.017578" xlink:href="#DejaVuSans-108"/>
     <use x="295.800781" xlink:href="#DejaVuSans-95"/>
     <use x="345.800781" xlink:href="#DejaVuSans-109"/>
     <use x="443.212891" xlink:href="#DejaVuSans-97"/>
     <use x="504.492188" xlink:href="#DejaVuSans-103"/>
     <use x="567.96875" xlink:href="#DejaVuSans-110"/>
     <use x="631.347656" xlink:href="#DejaVuSans-105"/>
     <use x="659.130859" xlink:href="#DejaVuSans-116"/>
     <use x="698.339844" xlink:href="#DejaVuSans-117"/>
     <use x="761.71875" xlink:href="#DejaVuSans-100"/>
     <use x="825.195312" xlink:href="#DejaVuSans-101"/>
     <use x="886.71875" xlink:href="#DejaVuSans-32"/>
     <use x="918.505859" xlink:href="#DejaVuSans-61"/>
     <use x="1002.294922" xlink:href="#DejaVuSans-32"/>
     <use x="1034.082031" xlink:href="#DejaVuSans-49"/>
     <use x="1097.705078" xlink:href="#DejaVuSans-48"/>
    </g>
   </g>
  </g>
 </g>
 <defs>
  <clipPath id="p2383c89810">
   <rect height="154.285" width="160.303845" x="36.23175" y="25.053562"/>
  </clipPath>
  <clipPath id="pd8eedf03ba">
   <rect height="154.285" width="160.303845" x="225.383595" y="25.053562"/>
  </clipPath>
  <clipPath id="pafd8ad67be">
   <rect height="154.285" width="160.303845" x="36.23175" y="208.572563"/>
  </clipPath>
  <clipPath id="p29c6e29d22">
   <rect height="154.285" width="160.303845" x="225.383595" y="208.572563"/>
  </clipPath>
 </defs>
</svg>
