<?xml version="1.0" encoding="utf-8" standalone="no"?>
<!DOCTYPE svg PUBLIC "-//W3C//DTD SVG 1.1//EN"
  "http://www.w3.org/Graphics/SVG/1.1/DTD/svg11.dtd">
<!-- Created with matplotlib (https://matplotlib.org/) -->
<svg height="412.495156pt" version="1.1" viewBox="0 0 411.625267 412.495156" width="411.625267pt" xmlns="http://www.w3.org/2000/svg" xmlns:xlink="http://www.w3.org/1999/xlink">
 <defs>
  <style type="text/css">
*{stroke-linecap:butt;stroke-linejoin:round;}
  </style>
 </defs>
 <g id="figure_1">
  <g id="patch_1">
   <path d="M 0 412.495156 
L 411.625267 412.495156 
L 411.625267 0 
L 0 0 
z
" style="fill:#ffffff;"/>
  </g>
  <g id="axes_1">
   <g id="patch_2">
    <path d="M 36.23175 179.338562 
L 196.535595 179.338562 
L 196.535595 25.053562 
L 36.23175 25.053562 
z
" style="fill:#eaeaf2;"/>
   </g>
   <g id="matplotlib.axis_1">
    <g id="xtick_1"/>
    <g id="xtick_2"/>
    <g id="xtick_3"/>
   </g>
   <g id="matplotlib.axis_2">
    <g id="ytick_1"/>
    <g id="ytick_2"/>
    <g id="ytick_3"/>
    <g id="ytick_4"/>
    <g id="ytick_5"/>
    <g id="text_1">
     <!-- signal_magnitude -->
     <defs>
      <path d="M 44.28125 53.078125 
L 44.28125 44.578125 
Q 40.484375 46.53125 36.375 47.5 
Q 32.28125 48.484375 27.875 48.484375 
Q 21.1875 48.484375 17.84375 46.4375 
Q 14.5 44.390625 14.5 40.28125 
Q 14.5 37.15625 16.890625 35.375 
Q 19.28125 33.59375 26.515625 31.984375 
L 29.59375 31.296875 
Q 39.15625 29.25 43.1875 25.515625 
Q 47.21875 21.78125 47.21875 15.09375 
Q 47.21875 7.46875 41.1875 3.015625 
Q 35.15625 -1.421875 24.609375 -1.421875 
Q 20.21875 -1.421875 15.453125 -0.5625 
Q 10.6875 0.296875 5.421875 2 
L 5.421875 11.28125 
Q 10.40625 8.6875 15.234375 7.390625 
Q 20.0625 6.109375 24.8125 6.109375 
Q 31.15625 6.109375 34.5625 8.28125 
Q 37.984375 10.453125 37.984375 14.40625 
Q 37.984375 18.0625 35.515625 20.015625 
Q 33.0625 21.96875 24.703125 23.78125 
L 21.578125 24.515625 
Q 13.234375 26.265625 9.515625 29.90625 
Q 5.8125 33.546875 5.8125 39.890625 
Q 5.8125 47.609375 11.28125 51.796875 
Q 16.75 56 26.8125 56 
Q 31.78125 56 36.171875 55.265625 
Q 40.578125 54.546875 44.28125 53.078125 
z
" id="DejaVuSans-115"/>
      <path d="M 9.421875 54.6875 
L 18.40625 54.6875 
L 18.40625 0 
L 9.421875 0 
z
M 9.421875 75.984375 
L 18.40625 75.984375 
L 18.40625 64.59375 
L 9.421875 64.59375 
z
" id="DejaVuSans-105"/>
      <path d="M 45.40625 27.984375 
Q 45.40625 37.75 41.375 43.109375 
Q 37.359375 48.484375 30.078125 48.484375 
Q 22.859375 48.484375 18.828125 43.109375 
Q 14.796875 37.75 14.796875 27.984375 
Q 14.796875 18.265625 18.828125 12.890625 
Q 22.859375 7.515625 30.078125 7.515625 
Q 37.359375 7.515625 41.375 12.890625 
Q 45.40625 18.265625 45.40625 27.984375 
z
M 54.390625 6.78125 
Q 54.390625 -7.171875 48.1875 -13.984375 
Q 42 -20.796875 29.203125 -20.796875 
Q 24.46875 -20.796875 20.265625 -20.09375 
Q 16.0625 -19.390625 12.109375 -17.921875 
L 12.109375 -9.1875 
Q 16.0625 -11.328125 19.921875 -12.34375 
Q 23.78125 -13.375 27.78125 -13.375 
Q 36.625 -13.375 41.015625 -8.765625 
Q 45.40625 -4.15625 45.40625 5.171875 
L 45.40625 9.625 
Q 42.625 4.78125 38.28125 2.390625 
Q 33.9375 0 27.875 0 
Q 17.828125 0 11.671875 7.65625 
Q 5.515625 15.328125 5.515625 27.984375 
Q 5.515625 40.671875 11.671875 48.328125 
Q 17.828125 56 27.875 56 
Q 33.9375 56 38.28125 53.609375 
Q 42.625 51.21875 45.40625 46.390625 
L 45.40625 54.6875 
L 54.390625 54.6875 
z
" id="DejaVuSans-103"/>
      <path d="M 54.890625 33.015625 
L 54.890625 0 
L 45.90625 0 
L 45.90625 32.71875 
Q 45.90625 40.484375 42.875 44.328125 
Q 39.84375 48.1875 33.796875 48.1875 
Q 26.515625 48.1875 22.3125 43.546875 
Q 18.109375 38.921875 18.109375 30.90625 
L 18.109375 0 
L 9.078125 0 
L 9.078125 54.6875 
L 18.109375 54.6875 
L 18.109375 46.1875 
Q 21.34375 51.125 25.703125 53.5625 
Q 30.078125 56 35.796875 56 
Q 45.21875 56 50.046875 50.171875 
Q 54.890625 44.34375 54.890625 33.015625 
z
" id="DejaVuSans-110"/>
      <path d="M 34.28125 27.484375 
Q 23.390625 27.484375 19.1875 25 
Q 14.984375 22.515625 14.984375 16.5 
Q 14.984375 11.71875 18.140625 8.90625 
Q 21.296875 6.109375 26.703125 6.109375 
Q 34.1875 6.109375 38.703125 11.40625 
Q 43.21875 16.703125 43.21875 25.484375 
L 43.21875 27.484375 
z
M 52.203125 31.203125 
L 52.203125 0 
L 43.21875 0 
L 43.21875 8.296875 
Q 40.140625 3.328125 35.546875 0.953125 
Q 30.953125 -1.421875 24.3125 -1.421875 
Q 15.921875 -1.421875 10.953125 3.296875 
Q 6 8.015625 6 15.921875 
Q 6 25.140625 12.171875 29.828125 
Q 18.359375 34.515625 30.609375 34.515625 
L 43.21875 34.515625 
L 43.21875 35.40625 
Q 43.21875 41.609375 39.140625 45 
Q 35.0625 48.390625 27.6875 48.390625 
Q 23 48.390625 18.546875 47.265625 
Q 14.109375 46.140625 10.015625 43.890625 
L 10.015625 52.203125 
Q 14.9375 54.109375 19.578125 55.046875 
Q 24.21875 56 28.609375 56 
Q 40.484375 56 46.34375 49.84375 
Q 52.203125 43.703125 52.203125 31.203125 
z
" id="DejaVuSans-97"/>
      <path d="M 9.421875 75.984375 
L 18.40625 75.984375 
L 18.40625 0 
L 9.421875 0 
z
" id="DejaVuSans-108"/>
      <path d="M 50.984375 -16.609375 
L 50.984375 -23.578125 
L -0.984375 -23.578125 
L -0.984375 -16.609375 
z
" id="DejaVuSans-95"/>
      <path d="M 52 44.1875 
Q 55.375 50.25 60.0625 53.125 
Q 64.75 56 71.09375 56 
Q 79.640625 56 84.28125 50.015625 
Q 88.921875 44.046875 88.921875 33.015625 
L 88.921875 0 
L 79.890625 0 
L 79.890625 32.71875 
Q 79.890625 40.578125 77.09375 44.375 
Q 74.3125 48.1875 68.609375 48.1875 
Q 61.625 48.1875 57.5625 43.546875 
Q 53.515625 38.921875 53.515625 30.90625 
L 53.515625 0 
L 44.484375 0 
L 44.484375 32.71875 
Q 44.484375 40.625 41.703125 44.40625 
Q 38.921875 48.1875 33.109375 48.1875 
Q 26.21875 48.1875 22.15625 43.53125 
Q 18.109375 38.875 18.109375 30.90625 
L 18.109375 0 
L 9.078125 0 
L 9.078125 54.6875 
L 18.109375 54.6875 
L 18.109375 46.1875 
Q 21.1875 51.21875 25.484375 53.609375 
Q 29.78125 56 35.6875 56 
Q 41.65625 56 45.828125 52.96875 
Q 50 49.953125 52 44.1875 
z
" id="DejaVuSans-109"/>
      <path d="M 18.3125 70.21875 
L 18.3125 54.6875 
L 36.8125 54.6875 
L 36.8125 47.703125 
L 18.3125 47.703125 
L 18.3125 18.015625 
Q 18.3125 11.328125 20.140625 9.421875 
Q 21.96875 7.515625 27.59375 7.515625 
L 36.8125 7.515625 
L 36.8125 0 
L 27.59375 0 
Q 17.1875 0 13.234375 3.875 
Q 9.28125 7.765625 9.28125 18.015625 
L 9.28125 47.703125 
L 2.6875 47.703125 
L 2.6875 54.6875 
L 9.28125 54.6875 
L 9.28125 70.21875 
z
" id="DejaVuSans-116"/>
      <path d="M 8.5 21.578125 
L 8.5 54.6875 
L 17.484375 54.6875 
L 17.484375 21.921875 
Q 17.484375 14.15625 20.5 10.265625 
Q 23.53125 6.390625 29.59375 6.390625 
Q 36.859375 6.390625 41.078125 11.03125 
Q 45.3125 15.671875 45.3125 23.6875 
L 45.3125 54.6875 
L 54.296875 54.6875 
L 54.296875 0 
L 45.3125 0 
L 45.3125 8.40625 
Q 42.046875 3.421875 37.71875 1 
Q 33.40625 -1.421875 27.6875 -1.421875 
Q 18.265625 -1.421875 13.375 4.4375 
Q 8.5 10.296875 8.5 21.578125 
z
M 31.109375 56 
z
" id="DejaVuSans-117"/>
      <path d="M 45.40625 46.390625 
L 45.40625 75.984375 
L 54.390625 75.984375 
L 54.390625 0 
L 45.40625 0 
L 45.40625 8.203125 
Q 42.578125 3.328125 38.25 0.953125 
Q 33.9375 -1.421875 27.875 -1.421875 
Q 17.96875 -1.421875 11.734375 6.484375 
Q 5.515625 14.40625 5.515625 27.296875 
Q 5.515625 40.1875 11.734375 48.09375 
Q 17.96875 56 27.875 56 
Q 33.9375 56 38.25 53.625 
Q 42.578125 51.265625 45.40625 46.390625 
z
M 14.796875 27.296875 
Q 14.796875 17.390625 18.875 11.75 
Q 22.953125 6.109375 30.078125 6.109375 
Q 37.203125 6.109375 41.296875 11.75 
Q 45.40625 17.390625 45.40625 27.296875 
Q 45.40625 37.203125 41.296875 42.84375 
Q 37.203125 48.484375 30.078125 48.484375 
Q 22.953125 48.484375 18.875 42.84375 
Q 14.796875 37.203125 14.796875 27.296875 
z
" id="DejaVuSans-100"/>
      <path d="M 56.203125 29.59375 
L 56.203125 25.203125 
L 14.890625 25.203125 
Q 15.484375 15.921875 20.484375 11.0625 
Q 25.484375 6.203125 34.421875 6.203125 
Q 39.59375 6.203125 44.453125 7.46875 
Q 49.3125 8.734375 54.109375 11.28125 
L 54.109375 2.78125 
Q 49.265625 0.734375 44.1875 -0.34375 
Q 39.109375 -1.421875 33.890625 -1.421875 
Q 20.796875 -1.421875 13.15625 6.1875 
Q 5.515625 13.8125 5.515625 26.8125 
Q 5.515625 40.234375 12.765625 48.109375 
Q 20.015625 56 32.328125 56 
Q 43.359375 56 49.78125 48.890625 
Q 56.203125 41.796875 56.203125 29.59375 
z
M 47.21875 32.234375 
Q 47.125 39.59375 43.09375 43.984375 
Q 39.0625 48.390625 32.421875 48.390625 
Q 24.90625 48.390625 20.390625 44.140625 
Q 15.875 39.890625 15.1875 32.171875 
z
" id="DejaVuSans-101"/>
     </defs>
     <g style="fill:#262626;" transform="translate(19.053563 171.360125)rotate(-90)scale(0.156 -0.156)">
      <use xlink:href="#DejaVuSans-115"/>
      <use x="52.099609" xlink:href="#DejaVuSans-105"/>
      <use x="79.882812" xlink:href="#DejaVuSans-103"/>
      <use x="143.359375" xlink:href="#DejaVuSans-110"/>
      <use x="206.738281" xlink:href="#DejaVuSans-97"/>
      <use x="268.017578" xlink:href="#DejaVuSans-108"/>
      <use x="295.800781" xlink:href="#DejaVuSans-95"/>
      <use x="345.800781" xlink:href="#DejaVuSans-109"/>
      <use x="443.212891" xlink:href="#DejaVuSans-97"/>
      <use x="504.492188" xlink:href="#DejaVuSans-103"/>
      <use x="567.96875" xlink:href="#DejaVuSans-110"/>
      <use x="631.347656" xlink:href="#DejaVuSans-105"/>
      <use x="659.130859" xlink:href="#DejaVuSans-116"/>
      <use x="698.339844" xlink:href="#DejaVuSans-117"/>
      <use x="761.71875" xlink:href="#DejaVuSans-100"/>
      <use x="825.195312" xlink:href="#DejaVuSans-101"/>
     </g>
    </g>
   </g>
   <g id="patch_3">
    <path clip-path="url(#p117ba6dbcc)" d="M 54.067053 179.338562 
L 59.906385 179.338562 
L 59.906385 32.400467 
L 54.067053 32.400467 
z
" style="fill:#4c72b0;opacity:0.4;stroke:#ffffff;stroke-linejoin:miter;"/>
   </g>
   <g id="patch_4">
    <path clip-path="url(#p117ba6dbcc)" d="M 59.906385 179.338562 
L 65.745718 179.338562 
L 65.745718 175.513977 
L 59.906385 175.513977 
z
" style="fill:#4c72b0;opacity:0.4;stroke:#ffffff;stroke-linejoin:miter;"/>
   </g>
   <g id="patch_5">
    <path clip-path="url(#p117ba6dbcc)" d="M 65.745718 179.338562 
L 71.58505 179.338562 
L 71.58505 178.043138 
L 65.745718 178.043138 
z
" style="fill:#4c72b0;opacity:0.4;stroke:#ffffff;stroke-linejoin:miter;"/>
   </g>
   <g id="patch_6">
    <path clip-path="url(#p117ba6dbcc)" d="M 71.58505 179.338562 
L 77.424382 179.338562 
L 77.424382 178.552055 
L 71.58505 178.552055 
z
" style="fill:#4c72b0;opacity:0.4;stroke:#ffffff;stroke-linejoin:miter;"/>
   </g>
   <g id="patch_7">
    <path clip-path="url(#p117ba6dbcc)" d="M 77.424382 179.338562 
L 83.263715 179.338562 
L 83.263715 178.875911 
L 77.424382 178.875911 
z
" style="fill:#4c72b0;opacity:0.4;stroke:#ffffff;stroke-linejoin:miter;"/>
   </g>
   <g id="patch_8">
    <path clip-path="url(#p117ba6dbcc)" d="M 83.263715 179.338562 
L 89.103047 179.338562 
L 89.103047 179.076393 
L 83.263715 179.076393 
z
" style="fill:#4c72b0;opacity:0.4;stroke:#ffffff;stroke-linejoin:miter;"/>
   </g>
   <g id="patch_9">
    <path clip-path="url(#p117ba6dbcc)" d="M 89.103047 179.338562 
L 94.942379 179.338562 
L 94.942379 179.199767 
L 89.103047 179.199767 
z
" style="fill:#4c72b0;opacity:0.4;stroke:#ffffff;stroke-linejoin:miter;"/>
   </g>
   <g id="patch_10">
    <path clip-path="url(#p117ba6dbcc)" d="M 94.942379 179.338562 
L 100.781712 179.338562 
L 100.781712 179.13808 
L 94.942379 179.13808 
z
" style="fill:#4c72b0;opacity:0.4;stroke:#ffffff;stroke-linejoin:miter;"/>
   </g>
   <g id="patch_11">
    <path clip-path="url(#p117ba6dbcc)" d="M 100.781712 179.338562 
L 106.621044 179.338562 
L 106.621044 179.246032 
L 100.781712 179.246032 
z
" style="fill:#4c72b0;opacity:0.4;stroke:#ffffff;stroke-linejoin:miter;"/>
   </g>
   <g id="patch_12">
    <path clip-path="url(#p117ba6dbcc)" d="M 106.621044 179.338562 
L 112.460377 179.338562 
L 112.460377 179.276876 
L 106.621044 179.276876 
z
" style="fill:#4c72b0;opacity:0.4;stroke:#ffffff;stroke-linejoin:miter;"/>
   </g>
   <g id="patch_13">
    <path clip-path="url(#p117ba6dbcc)" d="M 112.460377 179.338562 
L 118.299709 179.338562 
L 118.299709 179.292297 
L 112.460377 179.292297 
z
" style="fill:#4c72b0;opacity:0.4;stroke:#ffffff;stroke-linejoin:miter;"/>
   </g>
   <g id="patch_14">
    <path clip-path="url(#p117ba6dbcc)" d="M 118.299709 179.338562 
L 124.139041 179.338562 
L 124.139041 179.338562 
L 118.299709 179.338562 
z
" style="fill:#4c72b0;opacity:0.4;stroke:#ffffff;stroke-linejoin:miter;"/>
   </g>
   <g id="patch_15">
    <path clip-path="url(#p117ba6dbcc)" d="M 124.139041 179.338562 
L 129.978374 179.338562 
L 129.978374 179.292297 
L 124.139041 179.292297 
z
" style="fill:#4c72b0;opacity:0.4;stroke:#ffffff;stroke-linejoin:miter;"/>
   </g>
   <g id="patch_16">
    <path clip-path="url(#p117ba6dbcc)" d="M 129.978374 179.338562 
L 135.817706 179.338562 
L 135.817706 179.307719 
L 129.978374 179.307719 
z
" style="fill:#4c72b0;opacity:0.4;stroke:#ffffff;stroke-linejoin:miter;"/>
   </g>
   <g id="patch_17">
    <path clip-path="url(#p117ba6dbcc)" d="M 135.817706 179.338562 
L 141.657038 179.338562 
L 141.657038 179.307719 
L 135.817706 179.307719 
z
" style="fill:#4c72b0;opacity:0.4;stroke:#ffffff;stroke-linejoin:miter;"/>
   </g>
   <g id="patch_18">
    <path clip-path="url(#p117ba6dbcc)" d="M 141.657038 179.338562 
L 147.496371 179.338562 
L 147.496371 179.323141 
L 141.657038 179.323141 
z
" style="fill:#4c72b0;opacity:0.4;stroke:#ffffff;stroke-linejoin:miter;"/>
   </g>
   <g id="patch_19">
    <path clip-path="url(#p117ba6dbcc)" d="M 147.496371 179.338562 
L 153.335703 179.338562 
L 153.335703 179.338562 
L 147.496371 179.338562 
z
" style="fill:#4c72b0;opacity:0.4;stroke:#ffffff;stroke-linejoin:miter;"/>
   </g>
   <g id="patch_20">
    <path clip-path="url(#p117ba6dbcc)" d="M 153.335703 179.338562 
L 159.175035 179.338562 
L 159.175035 179.323141 
L 153.335703 179.323141 
z
" style="fill:#4c72b0;opacity:0.4;stroke:#ffffff;stroke-linejoin:miter;"/>
   </g>
   <g id="patch_21">
    <path clip-path="url(#p117ba6dbcc)" d="M 159.175035 179.338562 
L 165.014368 179.338562 
L 165.014368 179.338562 
L 159.175035 179.338562 
z
" style="fill:#4c72b0;opacity:0.4;stroke:#ffffff;stroke-linejoin:miter;"/>
   </g>
   <g id="patch_22">
    <path clip-path="url(#p117ba6dbcc)" d="M 165.014368 179.338562 
L 170.8537 179.338562 
L 170.8537 179.323141 
L 165.014368 179.323141 
z
" style="fill:#4c72b0;opacity:0.4;stroke:#ffffff;stroke-linejoin:miter;"/>
   </g>
   <g id="patch_23">
    <path clip-path="url(#p117ba6dbcc)" d="M 54.067053 179.338562 
L 60.298715 179.338562 
L 60.298715 110.87066 
L 54.067053 110.87066 
z
" style="fill:#dd8452;opacity:0.4;stroke:#ffffff;stroke-linejoin:miter;"/>
   </g>
   <g id="patch_24">
    <path clip-path="url(#p117ba6dbcc)" d="M 60.298715 179.338562 
L 66.530377 179.338562 
L 66.530377 161.780837 
L 60.298715 161.780837 
z
" style="fill:#dd8452;opacity:0.4;stroke:#ffffff;stroke-linejoin:miter;"/>
   </g>
   <g id="patch_25">
    <path clip-path="url(#p117ba6dbcc)" d="M 66.530377 179.338562 
L 72.762039 179.338562 
L 72.762039 169.353058 
L 66.530377 169.353058 
z
" style="fill:#dd8452;opacity:0.4;stroke:#ffffff;stroke-linejoin:miter;"/>
   </g>
   <g id="patch_26">
    <path clip-path="url(#p117ba6dbcc)" d="M 72.762039 179.338562 
L 78.993701 179.338562 
L 78.993701 171.838596 
L 72.762039 171.838596 
z
" style="fill:#dd8452;opacity:0.4;stroke:#ffffff;stroke-linejoin:miter;"/>
   </g>
   <g id="patch_27">
    <path clip-path="url(#p117ba6dbcc)" d="M 78.993701 179.338562 
L 85.225363 179.338562 
L 85.225363 172.575587 
L 78.993701 172.575587 
z
" style="fill:#dd8452;opacity:0.4;stroke:#ffffff;stroke-linejoin:miter;"/>
   </g>
   <g id="patch_28">
    <path clip-path="url(#p117ba6dbcc)" d="M 85.225363 179.338562 
L 91.457025 179.338562 
L 91.457025 174.540896 
L 85.225363 174.540896 
z
" style="fill:#dd8452;opacity:0.4;stroke:#ffffff;stroke-linejoin:miter;"/>
   </g>
   <g id="patch_29">
    <path clip-path="url(#p117ba6dbcc)" d="M 91.457025 179.338562 
L 97.688687 179.338562 
L 97.688687 175.162281 
L 91.457025 175.162281 
z
" style="fill:#dd8452;opacity:0.4;stroke:#ffffff;stroke-linejoin:miter;"/>
   </g>
   <g id="patch_30">
    <path clip-path="url(#p117ba6dbcc)" d="M 97.688687 179.338562 
L 103.920349 179.338562 
L 103.920349 175.783665 
L 97.688687 175.783665 
z
" style="fill:#dd8452;opacity:0.4;stroke:#ffffff;stroke-linejoin:miter;"/>
   </g>
   <g id="patch_31">
    <path clip-path="url(#p117ba6dbcc)" d="M 103.920349 179.338562 
L 110.152011 179.338562 
L 110.152011 176.491754 
L 103.920349 176.491754 
z
" style="fill:#dd8452;opacity:0.4;stroke:#ffffff;stroke-linejoin:miter;"/>
   </g>
   <g id="patch_32">
    <path clip-path="url(#p117ba6dbcc)" d="M 110.152011 179.338562 
L 116.383672 179.338562 
L 116.383672 176.636262 
L 110.152011 176.636262 
z
" style="fill:#dd8452;opacity:0.4;stroke:#ffffff;stroke-linejoin:miter;"/>
   </g>
   <g id="patch_33">
    <path clip-path="url(#p117ba6dbcc)" d="M 116.383672 179.338562 
L 122.615334 179.338562 
L 122.615334 177.011983 
L 116.383672 177.011983 
z
" style="fill:#dd8452;opacity:0.4;stroke:#ffffff;stroke-linejoin:miter;"/>
   </g>
   <g id="patch_34">
    <path clip-path="url(#p117ba6dbcc)" d="M 122.615334 179.338562 
L 128.846996 179.338562 
L 128.846996 177.243196 
L 122.615334 177.243196 
z
" style="fill:#dd8452;opacity:0.4;stroke:#ffffff;stroke-linejoin:miter;"/>
   </g>
   <g id="patch_35">
    <path clip-path="url(#p117ba6dbcc)" d="M 128.846996 179.338562 
L 135.078658 179.338562 
L 135.078658 177.748974 
L 128.846996 177.748974 
z
" style="fill:#dd8452;opacity:0.4;stroke:#ffffff;stroke-linejoin:miter;"/>
   </g>
   <g id="patch_36">
    <path clip-path="url(#p117ba6dbcc)" d="M 135.078658 179.338562 
L 141.31032 179.338562 
L 141.31032 177.662269 
L 135.078658 177.662269 
z
" style="fill:#dd8452;opacity:0.4;stroke:#ffffff;stroke-linejoin:miter;"/>
   </g>
   <g id="patch_37">
    <path clip-path="url(#p117ba6dbcc)" d="M 141.31032 179.338562 
L 147.541982 179.338562 
L 147.541982 177.907933 
L 141.31032 177.907933 
z
" style="fill:#dd8452;opacity:0.4;stroke:#ffffff;stroke-linejoin:miter;"/>
   </g>
   <g id="patch_38">
    <path clip-path="url(#p117ba6dbcc)" d="M 147.541982 179.338562 
L 153.773644 179.338562 
L 153.773644 177.792327 
L 147.541982 177.792327 
z
" style="fill:#dd8452;opacity:0.4;stroke:#ffffff;stroke-linejoin:miter;"/>
   </g>
   <g id="patch_39">
    <path clip-path="url(#p117ba6dbcc)" d="M 153.773644 179.338562 
L 160.005306 179.338562 
L 160.005306 177.907933 
L 153.773644 177.907933 
z
" style="fill:#dd8452;opacity:0.4;stroke:#ffffff;stroke-linejoin:miter;"/>
   </g>
   <g id="patch_40">
    <path clip-path="url(#p117ba6dbcc)" d="M 160.005306 179.338562 
L 166.236968 179.338562 
L 166.236968 177.806777 
L 160.005306 177.806777 
z
" style="fill:#dd8452;opacity:0.4;stroke:#ffffff;stroke-linejoin:miter;"/>
   </g>
   <g id="patch_41">
    <path clip-path="url(#p117ba6dbcc)" d="M 166.236968 179.338562 
L 172.46863 179.338562 
L 172.46863 178.225851 
L 166.236968 178.225851 
z
" style="fill:#dd8452;opacity:0.4;stroke:#ffffff;stroke-linejoin:miter;"/>
   </g>
   <g id="patch_42">
    <path clip-path="url(#p117ba6dbcc)" d="M 172.46863 179.338562 
L 178.700292 179.338562 
L 178.700292 177.879031 
L 172.46863 177.879031 
z
" style="fill:#dd8452;opacity:0.4;stroke:#ffffff;stroke-linejoin:miter;"/>
   </g>
   <g id="line2d_1">
    <path clip-path="url(#p117ba6dbcc)" d="M 53.938324 177.468362 
L 54.859931 179.338562 
L 55.781538 161.794099 
L 56.703146 160.711239 
L 58.54636 171.188031 
L 59.467967 171.272852 
L 60.389574 174.411287 
L 61.311181 173.804454 
L 64.076003 177.229165 
L 64.99761 175.832937 
L 65.919217 178.733365 
L 66.840824 176.474818 
L 67.762431 178.726068 
L 68.684038 177.511384 
L 69.605645 178.635712 
L 70.527252 178.169288 
L 71.44886 178.543298 
L 72.370467 177.841293 
L 73.292074 179.273111 
L 74.213681 177.878294 
L 75.135288 178.902349 
L 76.056895 178.487333 
L 76.978502 178.975771 
L 77.900109 178.707236 
L 79.743324 179.064845 
L 80.664931 178.600805 
L 81.586538 178.636403 
L 82.508145 179.139811 
L 83.429752 179.199972 
L 84.351359 178.947966 
L 85.272966 178.863944 
L 86.194574 179.222852 
L 87.116181 179.142896 
L 88.037788 179.338562 
L 88.959395 178.47408 
L 89.881002 179.338562 
L 90.802609 178.90035 
L 91.724216 179.338562 
L 92.645823 179.195318 
L 93.567431 179.338562 
L 94.489038 179.261539 
L 95.410645 179.014147 
L 96.332252 179.285513 
L 97.253859 179.093898 
L 101.861895 179.338562 
L 102.783502 179.188756 
L 103.705109 179.338562 
L 105.548323 179.044028 
L 106.46993 179.338562 
L 108.313144 179.235995 
L 109.234752 179.338562 
L 110.156359 179.028728 
L 111.077966 179.306987 
L 111.999573 179.338562 
L 112.92118 179.222935 
L 115.686001 179.338562 
L 116.607609 179.18154 
L 117.529216 179.338562 
L 120.294037 179.318359 
L 123.980466 179.334791 
L 125.82368 179.178346 
L 126.745287 179.338562 
L 129.510108 179.328234 
L 130.431715 179.21623 
L 131.353323 179.338562 
L 132.27493 179.184815 
L 133.196537 179.338562 
L 139.647787 179.325207 
L 140.569394 179.338562 
L 141.491001 179.212567 
L 142.412608 179.338562 
L 163.609572 179.338562 
L 164.531179 179.131805 
L 165.452786 179.338562 
L 166.374393 179.044904 
L 167.296 179.338562 
L 168.217607 178.886005 
L 169.139215 179.338562 
L 170.060822 178.536775 
L 170.982429 179.338562 
L 170.982429 179.338562 
" style="fill:none;stroke:#4c72b0;stroke-linecap:round;stroke-width:1.5;"/>
   </g>
   <g id="line2d_2">
    <path clip-path="url(#p117ba6dbcc)" d="M 43.518288 179.08311 
L 44.665775 178.67724 
L 45.813261 177.78775 
L 46.960748 176.04782 
L 48.108234 173.015482 
L 49.25572 168.324028 
L 50.403207 161.917613 
L 52.698179 146.429939 
L 53.845666 139.781578 
L 54.993152 135.58064 
L 56.140638 134.483835 
L 57.288125 136.331976 
L 58.435611 140.293842 
L 60.730584 150.253036 
L 61.87807 154.663183 
L 63.025557 158.267808 
L 64.173043 161.109127 
L 65.320529 163.342801 
L 66.468016 165.129704 
L 67.615502 166.588734 
L 68.762988 167.793725 
L 69.910475 168.789309 
L 71.057961 169.60752 
L 73.352934 170.824914 
L 75.647907 171.640067 
L 77.942879 172.173013 
L 84.827797 173.419377 
L 89.417743 174.522676 
L 92.860202 175.027835 
L 100.892607 175.779097 
L 113.514957 176.742022 
L 136.464684 177.755949 
L 144.497088 177.831063 
L 151.382007 177.835479 
L 165.151843 177.942583 
L 173.184247 178.14738 
L 176.626707 178.333599 
L 184.659111 179.271292 
L 188.10157 179.305128 
L 189.249057 179.247846 
L 189.249057 179.247846 
" style="fill:none;stroke:#dd8452;stroke-linecap:round;stroke-width:1.5;"/>
   </g>
   <g id="patch_43">
    <path d="M 36.23175 179.338562 
L 36.23175 25.053562 
" style="fill:none;stroke:#ffffff;stroke-linecap:square;stroke-linejoin:miter;stroke-width:1.25;"/>
   </g>
   <g id="patch_44">
    <path d="M 36.23175 179.338562 
L 196.535595 179.338562 
" style="fill:none;stroke:#ffffff;stroke-linecap:square;stroke-linejoin:miter;stroke-width:1.25;"/>
   </g>
   <g id="text_2">
    <g id="patch_45">
     <path d="M 76.307711 128.723469 
L 166.946774 128.723469 
Q 171.146774 128.723469 171.146774 124.523469 
L 171.146774 95.297156 
Q 171.146774 91.097156 166.946774 91.097156 
L 76.307711 91.097156 
Q 72.107711 91.097156 72.107711 95.297156 
L 72.107711 124.523469 
Q 72.107711 128.723469 76.307711 128.723469 
z
" style="fill:#f5deb3;opacity:0.5;stroke:#ffffff;stroke-linejoin:miter;"/>
    </g>
    <!-- lss pwr: 0.95 -->
    <defs>
     <path id="DejaVuSans-32"/>
     <path d="M 18.109375 8.203125 
L 18.109375 -20.796875 
L 9.078125 -20.796875 
L 9.078125 54.6875 
L 18.109375 54.6875 
L 18.109375 46.390625 
Q 20.953125 51.265625 25.265625 53.625 
Q 29.59375 56 35.59375 56 
Q 45.5625 56 51.78125 48.09375 
Q 58.015625 40.1875 58.015625 27.296875 
Q 58.015625 14.40625 51.78125 6.484375 
Q 45.5625 -1.421875 35.59375 -1.421875 
Q 29.59375 -1.421875 25.265625 0.953125 
Q 20.953125 3.328125 18.109375 8.203125 
z
M 48.6875 27.296875 
Q 48.6875 37.203125 44.609375 42.84375 
Q 40.53125 48.484375 33.40625 48.484375 
Q 26.265625 48.484375 22.1875 42.84375 
Q 18.109375 37.203125 18.109375 27.296875 
Q 18.109375 17.390625 22.1875 11.75 
Q 26.265625 6.109375 33.40625 6.109375 
Q 40.53125 6.109375 44.609375 11.75 
Q 48.6875 17.390625 48.6875 27.296875 
z
" id="DejaVuSans-112"/>
     <path d="M 4.203125 54.6875 
L 13.1875 54.6875 
L 24.421875 12.015625 
L 35.59375 54.6875 
L 46.1875 54.6875 
L 57.421875 12.015625 
L 68.609375 54.6875 
L 77.59375 54.6875 
L 63.28125 0 
L 52.6875 0 
L 40.921875 44.828125 
L 29.109375 0 
L 18.5 0 
z
" id="DejaVuSans-119"/>
     <path d="M 41.109375 46.296875 
Q 39.59375 47.171875 37.8125 47.578125 
Q 36.03125 48 33.890625 48 
Q 26.265625 48 22.1875 43.046875 
Q 18.109375 38.09375 18.109375 28.8125 
L 18.109375 0 
L 9.078125 0 
L 9.078125 54.6875 
L 18.109375 54.6875 
L 18.109375 46.1875 
Q 20.953125 51.171875 25.484375 53.578125 
Q 30.03125 56 36.53125 56 
Q 37.453125 56 38.578125 55.875 
Q 39.703125 55.765625 41.0625 55.515625 
z
" id="DejaVuSans-114"/>
     <path d="M 11.71875 12.40625 
L 22.015625 12.40625 
L 22.015625 0 
L 11.71875 0 
z
M 11.71875 51.703125 
L 22.015625 51.703125 
L 22.015625 39.3125 
L 11.71875 39.3125 
z
" id="DejaVuSans-58"/>
     <path d="M 31.78125 66.40625 
Q 24.171875 66.40625 20.328125 58.90625 
Q 16.5 51.421875 16.5 36.375 
Q 16.5 21.390625 20.328125 13.890625 
Q 24.171875 6.390625 31.78125 6.390625 
Q 39.453125 6.390625 43.28125 13.890625 
Q 47.125 21.390625 47.125 36.375 
Q 47.125 51.421875 43.28125 58.90625 
Q 39.453125 66.40625 31.78125 66.40625 
z
M 31.78125 74.21875 
Q 44.046875 74.21875 50.515625 64.515625 
Q 56.984375 54.828125 56.984375 36.375 
Q 56.984375 17.96875 50.515625 8.265625 
Q 44.046875 -1.421875 31.78125 -1.421875 
Q 19.53125 -1.421875 13.0625 8.265625 
Q 6.59375 17.96875 6.59375 36.375 
Q 6.59375 54.828125 13.0625 64.515625 
Q 19.53125 74.21875 31.78125 74.21875 
z
" id="DejaVuSans-48"/>
     <path d="M 10.6875 12.40625 
L 21 12.40625 
L 21 0 
L 10.6875 0 
z
" id="DejaVuSans-46"/>
     <path d="M 10.984375 1.515625 
L 10.984375 10.5 
Q 14.703125 8.734375 18.5 7.8125 
Q 22.3125 6.890625 25.984375 6.890625 
Q 35.75 6.890625 40.890625 13.453125 
Q 46.046875 20.015625 46.78125 33.40625 
Q 43.953125 29.203125 39.59375 26.953125 
Q 35.25 24.703125 29.984375 24.703125 
Q 19.046875 24.703125 12.671875 31.3125 
Q 6.296875 37.9375 6.296875 49.421875 
Q 6.296875 60.640625 12.9375 67.421875 
Q 19.578125 74.21875 30.609375 74.21875 
Q 43.265625 74.21875 49.921875 64.515625 
Q 56.59375 54.828125 56.59375 36.375 
Q 56.59375 19.140625 48.40625 8.859375 
Q 40.234375 -1.421875 26.421875 -1.421875 
Q 22.703125 -1.421875 18.890625 -0.6875 
Q 15.09375 0.046875 10.984375 1.515625 
z
M 30.609375 32.421875 
Q 37.25 32.421875 41.125 36.953125 
Q 45.015625 41.5 45.015625 49.421875 
Q 45.015625 57.28125 41.125 61.84375 
Q 37.25 66.40625 30.609375 66.40625 
Q 23.96875 66.40625 20.09375 61.84375 
Q 16.21875 57.28125 16.21875 49.421875 
Q 16.21875 41.5 20.09375 36.953125 
Q 23.96875 32.421875 30.609375 32.421875 
z
" id="DejaVuSans-57"/>
     <path d="M 10.796875 72.90625 
L 49.515625 72.90625 
L 49.515625 64.59375 
L 19.828125 64.59375 
L 19.828125 46.734375 
Q 21.96875 47.46875 24.109375 47.828125 
Q 26.265625 48.1875 28.421875 48.1875 
Q 40.625 48.1875 47.75 41.5 
Q 54.890625 34.8125 54.890625 23.390625 
Q 54.890625 11.625 47.5625 5.09375 
Q 40.234375 -1.421875 26.90625 -1.421875 
Q 22.3125 -1.421875 17.546875 -0.640625 
Q 12.796875 0.140625 7.71875 1.703125 
L 7.71875 11.625 
Q 12.109375 9.234375 16.796875 8.0625 
Q 21.484375 6.890625 26.703125 6.890625 
Q 35.15625 6.890625 40.078125 11.328125 
Q 45.015625 15.765625 45.015625 23.390625 
Q 45.015625 31 40.078125 35.4375 
Q 35.15625 39.890625 26.703125 39.890625 
Q 22.75 39.890625 18.8125 39.015625 
Q 14.890625 38.140625 10.796875 36.28125 
z
" id="DejaVuSans-53"/>
    </defs>
    <g style="fill:#262626;" transform="translate(76.307711 105.934969)scale(0.14 -0.14)">
     <use xlink:href="#DejaVuSans-108"/>
     <use x="27.783203" xlink:href="#DejaVuSans-115"/>
     <use x="79.882812" xlink:href="#DejaVuSans-115"/>
     <use x="131.982422" xlink:href="#DejaVuSans-32"/>
     <use x="163.769531" xlink:href="#DejaVuSans-112"/>
     <use x="227.246094" xlink:href="#DejaVuSans-119"/>
     <use x="309.033203" xlink:href="#DejaVuSans-114"/>
     <use x="350.130859" xlink:href="#DejaVuSans-58"/>
     <use x="383.822266" xlink:href="#DejaVuSans-32"/>
     <use x="415.609375" xlink:href="#DejaVuSans-48"/>
     <use x="479.232422" xlink:href="#DejaVuSans-46"/>
     <use x="511.019531" xlink:href="#DejaVuSans-57"/>
     <use x="574.642578" xlink:href="#DejaVuSans-53"/>
    </g>
    <!-- lsa pwr: 0.47 -->
    <defs>
     <path d="M 37.796875 64.3125 
L 12.890625 25.390625 
L 37.796875 25.390625 
z
M 35.203125 72.90625 
L 47.609375 72.90625 
L 47.609375 25.390625 
L 58.015625 25.390625 
L 58.015625 17.1875 
L 47.609375 17.1875 
L 47.609375 0 
L 37.796875 0 
L 37.796875 17.1875 
L 4.890625 17.1875 
L 4.890625 26.703125 
z
" id="DejaVuSans-52"/>
     <path d="M 8.203125 72.90625 
L 55.078125 72.90625 
L 55.078125 68.703125 
L 28.609375 0 
L 18.3125 0 
L 43.21875 64.59375 
L 8.203125 64.59375 
z
" id="DejaVuSans-55"/>
    </defs>
    <g style="fill:#262626;" transform="translate(76.307711 121.611906)scale(0.14 -0.14)">
     <use xlink:href="#DejaVuSans-108"/>
     <use x="27.783203" xlink:href="#DejaVuSans-115"/>
     <use x="79.882812" xlink:href="#DejaVuSans-97"/>
     <use x="141.162109" xlink:href="#DejaVuSans-32"/>
     <use x="172.949219" xlink:href="#DejaVuSans-112"/>
     <use x="236.425781" xlink:href="#DejaVuSans-119"/>
     <use x="318.212891" xlink:href="#DejaVuSans-114"/>
     <use x="359.310547" xlink:href="#DejaVuSans-58"/>
     <use x="393.001953" xlink:href="#DejaVuSans-32"/>
     <use x="424.789062" xlink:href="#DejaVuSans-48"/>
     <use x="488.412109" xlink:href="#DejaVuSans-46"/>
     <use x="520.199219" xlink:href="#DejaVuSans-52"/>
     <use x="583.822266" xlink:href="#DejaVuSans-55"/>
    </g>
   </g>
   <g id="text_3">
    <g id="patch_46">
     <path d="M 76.307711 128.723469 
L 166.946774 128.723469 
Q 171.146774 128.723469 171.146774 124.523469 
L 171.146774 95.297156 
Q 171.146774 91.097156 166.946774 91.097156 
L 76.307711 91.097156 
Q 72.107711 91.097156 72.107711 95.297156 
L 72.107711 124.523469 
Q 72.107711 128.723469 76.307711 128.723469 
z
" style="fill:#f5deb3;opacity:0.5;stroke:#ffffff;stroke-linejoin:miter;"/>
    </g>
    <!-- lss pwr: 0.95 -->
    <g style="fill:#262626;" transform="translate(76.307711 105.934969)scale(0.14 -0.14)">
     <use xlink:href="#DejaVuSans-108"/>
     <use x="27.783203" xlink:href="#DejaVuSans-115"/>
     <use x="79.882812" xlink:href="#DejaVuSans-115"/>
     <use x="131.982422" xlink:href="#DejaVuSans-32"/>
     <use x="163.769531" xlink:href="#DejaVuSans-112"/>
     <use x="227.246094" xlink:href="#DejaVuSans-119"/>
     <use x="309.033203" xlink:href="#DejaVuSans-114"/>
     <use x="350.130859" xlink:href="#DejaVuSans-58"/>
     <use x="383.822266" xlink:href="#DejaVuSans-32"/>
     <use x="415.609375" xlink:href="#DejaVuSans-48"/>
     <use x="479.232422" xlink:href="#DejaVuSans-46"/>
     <use x="511.019531" xlink:href="#DejaVuSans-57"/>
     <use x="574.642578" xlink:href="#DejaVuSans-53"/>
    </g>
    <!-- lsa pwr: 0.47 -->
    <g style="fill:#262626;" transform="translate(76.307711 121.611906)scale(0.14 -0.14)">
     <use xlink:href="#DejaVuSans-108"/>
     <use x="27.783203" xlink:href="#DejaVuSans-115"/>
     <use x="79.882812" xlink:href="#DejaVuSans-97"/>
     <use x="141.162109" xlink:href="#DejaVuSans-32"/>
     <use x="172.949219" xlink:href="#DejaVuSans-112"/>
     <use x="236.425781" xlink:href="#DejaVuSans-119"/>
     <use x="318.212891" xlink:href="#DejaVuSans-114"/>
     <use x="359.310547" xlink:href="#DejaVuSans-58"/>
     <use x="393.001953" xlink:href="#DejaVuSans-32"/>
     <use x="424.789062" xlink:href="#DejaVuSans-48"/>
     <use x="488.412109" xlink:href="#DejaVuSans-46"/>
     <use x="520.199219" xlink:href="#DejaVuSans-52"/>
     <use x="583.822266" xlink:href="#DejaVuSans-55"/>
    </g>
   </g>
   <g id="text_4">
    <!-- trial_var = 0 -->
    <defs>
     <path d="M 2.984375 54.6875 
L 12.5 54.6875 
L 29.59375 8.796875 
L 46.6875 54.6875 
L 56.203125 54.6875 
L 35.6875 0 
L 23.484375 0 
z
" id="DejaVuSans-118"/>
     <path d="M 10.59375 45.40625 
L 73.1875 45.40625 
L 73.1875 37.203125 
L 10.59375 37.203125 
z
M 10.59375 25.484375 
L 73.1875 25.484375 
L 73.1875 17.1875 
L 10.59375 17.1875 
z
" id="DejaVuSans-61"/>
    </defs>
    <g style="fill:#262626;" transform="translate(68.04561 19.053562)scale(0.156 -0.156)">
     <use xlink:href="#DejaVuSans-116"/>
     <use x="39.208984" xlink:href="#DejaVuSans-114"/>
     <use x="80.322266" xlink:href="#DejaVuSans-105"/>
     <use x="108.105469" xlink:href="#DejaVuSans-97"/>
     <use x="169.384766" xlink:href="#DejaVuSans-108"/>
     <use x="197.167969" xlink:href="#DejaVuSans-95"/>
     <use x="247.167969" xlink:href="#DejaVuSans-118"/>
     <use x="306.347656" xlink:href="#DejaVuSans-97"/>
     <use x="367.626953" xlink:href="#DejaVuSans-114"/>
     <use x="408.740234" xlink:href="#DejaVuSans-32"/>
     <use x="440.527344" xlink:href="#DejaVuSans-61"/>
     <use x="524.316406" xlink:href="#DejaVuSans-32"/>
     <use x="556.103516" xlink:href="#DejaVuSans-48"/>
    </g>
   </g>
  </g>
  <g id="axes_2">
   <g id="patch_47">
    <path d="M 225.383595 179.338562 
L 385.68744 179.338562 
L 385.68744 25.053562 
L 225.383595 25.053562 
z
" style="fill:#eaeaf2;"/>
   </g>
   <g id="matplotlib.axis_3">
    <g id="xtick_4"/>
    <g id="xtick_5"/>
    <g id="xtick_6"/>
   </g>
   <g id="matplotlib.axis_4">
    <g id="ytick_6"/>
    <g id="ytick_7"/>
    <g id="ytick_8"/>
    <g id="ytick_9"/>
    <g id="ytick_10"/>
   </g>
   <g id="patch_48">
    <path clip-path="url(#p5addabf98f)" d="M 243.218898 179.338562 
L 244.40242 179.338562 
L 244.40242 32.400467 
L 243.218898 32.400467 
z
" style="fill:#4c72b0;opacity:0.4;stroke:#ffffff;stroke-linejoin:miter;"/>
   </g>
   <g id="patch_49">
    <path clip-path="url(#p5addabf98f)" d="M 244.40242 179.338562 
L 245.585943 179.338562 
L 245.585943 177.899022 
L 244.40242 177.899022 
z
" style="fill:#4c72b0;opacity:0.4;stroke:#ffffff;stroke-linejoin:miter;"/>
   </g>
   <g id="patch_50">
    <path clip-path="url(#p5addabf98f)" d="M 245.585943 179.338562 
L 246.769465 179.338562 
L 246.769465 178.738754 
L 245.585943 178.738754 
z
" style="fill:#4c72b0;opacity:0.4;stroke:#ffffff;stroke-linejoin:miter;"/>
   </g>
   <g id="patch_51">
    <path clip-path="url(#p5addabf98f)" d="M 246.769465 179.338562 
L 247.952987 179.338562 
L 247.952987 179.023663 
L 246.769465 179.023663 
z
" style="fill:#4c72b0;opacity:0.4;stroke:#ffffff;stroke-linejoin:miter;"/>
   </g>
   <g id="patch_52">
    <path clip-path="url(#p5addabf98f)" d="M 247.952987 179.338562 
L 249.13651 179.338562 
L 249.13651 179.113634 
L 247.952987 179.113634 
z
" style="fill:#4c72b0;opacity:0.4;stroke:#ffffff;stroke-linejoin:miter;"/>
   </g>
   <g id="patch_53">
    <path clip-path="url(#p5addabf98f)" d="M 249.13651 179.338562 
L 250.320032 179.338562 
L 250.320032 179.248591 
L 249.13651 179.248591 
z
" style="fill:#4c72b0;opacity:0.4;stroke:#ffffff;stroke-linejoin:miter;"/>
   </g>
   <g id="patch_54">
    <path clip-path="url(#p5addabf98f)" d="M 250.320032 179.338562 
L 251.503554 179.338562 
L 251.503554 179.278582 
L 250.320032 179.278582 
z
" style="fill:#4c72b0;opacity:0.4;stroke:#ffffff;stroke-linejoin:miter;"/>
   </g>
   <g id="patch_55">
    <path clip-path="url(#p5addabf98f)" d="M 251.503554 179.338562 
L 252.687077 179.338562 
L 252.687077 179.263586 
L 251.503554 179.263586 
z
" style="fill:#4c72b0;opacity:0.4;stroke:#ffffff;stroke-linejoin:miter;"/>
   </g>
   <g id="patch_56">
    <path clip-path="url(#p5addabf98f)" d="M 252.687077 179.338562 
L 253.870599 179.338562 
L 253.870599 179.293577 
L 252.687077 179.293577 
z
" style="fill:#4c72b0;opacity:0.4;stroke:#ffffff;stroke-linejoin:miter;"/>
   </g>
   <g id="patch_57">
    <path clip-path="url(#p5addabf98f)" d="M 253.870599 179.338562 
L 255.054121 179.338562 
L 255.054121 179.308572 
L 253.870599 179.308572 
z
" style="fill:#4c72b0;opacity:0.4;stroke:#ffffff;stroke-linejoin:miter;"/>
   </g>
   <g id="patch_58">
    <path clip-path="url(#p5addabf98f)" d="M 255.054121 179.338562 
L 256.237644 179.338562 
L 256.237644 179.293577 
L 255.054121 179.293577 
z
" style="fill:#4c72b0;opacity:0.4;stroke:#ffffff;stroke-linejoin:miter;"/>
   </g>
   <g id="patch_59">
    <path clip-path="url(#p5addabf98f)" d="M 256.237644 179.338562 
L 257.421166 179.338562 
L 257.421166 179.338562 
L 256.237644 179.338562 
z
" style="fill:#4c72b0;opacity:0.4;stroke:#ffffff;stroke-linejoin:miter;"/>
   </g>
   <g id="patch_60">
    <path clip-path="url(#p5addabf98f)" d="M 257.421166 179.338562 
L 258.604688 179.338562 
L 258.604688 179.308572 
L 257.421166 179.308572 
z
" style="fill:#4c72b0;opacity:0.4;stroke:#ffffff;stroke-linejoin:miter;"/>
   </g>
   <g id="patch_61">
    <path clip-path="url(#p5addabf98f)" d="M 258.604688 179.338562 
L 259.78821 179.338562 
L 259.78821 179.308572 
L 258.604688 179.308572 
z
" style="fill:#4c72b0;opacity:0.4;stroke:#ffffff;stroke-linejoin:miter;"/>
   </g>
   <g id="patch_62">
    <path clip-path="url(#p5addabf98f)" d="M 259.78821 179.338562 
L 260.971733 179.338562 
L 260.971733 179.338562 
L 259.78821 179.338562 
z
" style="fill:#4c72b0;opacity:0.4;stroke:#ffffff;stroke-linejoin:miter;"/>
   </g>
   <g id="patch_63">
    <path clip-path="url(#p5addabf98f)" d="M 260.971733 179.338562 
L 262.155255 179.338562 
L 262.155255 179.323567 
L 260.971733 179.323567 
z
" style="fill:#4c72b0;opacity:0.4;stroke:#ffffff;stroke-linejoin:miter;"/>
   </g>
   <g id="patch_64">
    <path clip-path="url(#p5addabf98f)" d="M 262.155255 179.338562 
L 263.338777 179.338562 
L 263.338777 179.338562 
L 262.155255 179.338562 
z
" style="fill:#4c72b0;opacity:0.4;stroke:#ffffff;stroke-linejoin:miter;"/>
   </g>
   <g id="patch_65">
    <path clip-path="url(#p5addabf98f)" d="M 263.338777 179.338562 
L 264.5223 179.338562 
L 264.5223 179.338562 
L 263.338777 179.338562 
z
" style="fill:#4c72b0;opacity:0.4;stroke:#ffffff;stroke-linejoin:miter;"/>
   </g>
   <g id="patch_66">
    <path clip-path="url(#p5addabf98f)" d="M 264.5223 179.338562 
L 265.705822 179.338562 
L 265.705822 179.308572 
L 264.5223 179.308572 
z
" style="fill:#4c72b0;opacity:0.4;stroke:#ffffff;stroke-linejoin:miter;"/>
   </g>
   <g id="patch_67">
    <path clip-path="url(#p5addabf98f)" d="M 265.705822 179.338562 
L 266.889344 179.338562 
L 266.889344 179.308572 
L 265.705822 179.308572 
z
" style="fill:#4c72b0;opacity:0.4;stroke:#ffffff;stroke-linejoin:miter;"/>
   </g>
   <g id="patch_68">
    <path clip-path="url(#p5addabf98f)" d="M 243.2189 179.338562 
L 249.433785 179.338562 
L 249.433785 159.25519 
L 243.2189 159.25519 
z
" style="fill:#dd8452;opacity:0.4;stroke:#ffffff;stroke-linejoin:miter;"/>
   </g>
   <g id="patch_69">
    <path clip-path="url(#p5addabf98f)" d="M 249.433785 179.338562 
L 255.648669 179.338562 
L 255.648669 176.731408 
L 249.433785 176.731408 
z
" style="fill:#dd8452;opacity:0.4;stroke:#ffffff;stroke-linejoin:miter;"/>
   </g>
   <g id="patch_70">
    <path clip-path="url(#p5addabf98f)" d="M 255.648669 179.338562 
L 261.863554 179.338562 
L 261.863554 178.010713 
L 255.648669 178.010713 
z
" style="fill:#dd8452;opacity:0.4;stroke:#ffffff;stroke-linejoin:miter;"/>
   </g>
   <g id="patch_71">
    <path clip-path="url(#p5addabf98f)" d="M 261.863554 179.338562 
L 268.078438 179.338562 
L 268.078438 178.436196 
L 261.863554 178.436196 
z
" style="fill:#dd8452;opacity:0.4;stroke:#ffffff;stroke-linejoin:miter;"/>
   </g>
   <g id="patch_72">
    <path clip-path="url(#p5addabf98f)" d="M 268.078438 179.338562 
L 274.293323 179.338562 
L 274.293323 178.750311 
L 268.078438 178.750311 
z
" style="fill:#dd8452;opacity:0.4;stroke:#ffffff;stroke-linejoin:miter;"/>
   </g>
   <g id="patch_73">
    <path clip-path="url(#p5addabf98f)" d="M 274.293323 179.338562 
L 280.508208 179.338562 
L 280.508208 178.861679 
L 274.293323 178.861679 
z
" style="fill:#dd8452;opacity:0.4;stroke:#ffffff;stroke-linejoin:miter;"/>
   </g>
   <g id="patch_74">
    <path clip-path="url(#p5addabf98f)" d="M 280.508208 179.338562 
L 286.723092 179.338562 
L 286.723092 178.904513 
L 280.508208 178.904513 
z
" style="fill:#dd8452;opacity:0.4;stroke:#ffffff;stroke-linejoin:miter;"/>
   </g>
   <g id="patch_75">
    <path clip-path="url(#p5addabf98f)" d="M 286.723092 179.338562 
L 292.937977 179.338562 
L 292.937977 179.004458 
L 286.723092 179.004458 
z
" style="fill:#dd8452;opacity:0.4;stroke:#ffffff;stroke-linejoin:miter;"/>
   </g>
   <g id="patch_76">
    <path clip-path="url(#p5addabf98f)" d="M 292.937977 179.338562 
L 299.152861 179.338562 
L 299.152861 179.041581 
L 292.937977 179.041581 
z
" style="fill:#dd8452;opacity:0.4;stroke:#ffffff;stroke-linejoin:miter;"/>
   </g>
   <g id="patch_77">
    <path clip-path="url(#p5addabf98f)" d="M 299.152861 179.338562 
L 305.367746 179.338562 
L 305.367746 179.078704 
L 299.152861 179.078704 
z
" style="fill:#dd8452;opacity:0.4;stroke:#ffffff;stroke-linejoin:miter;"/>
   </g>
   <g id="patch_78">
    <path clip-path="url(#p5addabf98f)" d="M 305.367746 179.338562 
L 311.582631 179.338562 
L 311.582631 179.124393 
L 305.367746 179.124393 
z
" style="fill:#dd8452;opacity:0.4;stroke:#ffffff;stroke-linejoin:miter;"/>
   </g>
   <g id="patch_79">
    <path clip-path="url(#p5addabf98f)" d="M 311.582631 179.338562 
L 317.797515 179.338562 
L 317.797515 179.192927 
L 311.582631 179.192927 
z
" style="fill:#dd8452;opacity:0.4;stroke:#ffffff;stroke-linejoin:miter;"/>
   </g>
   <g id="patch_80">
    <path clip-path="url(#p5addabf98f)" d="M 317.797515 179.338562 
L 324.0124 179.338562 
L 324.0124 179.178649 
L 317.797515 179.178649 
z
" style="fill:#dd8452;opacity:0.4;stroke:#ffffff;stroke-linejoin:miter;"/>
   </g>
   <g id="patch_81">
    <path clip-path="url(#p5addabf98f)" d="M 324.0124 179.338562 
L 330.227284 179.338562 
L 330.227284 179.252895 
L 324.0124 179.252895 
z
" style="fill:#dd8452;opacity:0.4;stroke:#ffffff;stroke-linejoin:miter;"/>
   </g>
   <g id="patch_82">
    <path clip-path="url(#p5addabf98f)" d="M 330.227284 179.338562 
L 336.442169 179.338562 
L 336.442169 179.201494 
L 330.227284 179.201494 
z
" style="fill:#dd8452;opacity:0.4;stroke:#ffffff;stroke-linejoin:miter;"/>
   </g>
   <g id="patch_83">
    <path clip-path="url(#p5addabf98f)" d="M 336.442169 179.338562 
L 342.657054 179.338562 
L 342.657054 179.192927 
L 336.442169 179.192927 
z
" style="fill:#dd8452;opacity:0.4;stroke:#ffffff;stroke-linejoin:miter;"/>
   </g>
   <g id="patch_84">
    <path clip-path="url(#p5addabf98f)" d="M 342.657054 179.338562 
L 348.871938 179.338562 
L 348.871938 179.224339 
L 342.657054 179.224339 
z
" style="fill:#dd8452;opacity:0.4;stroke:#ffffff;stroke-linejoin:miter;"/>
   </g>
   <g id="patch_85">
    <path clip-path="url(#p5addabf98f)" d="M 348.871938 179.338562 
L 355.086823 179.338562 
L 355.086823 179.241472 
L 348.871938 179.241472 
z
" style="fill:#dd8452;opacity:0.4;stroke:#ffffff;stroke-linejoin:miter;"/>
   </g>
   <g id="patch_86">
    <path clip-path="url(#p5addabf98f)" d="M 355.086823 179.338562 
L 361.301707 179.338562 
L 361.301707 179.250039 
L 355.086823 179.250039 
z
" style="fill:#dd8452;opacity:0.4;stroke:#ffffff;stroke-linejoin:miter;"/>
   </g>
   <g id="patch_87">
    <path clip-path="url(#p5addabf98f)" d="M 361.301707 179.338562 
L 367.516592 179.338562 
L 367.516592 179.272884 
L 361.301707 179.272884 
z
" style="fill:#dd8452;opacity:0.4;stroke:#ffffff;stroke-linejoin:miter;"/>
   </g>
   <g id="line2d_3">
    <path clip-path="url(#p5addabf98f)" d="M 243.213987 178.956121 
L 243.400446 179.338562 
L 243.773363 169.012747 
L 244.146281 175.388864 
L 244.33274 176.868431 
L 244.519198 176.788875 
L 244.705657 177.923511 
L 244.892116 177.866785 
L 245.078575 177.935125 
L 245.265034 178.264499 
L 245.451493 178.264032 
L 245.637951 178.884244 
L 245.82441 178.647197 
L 246.010869 178.821912 
L 246.383787 178.738663 
L 246.943163 178.895282 
L 247.129622 179.098392 
L 247.502539 179.032039 
L 247.875457 179.241817 
L 248.061916 178.91617 
L 248.248375 179.169288 
L 248.434833 178.887192 
L 248.621292 179.338562 
L 248.807751 178.812633 
L 248.99421 179.338562 
L 249.180669 179.16092 
L 249.367127 179.338562 
L 250.112963 179.083564 
L 250.299422 179.284251 
L 250.48588 179.241922 
L 250.672339 179.316847 
L 250.858798 179.206171 
L 251.604633 179.30898 
L 251.791092 179.205383 
L 251.977551 179.309893 
L 252.350468 179.18873 
L 252.536927 179.338562 
L 252.723386 179.074667 
L 252.909845 179.338562 
L 253.469221 179.303239 
L 253.65568 179.338562 
L 253.842139 179.128762 
L 254.028598 179.338562 
L 254.587974 179.201061 
L 254.774433 179.338562 
L 259.622362 179.203065 
L 259.808821 179.338562 
L 260.741115 179.328647 
L 261.673409 179.338562 
L 261.859868 179.193346 
L 262.046327 179.338562 
L 262.792162 179.338562 
L 266.334879 179.260989 
L 266.521338 179.338562 
L 266.707797 179.236921 
L 266.894256 179.338562 
L 266.894256 179.338562 
" style="fill:none;stroke:#4c72b0;stroke-linecap:round;stroke-width:1.5;"/>
   </g>
   <g id="line2d_4">
    <path clip-path="url(#p5addabf98f)" d="M 239.994598 179.120238 
L 241.024097 176.757901 
L 242.053595 165.505462 
L 243.083093 149.140276 
L 244.112592 149.049231 
L 245.14209 160.956906 
L 246.171589 169.361853 
L 247.201087 172.656257 
L 248.230585 173.986496 
L 250.289582 175.73362 
L 251.31908 176.260969 
L 254.407576 177.332528 
L 256.466572 177.727556 
L 259.555068 178.107386 
L 261.614064 178.282299 
L 263.673061 178.504678 
L 268.820553 178.565338 
L 272.938547 178.832747 
L 278.086039 178.840649 
L 286.322026 178.916482 
L 289.410521 178.966215 
L 292.499016 179.084855 
L 296.61701 179.057982 
L 312.059486 179.133925 
L 316.177479 179.21428 
L 339.855942 179.213346 
L 341.914939 179.191965 
L 345.003434 179.216842 
L 354.26892 179.249511 
L 370.740894 179.338562 
L 370.740894 179.338562 
" style="fill:none;stroke:#dd8452;stroke-linecap:round;stroke-width:1.5;"/>
   </g>
   <g id="patch_88">
    <path d="M 225.383595 179.338562 
L 225.383595 25.053563 
" style="fill:none;stroke:#ffffff;stroke-linecap:square;stroke-linejoin:miter;stroke-width:1.25;"/>
   </g>
   <g id="patch_89">
    <path d="M 225.383595 179.338562 
L 385.68744 179.338562 
" style="fill:none;stroke:#ffffff;stroke-linecap:square;stroke-linejoin:miter;stroke-width:1.25;"/>
   </g>
   <g id="text_5">
    <g id="patch_90">
     <path d="M 265.459556 128.723469 
L 347.191119 128.723469 
Q 351.391119 128.723469 351.391119 124.523469 
L 351.391119 95.297156 
Q 351.391119 91.097156 347.191119 91.097156 
L 265.459556 91.097156 
Q 261.259556 91.097156 261.259556 95.297156 
L 261.259556 124.523469 
Q 261.259556 128.723469 265.459556 128.723469 
z
" style="fill:#f5deb3;opacity:0.5;stroke:#ffffff;stroke-linejoin:miter;"/>
    </g>
    <!-- lss pwr: 1.0 -->
    <defs>
     <path d="M 12.40625 8.296875 
L 28.515625 8.296875 
L 28.515625 63.921875 
L 10.984375 60.40625 
L 10.984375 69.390625 
L 28.421875 72.90625 
L 38.28125 72.90625 
L 38.28125 8.296875 
L 54.390625 8.296875 
L 54.390625 0 
L 12.40625 0 
z
" id="DejaVuSans-49"/>
    </defs>
    <g style="fill:#262626;" transform="translate(265.459556 105.934969)scale(0.14 -0.14)">
     <use xlink:href="#DejaVuSans-108"/>
     <use x="27.783203" xlink:href="#DejaVuSans-115"/>
     <use x="79.882812" xlink:href="#DejaVuSans-115"/>
     <use x="131.982422" xlink:href="#DejaVuSans-32"/>
     <use x="163.769531" xlink:href="#DejaVuSans-112"/>
     <use x="227.246094" xlink:href="#DejaVuSans-119"/>
     <use x="309.033203" xlink:href="#DejaVuSans-114"/>
     <use x="350.130859" xlink:href="#DejaVuSans-58"/>
     <use x="383.822266" xlink:href="#DejaVuSans-32"/>
     <use x="415.609375" xlink:href="#DejaVuSans-49"/>
     <use x="479.232422" xlink:href="#DejaVuSans-46"/>
     <use x="511.019531" xlink:href="#DejaVuSans-48"/>
    </g>
    <!-- lsa pwr: 0.7 -->
    <g style="fill:#262626;" transform="translate(265.459556 121.611906)scale(0.14 -0.14)">
     <use xlink:href="#DejaVuSans-108"/>
     <use x="27.783203" xlink:href="#DejaVuSans-115"/>
     <use x="79.882812" xlink:href="#DejaVuSans-97"/>
     <use x="141.162109" xlink:href="#DejaVuSans-32"/>
     <use x="172.949219" xlink:href="#DejaVuSans-112"/>
     <use x="236.425781" xlink:href="#DejaVuSans-119"/>
     <use x="318.212891" xlink:href="#DejaVuSans-114"/>
     <use x="359.310547" xlink:href="#DejaVuSans-58"/>
     <use x="393.001953" xlink:href="#DejaVuSans-32"/>
     <use x="424.789062" xlink:href="#DejaVuSans-48"/>
     <use x="488.412109" xlink:href="#DejaVuSans-46"/>
     <use x="520.199219" xlink:href="#DejaVuSans-55"/>
    </g>
   </g>
   <g id="text_6">
    <g id="patch_91">
     <path d="M 265.459556 128.723469 
L 347.191119 128.723469 
Q 351.391119 128.723469 351.391119 124.523469 
L 351.391119 95.297156 
Q 351.391119 91.097156 347.191119 91.097156 
L 265.459556 91.097156 
Q 261.259556 91.097156 261.259556 95.297156 
L 261.259556 124.523469 
Q 261.259556 128.723469 265.459556 128.723469 
z
" style="fill:#f5deb3;opacity:0.5;stroke:#ffffff;stroke-linejoin:miter;"/>
    </g>
    <!-- lss pwr: 1.0 -->
    <g style="fill:#262626;" transform="translate(265.459556 105.934969)scale(0.14 -0.14)">
     <use xlink:href="#DejaVuSans-108"/>
     <use x="27.783203" xlink:href="#DejaVuSans-115"/>
     <use x="79.882812" xlink:href="#DejaVuSans-115"/>
     <use x="131.982422" xlink:href="#DejaVuSans-32"/>
     <use x="163.769531" xlink:href="#DejaVuSans-112"/>
     <use x="227.246094" xlink:href="#DejaVuSans-119"/>
     <use x="309.033203" xlink:href="#DejaVuSans-114"/>
     <use x="350.130859" xlink:href="#DejaVuSans-58"/>
     <use x="383.822266" xlink:href="#DejaVuSans-32"/>
     <use x="415.609375" xlink:href="#DejaVuSans-49"/>
     <use x="479.232422" xlink:href="#DejaVuSans-46"/>
     <use x="511.019531" xlink:href="#DejaVuSans-48"/>
    </g>
    <!-- lsa pwr: 0.7 -->
    <g style="fill:#262626;" transform="translate(265.459556 121.611906)scale(0.14 -0.14)">
     <use xlink:href="#DejaVuSans-108"/>
     <use x="27.783203" xlink:href="#DejaVuSans-115"/>
     <use x="79.882812" xlink:href="#DejaVuSans-97"/>
     <use x="141.162109" xlink:href="#DejaVuSans-32"/>
     <use x="172.949219" xlink:href="#DejaVuSans-112"/>
     <use x="236.425781" xlink:href="#DejaVuSans-119"/>
     <use x="318.212891" xlink:href="#DejaVuSans-114"/>
     <use x="359.310547" xlink:href="#DejaVuSans-58"/>
     <use x="393.001953" xlink:href="#DejaVuSans-32"/>
     <use x="424.789062" xlink:href="#DejaVuSans-48"/>
     <use x="488.412109" xlink:href="#DejaVuSans-46"/>
     <use x="520.199219" xlink:href="#DejaVuSans-55"/>
    </g>
   </g>
   <g id="text_7">
    <g id="patch_92">
     <path d="M 384.837517 12.519219 
L 384.837517 191.872906 
L 408.481267 191.872906 
L 408.481267 12.519219 
z
" style="fill:#ffffff;stroke:#ffffff;stroke-linejoin:miter;"/>
    </g>
    <!-- signal_magnitude = 1 -->
    <g style="fill:#262626;" transform="translate(392.571704 16.575219)rotate(-270)scale(0.156 -0.156)">
     <use xlink:href="#DejaVuSans-115"/>
     <use x="52.099609" xlink:href="#DejaVuSans-105"/>
     <use x="79.882812" xlink:href="#DejaVuSans-103"/>
     <use x="143.359375" xlink:href="#DejaVuSans-110"/>
     <use x="206.738281" xlink:href="#DejaVuSans-97"/>
     <use x="268.017578" xlink:href="#DejaVuSans-108"/>
     <use x="295.800781" xlink:href="#DejaVuSans-95"/>
     <use x="345.800781" xlink:href="#DejaVuSans-109"/>
     <use x="443.212891" xlink:href="#DejaVuSans-97"/>
     <use x="504.492188" xlink:href="#DejaVuSans-103"/>
     <use x="567.96875" xlink:href="#DejaVuSans-110"/>
     <use x="631.347656" xlink:href="#DejaVuSans-105"/>
     <use x="659.130859" xlink:href="#DejaVuSans-116"/>
     <use x="698.339844" xlink:href="#DejaVuSans-117"/>
     <use x="761.71875" xlink:href="#DejaVuSans-100"/>
     <use x="825.195312" xlink:href="#DejaVuSans-101"/>
     <use x="886.71875" xlink:href="#DejaVuSans-32"/>
     <use x="918.505859" xlink:href="#DejaVuSans-61"/>
     <use x="1002.294922" xlink:href="#DejaVuSans-32"/>
     <use x="1034.082031" xlink:href="#DejaVuSans-49"/>
    </g>
   </g>
   <g id="text_8">
    <!-- trial_var = 1 -->
    <g style="fill:#262626;" transform="translate(257.197455 19.053562)scale(0.156 -0.156)">
     <use xlink:href="#DejaVuSans-116"/>
     <use x="39.208984" xlink:href="#DejaVuSans-114"/>
     <use x="80.322266" xlink:href="#DejaVuSans-105"/>
     <use x="108.105469" xlink:href="#DejaVuSans-97"/>
     <use x="169.384766" xlink:href="#DejaVuSans-108"/>
     <use x="197.167969" xlink:href="#DejaVuSans-95"/>
     <use x="247.167969" xlink:href="#DejaVuSans-118"/>
     <use x="306.347656" xlink:href="#DejaVuSans-97"/>
     <use x="367.626953" xlink:href="#DejaVuSans-114"/>
     <use x="408.740234" xlink:href="#DejaVuSans-32"/>
     <use x="440.527344" xlink:href="#DejaVuSans-61"/>
     <use x="524.316406" xlink:href="#DejaVuSans-32"/>
     <use x="556.103516" xlink:href="#DejaVuSans-49"/>
    </g>
   </g>
   <g id="legend_1">
    <g id="patch_93">
     <path d="M 309.732096 78.473 
L 375.67744 78.473 
Q 378.53744 78.473 378.53744 75.613 
L 378.53744 35.063562 
Q 378.53744 32.203562 375.67744 32.203562 
L 309.732096 32.203562 
Q 306.872096 32.203562 306.872096 35.063562 
L 306.872096 75.613 
Q 306.872096 78.473 309.732096 78.473 
z
" style="fill:#eaeaf2;opacity:0.8;stroke:#cccccc;stroke-linejoin:miter;"/>
    </g>
    <g id="patch_94">
     <path d="M 312.592096 48.789328 
L 341.192096 48.789328 
L 341.192096 38.779328 
L 312.592096 38.779328 
z
" style="fill:#4c72b0;opacity:0.4;stroke:#ffffff;stroke-linejoin:miter;"/>
    </g>
    <g id="text_9">
     <!-- lss -->
     <g style="fill:#262626;" transform="translate(352.632096 48.789328)scale(0.143 -0.143)">
      <use xlink:href="#DejaVuSans-108"/>
      <use x="27.783203" xlink:href="#DejaVuSans-115"/>
      <use x="79.882812" xlink:href="#DejaVuSans-115"/>
     </g>
    </g>
    <g id="patch_95">
     <path d="M 312.592096 69.779047 
L 341.192096 69.779047 
L 341.192096 59.769047 
L 312.592096 59.769047 
z
" style="fill:#dd8452;opacity:0.4;stroke:#ffffff;stroke-linejoin:miter;"/>
    </g>
    <g id="text_10">
     <!-- lsa -->
     <g style="fill:#262626;" transform="translate(352.632096 69.779047)scale(0.143 -0.143)">
      <use xlink:href="#DejaVuSans-108"/>
      <use x="27.783203" xlink:href="#DejaVuSans-115"/>
      <use x="79.882812" xlink:href="#DejaVuSans-97"/>
     </g>
    </g>
   </g>
  </g>
  <g id="axes_3">
   <g id="patch_96">
    <path d="M 36.23175 362.857563 
L 196.535595 362.857563 
L 196.535595 208.572563 
L 36.23175 208.572563 
z
" style="fill:#eaeaf2;"/>
   </g>
   <g id="matplotlib.axis_5">
    <g id="xtick_7">
     <g id="text_11">
      <!-- 0.0 -->
      <g style="fill:#262626;" transform="translate(42.696319 383.223328)scale(0.143 -0.143)">
       <use xlink:href="#DejaVuSans-48"/>
       <use x="63.623047" xlink:href="#DejaVuSans-46"/>
       <use x="95.410156" xlink:href="#DejaVuSans-48"/>
      </g>
     </g>
    </g>
    <g id="xtick_8">
     <g id="text_12">
      <!-- 0.5 -->
      <g style="fill:#262626;" transform="translate(105.017154 383.223328)scale(0.143 -0.143)">
       <use xlink:href="#DejaVuSans-48"/>
       <use x="63.623047" xlink:href="#DejaVuSans-46"/>
       <use x="95.410156" xlink:href="#DejaVuSans-53"/>
      </g>
     </g>
    </g>
    <g id="xtick_9">
     <g id="text_13">
      <!-- 1.0 -->
      <g style="fill:#262626;" transform="translate(167.33799 383.223328)scale(0.143 -0.143)">
       <use xlink:href="#DejaVuSans-49"/>
       <use x="63.623047" xlink:href="#DejaVuSans-46"/>
       <use x="95.410156" xlink:href="#DejaVuSans-48"/>
      </g>
     </g>
    </g>
    <g id="text_14">
     <!-- p value -->
     <g style="fill:#262626;" transform="translate(87.646766 402.050844)scale(0.156 -0.156)">
      <use xlink:href="#DejaVuSans-112"/>
      <use x="63.476562" xlink:href="#DejaVuSans-32"/>
      <use x="95.263672" xlink:href="#DejaVuSans-118"/>
      <use x="154.443359" xlink:href="#DejaVuSans-97"/>
      <use x="215.722656" xlink:href="#DejaVuSans-108"/>
      <use x="243.505859" xlink:href="#DejaVuSans-117"/>
      <use x="306.884766" xlink:href="#DejaVuSans-101"/>
     </g>
    </g>
   </g>
   <g id="matplotlib.axis_6">
    <g id="ytick_11"/>
    <g id="ytick_12"/>
    <g id="ytick_13"/>
    <g id="ytick_14"/>
    <g id="ytick_15"/>
    <g id="text_15">
     <!-- signal_magnitude -->
     <g style="fill:#262626;" transform="translate(19.053563 354.879125)rotate(-90)scale(0.156 -0.156)">
      <use xlink:href="#DejaVuSans-115"/>
      <use x="52.099609" xlink:href="#DejaVuSans-105"/>
      <use x="79.882812" xlink:href="#DejaVuSans-103"/>
      <use x="143.359375" xlink:href="#DejaVuSans-110"/>
      <use x="206.738281" xlink:href="#DejaVuSans-97"/>
      <use x="268.017578" xlink:href="#DejaVuSans-108"/>
      <use x="295.800781" xlink:href="#DejaVuSans-95"/>
      <use x="345.800781" xlink:href="#DejaVuSans-109"/>
      <use x="443.212891" xlink:href="#DejaVuSans-97"/>
      <use x="504.492188" xlink:href="#DejaVuSans-103"/>
      <use x="567.96875" xlink:href="#DejaVuSans-110"/>
      <use x="631.347656" xlink:href="#DejaVuSans-105"/>
      <use x="659.130859" xlink:href="#DejaVuSans-116"/>
      <use x="698.339844" xlink:href="#DejaVuSans-117"/>
      <use x="761.71875" xlink:href="#DejaVuSans-100"/>
      <use x="825.195312" xlink:href="#DejaVuSans-101"/>
     </g>
    </g>
   </g>
   <g id="patch_97">
    <path clip-path="url(#p2f56f207d8)" d="M 54.067053 362.857563 
L 54.067053 362.857563 
L 54.067053 362.533245 
L 54.067053 362.533245 
z
" style="fill:#4c72b0;opacity:0.4;stroke:#ffffff;stroke-linejoin:miter;"/>
   </g>
   <g id="patch_98">
    <path clip-path="url(#p2f56f207d8)" d="M 54.067053 362.857563 
L 54.067053 362.857563 
L 54.067053 362.8574 
L 54.067053 362.8574 
z
" style="fill:#4c72b0;opacity:0.4;stroke:#ffffff;stroke-linejoin:miter;"/>
   </g>
   <g id="patch_99">
    <path clip-path="url(#p2f56f207d8)" d="M 54.067053 362.857563 
L 54.067053 362.857563 
L 54.067053 362.85753 
L 54.067053 362.85753 
z
" style="fill:#4c72b0;opacity:0.4;stroke:#ffffff;stroke-linejoin:miter;"/>
   </g>
   <g id="patch_100">
    <path clip-path="url(#p2f56f207d8)" d="M 54.067053 362.857563 
L 54.067053 362.857563 
L 54.067053 362.857465 
L 54.067053 362.857465 
z
" style="fill:#4c72b0;opacity:0.4;stroke:#ffffff;stroke-linejoin:miter;"/>
   </g>
   <g id="patch_101">
    <path clip-path="url(#p2f56f207d8)" d="M 54.067053 362.857563 
L 54.067053 362.857563 
L 54.067053 362.857563 
L 54.067053 362.857563 
z
" style="fill:#4c72b0;opacity:0.4;stroke:#ffffff;stroke-linejoin:miter;"/>
   </g>
   <g id="patch_102">
    <path clip-path="url(#p2f56f207d8)" d="M 54.067053 362.857563 
L 54.067053 362.857563 
L 54.067053 362.85753 
L 54.067053 362.85753 
z
" style="fill:#4c72b0;opacity:0.4;stroke:#ffffff;stroke-linejoin:miter;"/>
   </g>
   <g id="patch_103">
    <path clip-path="url(#p2f56f207d8)" d="M 54.067053 362.857563 
L 54.067053 362.857563 
L 54.067053 362.857563 
L 54.067053 362.857563 
z
" style="fill:#4c72b0;opacity:0.4;stroke:#ffffff;stroke-linejoin:miter;"/>
   </g>
   <g id="patch_104">
    <path clip-path="url(#p2f56f207d8)" d="M 54.067053 362.857563 
L 54.067053 362.857563 
L 54.067053 362.857563 
L 54.067053 362.857563 
z
" style="fill:#4c72b0;opacity:0.4;stroke:#ffffff;stroke-linejoin:miter;"/>
   </g>
   <g id="patch_105">
    <path clip-path="url(#p2f56f207d8)" d="M 54.067053 362.857563 
L 54.067053 362.857563 
L 54.067053 362.857563 
L 54.067053 362.857563 
z
" style="fill:#4c72b0;opacity:0.4;stroke:#ffffff;stroke-linejoin:miter;"/>
   </g>
   <g id="patch_106">
    <path clip-path="url(#p2f56f207d8)" d="M 54.067053 362.857563 
L 54.067053 362.857563 
L 54.067053 362.857563 
L 54.067053 362.857563 
z
" style="fill:#4c72b0;opacity:0.4;stroke:#ffffff;stroke-linejoin:miter;"/>
   </g>
   <g id="patch_107">
    <path clip-path="url(#p2f56f207d8)" d="M 54.067053 362.857563 
L 54.067053 362.857563 
L 54.067053 362.857563 
L 54.067053 362.857563 
z
" style="fill:#4c72b0;opacity:0.4;stroke:#ffffff;stroke-linejoin:miter;"/>
   </g>
   <g id="patch_108">
    <path clip-path="url(#p2f56f207d8)" d="M 54.067053 362.857563 
L 54.067053 362.857563 
L 54.067053 362.857563 
L 54.067053 362.857563 
z
" style="fill:#4c72b0;opacity:0.4;stroke:#ffffff;stroke-linejoin:miter;"/>
   </g>
   <g id="patch_109">
    <path clip-path="url(#p2f56f207d8)" d="M 54.067053 362.857563 
L 54.067053 362.857563 
L 54.067053 362.857563 
L 54.067053 362.857563 
z
" style="fill:#4c72b0;opacity:0.4;stroke:#ffffff;stroke-linejoin:miter;"/>
   </g>
   <g id="patch_110">
    <path clip-path="url(#p2f56f207d8)" d="M 54.067053 362.857563 
L 54.067053 362.857563 
L 54.067053 362.857563 
L 54.067053 362.857563 
z
" style="fill:#4c72b0;opacity:0.4;stroke:#ffffff;stroke-linejoin:miter;"/>
   </g>
   <g id="patch_111">
    <path clip-path="url(#p2f56f207d8)" d="M 54.067053 362.857563 
L 54.067053 362.857563 
L 54.067053 362.857563 
L 54.067053 362.857563 
z
" style="fill:#4c72b0;opacity:0.4;stroke:#ffffff;stroke-linejoin:miter;"/>
   </g>
   <g id="patch_112">
    <path clip-path="url(#p2f56f207d8)" d="M 54.067053 362.857563 
L 54.067053 362.857563 
L 54.067053 362.857563 
L 54.067053 362.857563 
z
" style="fill:#4c72b0;opacity:0.4;stroke:#ffffff;stroke-linejoin:miter;"/>
   </g>
   <g id="patch_113">
    <path clip-path="url(#p2f56f207d8)" d="M 54.067053 362.857563 
L 54.067053 362.857563 
L 54.067053 362.85753 
L 54.067053 362.85753 
z
" style="fill:#4c72b0;opacity:0.4;stroke:#ffffff;stroke-linejoin:miter;"/>
   </g>
   <g id="patch_114">
    <path clip-path="url(#p2f56f207d8)" d="M 54.067053 362.857563 
L 54.067053 362.857563 
L 54.067053 362.857563 
L 54.067053 362.857563 
z
" style="fill:#4c72b0;opacity:0.4;stroke:#ffffff;stroke-linejoin:miter;"/>
   </g>
   <g id="patch_115">
    <path clip-path="url(#p2f56f207d8)" d="M 54.067053 362.857563 
L 54.067053 362.857563 
L 54.067053 362.857563 
L 54.067053 362.857563 
z
" style="fill:#4c72b0;opacity:0.4;stroke:#ffffff;stroke-linejoin:miter;"/>
   </g>
   <g id="patch_116">
    <path clip-path="url(#p2f56f207d8)" d="M 54.067053 362.857563 
L 54.067053 362.857563 
L 54.067053 362.85753 
L 54.067053 362.85753 
z
" style="fill:#4c72b0;opacity:0.4;stroke:#ffffff;stroke-linejoin:miter;"/>
   </g>
   <g id="patch_117">
    <path clip-path="url(#p2f56f207d8)" d="M 54.067053 362.857563 
L 54.067053 362.857563 
L 54.067053 215.919467 
L 54.067053 215.919467 
z
" style="fill:#dd8452;opacity:0.4;stroke:#ffffff;stroke-linejoin:miter;"/>
   </g>
   <g id="patch_118">
    <path clip-path="url(#p2f56f207d8)" d="M 54.067053 362.857563 
L 54.067053 362.857563 
L 54.067053 362.813446 
L 54.067053 362.813446 
z
" style="fill:#dd8452;opacity:0.4;stroke:#ffffff;stroke-linejoin:miter;"/>
   </g>
   <g id="patch_119">
    <path clip-path="url(#p2f56f207d8)" d="M 54.067053 362.857563 
L 54.067053 362.857563 
L 54.067053 362.842857 
L 54.067053 362.842857 
z
" style="fill:#dd8452;opacity:0.4;stroke:#ffffff;stroke-linejoin:miter;"/>
   </g>
   <g id="patch_120">
    <path clip-path="url(#p2f56f207d8)" d="M 54.067053 362.857563 
L 54.067053 362.857563 
L 54.067053 362.828151 
L 54.067053 362.828151 
z
" style="fill:#dd8452;opacity:0.4;stroke:#ffffff;stroke-linejoin:miter;"/>
   </g>
   <g id="patch_121">
    <path clip-path="url(#p2f56f207d8)" d="M 54.067053 362.857563 
L 54.067053 362.857563 
L 54.067053 362.828151 
L 54.067053 362.828151 
z
" style="fill:#dd8452;opacity:0.4;stroke:#ffffff;stroke-linejoin:miter;"/>
   </g>
   <g id="patch_122">
    <path clip-path="url(#p2f56f207d8)" d="M 54.067053 362.857563 
L 54.067053 362.857563 
L 54.067053 362.857563 
L 54.067053 362.857563 
z
" style="fill:#dd8452;opacity:0.4;stroke:#ffffff;stroke-linejoin:miter;"/>
   </g>
   <g id="patch_123">
    <path clip-path="url(#p2f56f207d8)" d="M 54.067053 362.857563 
L 54.067053 362.857563 
L 54.067053 362.857563 
L 54.067053 362.857563 
z
" style="fill:#dd8452;opacity:0.4;stroke:#ffffff;stroke-linejoin:miter;"/>
   </g>
   <g id="patch_124">
    <path clip-path="url(#p2f56f207d8)" d="M 54.067053 362.857563 
L 54.067053 362.857563 
L 54.067053 362.857563 
L 54.067053 362.857563 
z
" style="fill:#dd8452;opacity:0.4;stroke:#ffffff;stroke-linejoin:miter;"/>
   </g>
   <g id="patch_125">
    <path clip-path="url(#p2f56f207d8)" d="M 54.067053 362.857563 
L 54.067053 362.857563 
L 54.067053 362.857563 
L 54.067053 362.857563 
z
" style="fill:#dd8452;opacity:0.4;stroke:#ffffff;stroke-linejoin:miter;"/>
   </g>
   <g id="patch_126">
    <path clip-path="url(#p2f56f207d8)" d="M 54.067053 362.857563 
L 54.067053 362.857563 
L 54.067053 362.857563 
L 54.067053 362.857563 
z
" style="fill:#dd8452;opacity:0.4;stroke:#ffffff;stroke-linejoin:miter;"/>
   </g>
   <g id="patch_127">
    <path clip-path="url(#p2f56f207d8)" d="M 54.067053 362.857563 
L 54.067053 362.857563 
L 54.067053 362.857563 
L 54.067053 362.857563 
z
" style="fill:#dd8452;opacity:0.4;stroke:#ffffff;stroke-linejoin:miter;"/>
   </g>
   <g id="patch_128">
    <path clip-path="url(#p2f56f207d8)" d="M 54.067053 362.857563 
L 54.067053 362.857563 
L 54.067053 362.857563 
L 54.067053 362.857563 
z
" style="fill:#dd8452;opacity:0.4;stroke:#ffffff;stroke-linejoin:miter;"/>
   </g>
   <g id="patch_129">
    <path clip-path="url(#p2f56f207d8)" d="M 54.067053 362.857563 
L 54.067053 362.857563 
L 54.067053 362.842857 
L 54.067053 362.842857 
z
" style="fill:#dd8452;opacity:0.4;stroke:#ffffff;stroke-linejoin:miter;"/>
   </g>
   <g id="patch_130">
    <path clip-path="url(#p2f56f207d8)" d="M 54.067053 362.857563 
L 54.067053 362.857563 
L 54.067053 362.842857 
L 54.067053 362.842857 
z
" style="fill:#dd8452;opacity:0.4;stroke:#ffffff;stroke-linejoin:miter;"/>
   </g>
   <g id="patch_131">
    <path clip-path="url(#p2f56f207d8)" d="M 54.067053 362.857563 
L 54.067053 362.857563 
L 54.067053 362.857563 
L 54.067053 362.857563 
z
" style="fill:#dd8452;opacity:0.4;stroke:#ffffff;stroke-linejoin:miter;"/>
   </g>
   <g id="patch_132">
    <path clip-path="url(#p2f56f207d8)" d="M 54.067053 362.857563 
L 54.067053 362.857563 
L 54.067053 362.857563 
L 54.067053 362.857563 
z
" style="fill:#dd8452;opacity:0.4;stroke:#ffffff;stroke-linejoin:miter;"/>
   </g>
   <g id="patch_133">
    <path clip-path="url(#p2f56f207d8)" d="M 54.067053 362.857563 
L 54.067053 362.857563 
L 54.067053 362.857563 
L 54.067053 362.857563 
z
" style="fill:#dd8452;opacity:0.4;stroke:#ffffff;stroke-linejoin:miter;"/>
   </g>
   <g id="patch_134">
    <path clip-path="url(#p2f56f207d8)" d="M 54.067053 362.857563 
L 54.067053 362.857563 
L 54.067053 362.857563 
L 54.067053 362.857563 
z
" style="fill:#dd8452;opacity:0.4;stroke:#ffffff;stroke-linejoin:miter;"/>
   </g>
   <g id="patch_135">
    <path clip-path="url(#p2f56f207d8)" d="M 54.067053 362.857563 
L 54.067053 362.857563 
L 54.067053 362.857563 
L 54.067053 362.857563 
z
" style="fill:#dd8452;opacity:0.4;stroke:#ffffff;stroke-linejoin:miter;"/>
   </g>
   <g id="patch_136">
    <path clip-path="url(#p2f56f207d8)" d="M 54.067053 362.857563 
L 54.067053 362.857563 
L 54.067053 362.842857 
L 54.067053 362.842857 
z
" style="fill:#dd8452;opacity:0.4;stroke:#ffffff;stroke-linejoin:miter;"/>
   </g>
   <g id="line2d_5">
    <path clip-path="url(#p2f56f207d8)" d="M 54.067053 362.857551 
L 54.067053 362.857563 
L 54.067053 362.856596 
L 54.067053 362.85729 
" style="fill:none;stroke:#4c72b0;stroke-linecap:round;stroke-width:1.5;"/>
   </g>
   <g id="line2d_6">
    <path clip-path="url(#p2f56f207d8)" d="M 54.067053 362.839121 
L 54.067053 362.857563 
L 54.067053 362.383533 
L 54.067053 362.746342 
" style="fill:none;stroke:#dd8452;stroke-linecap:round;stroke-width:1.5;"/>
   </g>
   <g id="patch_137">
    <path d="M 36.23175 362.857563 
L 36.23175 208.572563 
" style="fill:none;stroke:#ffffff;stroke-linecap:square;stroke-linejoin:miter;stroke-width:1.25;"/>
   </g>
   <g id="patch_138">
    <path d="M 36.23175 362.857563 
L 196.535595 362.857563 
" style="fill:none;stroke:#ffffff;stroke-linecap:square;stroke-linejoin:miter;stroke-width:1.25;"/>
   </g>
   <g id="text_16">
    <g id="patch_139">
     <path d="M 76.307711 312.242469 
L 158.039274 312.242469 
Q 162.239274 312.242469 162.239274 308.042469 
L 162.239274 278.816156 
Q 162.239274 274.616156 158.039274 274.616156 
L 76.307711 274.616156 
Q 72.107711 274.616156 72.107711 278.816156 
L 72.107711 308.042469 
Q 72.107711 312.242469 76.307711 312.242469 
z
" style="fill:#f5deb3;opacity:0.5;stroke:#ffffff;stroke-linejoin:miter;"/>
    </g>
    <!-- lss pwr: 1.0 -->
    <g style="fill:#262626;" transform="translate(76.307711 289.453969)scale(0.14 -0.14)">
     <use xlink:href="#DejaVuSans-108"/>
     <use x="27.783203" xlink:href="#DejaVuSans-115"/>
     <use x="79.882812" xlink:href="#DejaVuSans-115"/>
     <use x="131.982422" xlink:href="#DejaVuSans-32"/>
     <use x="163.769531" xlink:href="#DejaVuSans-112"/>
     <use x="227.246094" xlink:href="#DejaVuSans-119"/>
     <use x="309.033203" xlink:href="#DejaVuSans-114"/>
     <use x="350.130859" xlink:href="#DejaVuSans-58"/>
     <use x="383.822266" xlink:href="#DejaVuSans-32"/>
     <use x="415.609375" xlink:href="#DejaVuSans-49"/>
     <use x="479.232422" xlink:href="#DejaVuSans-46"/>
     <use x="511.019531" xlink:href="#DejaVuSans-48"/>
    </g>
    <!-- lsa pwr: 1.0 -->
    <g style="fill:#262626;" transform="translate(76.307711 305.130906)scale(0.14 -0.14)">
     <use xlink:href="#DejaVuSans-108"/>
     <use x="27.783203" xlink:href="#DejaVuSans-115"/>
     <use x="79.882812" xlink:href="#DejaVuSans-97"/>
     <use x="141.162109" xlink:href="#DejaVuSans-32"/>
     <use x="172.949219" xlink:href="#DejaVuSans-112"/>
     <use x="236.425781" xlink:href="#DejaVuSans-119"/>
     <use x="318.212891" xlink:href="#DejaVuSans-114"/>
     <use x="359.310547" xlink:href="#DejaVuSans-58"/>
     <use x="393.001953" xlink:href="#DejaVuSans-32"/>
     <use x="424.789062" xlink:href="#DejaVuSans-49"/>
     <use x="488.412109" xlink:href="#DejaVuSans-46"/>
     <use x="520.199219" xlink:href="#DejaVuSans-48"/>
    </g>
   </g>
   <g id="text_17">
    <g id="patch_140">
     <path d="M 76.307711 312.242469 
L 158.039274 312.242469 
Q 162.239274 312.242469 162.239274 308.042469 
L 162.239274 278.816156 
Q 162.239274 274.616156 158.039274 274.616156 
L 76.307711 274.616156 
Q 72.107711 274.616156 72.107711 278.816156 
L 72.107711 308.042469 
Q 72.107711 312.242469 76.307711 312.242469 
z
" style="fill:#f5deb3;opacity:0.5;stroke:#ffffff;stroke-linejoin:miter;"/>
    </g>
    <!-- lss pwr: 1.0 -->
    <g style="fill:#262626;" transform="translate(76.307711 289.453969)scale(0.14 -0.14)">
     <use xlink:href="#DejaVuSans-108"/>
     <use x="27.783203" xlink:href="#DejaVuSans-115"/>
     <use x="79.882812" xlink:href="#DejaVuSans-115"/>
     <use x="131.982422" xlink:href="#DejaVuSans-32"/>
     <use x="163.769531" xlink:href="#DejaVuSans-112"/>
     <use x="227.246094" xlink:href="#DejaVuSans-119"/>
     <use x="309.033203" xlink:href="#DejaVuSans-114"/>
     <use x="350.130859" xlink:href="#DejaVuSans-58"/>
     <use x="383.822266" xlink:href="#DejaVuSans-32"/>
     <use x="415.609375" xlink:href="#DejaVuSans-49"/>
     <use x="479.232422" xlink:href="#DejaVuSans-46"/>
     <use x="511.019531" xlink:href="#DejaVuSans-48"/>
    </g>
    <!-- lsa pwr: 1.0 -->
    <g style="fill:#262626;" transform="translate(76.307711 305.130906)scale(0.14 -0.14)">
     <use xlink:href="#DejaVuSans-108"/>
     <use x="27.783203" xlink:href="#DejaVuSans-115"/>
     <use x="79.882812" xlink:href="#DejaVuSans-97"/>
     <use x="141.162109" xlink:href="#DejaVuSans-32"/>
     <use x="172.949219" xlink:href="#DejaVuSans-112"/>
     <use x="236.425781" xlink:href="#DejaVuSans-119"/>
     <use x="318.212891" xlink:href="#DejaVuSans-114"/>
     <use x="359.310547" xlink:href="#DejaVuSans-58"/>
     <use x="393.001953" xlink:href="#DejaVuSans-32"/>
     <use x="424.789062" xlink:href="#DejaVuSans-49"/>
     <use x="488.412109" xlink:href="#DejaVuSans-46"/>
     <use x="520.199219" xlink:href="#DejaVuSans-48"/>
    </g>
   </g>
  </g>
  <g id="axes_4">
   <g id="patch_141">
    <path d="M 225.383595 362.857563 
L 385.68744 362.857563 
L 385.68744 208.572563 
L 225.383595 208.572563 
z
" style="fill:#eaeaf2;"/>
   </g>
   <g id="matplotlib.axis_7">
    <g id="xtick_10">
     <g id="text_18">
      <!-- 0.0 -->
      <g style="fill:#262626;" transform="translate(231.848164 383.223328)scale(0.143 -0.143)">
       <use xlink:href="#DejaVuSans-48"/>
       <use x="63.623047" xlink:href="#DejaVuSans-46"/>
       <use x="95.410156" xlink:href="#DejaVuSans-48"/>
      </g>
     </g>
    </g>
    <g id="xtick_11">
     <g id="text_19">
      <!-- 0.5 -->
      <g style="fill:#262626;" transform="translate(294.168999 383.223328)scale(0.143 -0.143)">
       <use xlink:href="#DejaVuSans-48"/>
       <use x="63.623047" xlink:href="#DejaVuSans-46"/>
       <use x="95.410156" xlink:href="#DejaVuSans-53"/>
      </g>
     </g>
    </g>
    <g id="xtick_12">
     <g id="text_20">
      <!-- 1.0 -->
      <g style="fill:#262626;" transform="translate(356.489835 383.223328)scale(0.143 -0.143)">
       <use xlink:href="#DejaVuSans-49"/>
       <use x="63.623047" xlink:href="#DejaVuSans-46"/>
       <use x="95.410156" xlink:href="#DejaVuSans-48"/>
      </g>
     </g>
    </g>
    <g id="text_21">
     <!-- p value -->
     <g style="fill:#262626;" transform="translate(276.798611 402.050844)scale(0.156 -0.156)">
      <use xlink:href="#DejaVuSans-112"/>
      <use x="63.476562" xlink:href="#DejaVuSans-32"/>
      <use x="95.263672" xlink:href="#DejaVuSans-118"/>
      <use x="154.443359" xlink:href="#DejaVuSans-97"/>
      <use x="215.722656" xlink:href="#DejaVuSans-108"/>
      <use x="243.505859" xlink:href="#DejaVuSans-117"/>
      <use x="306.884766" xlink:href="#DejaVuSans-101"/>
     </g>
    </g>
   </g>
   <g id="matplotlib.axis_8">
    <g id="ytick_16"/>
    <g id="ytick_17"/>
    <g id="ytick_18"/>
   </g>
   <g id="patch_142">
    <path clip-path="url(#pdb2d5ed978)" d="M 243.218898 362.857563 
L 243.218898 362.857563 
L 243.218898 362.85028 
L 243.218898 362.85028 
z
" style="fill:#4c72b0;opacity:0.4;stroke:#ffffff;stroke-linejoin:miter;"/>
   </g>
   <g id="patch_143">
    <path clip-path="url(#pdb2d5ed978)" d="M 243.218898 362.857563 
L 243.218898 362.857563 
L 243.218898 362.857561 
L 243.218898 362.857561 
z
" style="fill:#4c72b0;opacity:0.4;stroke:#ffffff;stroke-linejoin:miter;"/>
   </g>
   <g id="patch_144">
    <path clip-path="url(#pdb2d5ed978)" d="M 243.218898 362.857563 
L 243.218898 362.857563 
L 243.218898 362.85756 
L 243.218898 362.85756 
z
" style="fill:#4c72b0;opacity:0.4;stroke:#ffffff;stroke-linejoin:miter;"/>
   </g>
   <g id="patch_145">
    <path clip-path="url(#pdb2d5ed978)" d="M 243.218898 362.857563 
L 243.218898 362.857563 
L 243.218898 362.857563 
L 243.218898 362.857563 
z
" style="fill:#4c72b0;opacity:0.4;stroke:#ffffff;stroke-linejoin:miter;"/>
   </g>
   <g id="patch_146">
    <path clip-path="url(#pdb2d5ed978)" d="M 243.218898 362.857563 
L 243.218898 362.857563 
L 243.218898 362.857562 
L 243.218898 362.857562 
z
" style="fill:#4c72b0;opacity:0.4;stroke:#ffffff;stroke-linejoin:miter;"/>
   </g>
   <g id="patch_147">
    <path clip-path="url(#pdb2d5ed978)" d="M 243.218898 362.857563 
L 243.218898 362.857563 
L 243.218898 362.857563 
L 243.218898 362.857563 
z
" style="fill:#4c72b0;opacity:0.4;stroke:#ffffff;stroke-linejoin:miter;"/>
   </g>
   <g id="patch_148">
    <path clip-path="url(#pdb2d5ed978)" d="M 243.218898 362.857563 
L 243.218898 362.857563 
L 243.218898 362.857563 
L 243.218898 362.857563 
z
" style="fill:#4c72b0;opacity:0.4;stroke:#ffffff;stroke-linejoin:miter;"/>
   </g>
   <g id="patch_149">
    <path clip-path="url(#pdb2d5ed978)" d="M 243.218898 362.857563 
L 243.218898 362.857563 
L 243.218898 362.857563 
L 243.218898 362.857563 
z
" style="fill:#4c72b0;opacity:0.4;stroke:#ffffff;stroke-linejoin:miter;"/>
   </g>
   <g id="patch_150">
    <path clip-path="url(#pdb2d5ed978)" d="M 243.218898 362.857563 
L 243.218898 362.857563 
L 243.218898 362.857563 
L 243.218898 362.857563 
z
" style="fill:#4c72b0;opacity:0.4;stroke:#ffffff;stroke-linejoin:miter;"/>
   </g>
   <g id="patch_151">
    <path clip-path="url(#pdb2d5ed978)" d="M 243.218898 362.857563 
L 243.218898 362.857563 
L 243.218898 362.857563 
L 243.218898 362.857563 
z
" style="fill:#4c72b0;opacity:0.4;stroke:#ffffff;stroke-linejoin:miter;"/>
   </g>
   <g id="patch_152">
    <path clip-path="url(#pdb2d5ed978)" d="M 243.218898 362.857563 
L 243.218898 362.857563 
L 243.218898 362.857563 
L 243.218898 362.857563 
z
" style="fill:#4c72b0;opacity:0.4;stroke:#ffffff;stroke-linejoin:miter;"/>
   </g>
   <g id="patch_153">
    <path clip-path="url(#pdb2d5ed978)" d="M 243.218898 362.857563 
L 243.218898 362.857563 
L 243.218898 362.857563 
L 243.218898 362.857563 
z
" style="fill:#4c72b0;opacity:0.4;stroke:#ffffff;stroke-linejoin:miter;"/>
   </g>
   <g id="patch_154">
    <path clip-path="url(#pdb2d5ed978)" d="M 243.218898 362.857563 
L 243.218898 362.857563 
L 243.218898 362.857563 
L 243.218898 362.857563 
z
" style="fill:#4c72b0;opacity:0.4;stroke:#ffffff;stroke-linejoin:miter;"/>
   </g>
   <g id="patch_155">
    <path clip-path="url(#pdb2d5ed978)" d="M 243.218898 362.857563 
L 243.218898 362.857563 
L 243.218898 362.857563 
L 243.218898 362.857563 
z
" style="fill:#4c72b0;opacity:0.4;stroke:#ffffff;stroke-linejoin:miter;"/>
   </g>
   <g id="patch_156">
    <path clip-path="url(#pdb2d5ed978)" d="M 243.218898 362.857563 
L 243.218898 362.857563 
L 243.218898 362.857563 
L 243.218898 362.857563 
z
" style="fill:#4c72b0;opacity:0.4;stroke:#ffffff;stroke-linejoin:miter;"/>
   </g>
   <g id="patch_157">
    <path clip-path="url(#pdb2d5ed978)" d="M 243.218898 362.857563 
L 243.218898 362.857563 
L 243.218898 362.857563 
L 243.218898 362.857563 
z
" style="fill:#4c72b0;opacity:0.4;stroke:#ffffff;stroke-linejoin:miter;"/>
   </g>
   <g id="patch_158">
    <path clip-path="url(#pdb2d5ed978)" d="M 243.218898 362.857563 
L 243.218898 362.857563 
L 243.218898 362.857563 
L 243.218898 362.857563 
z
" style="fill:#4c72b0;opacity:0.4;stroke:#ffffff;stroke-linejoin:miter;"/>
   </g>
   <g id="patch_159">
    <path clip-path="url(#pdb2d5ed978)" d="M 243.218898 362.857563 
L 243.218898 362.857563 
L 243.218898 362.857563 
L 243.218898 362.857563 
z
" style="fill:#4c72b0;opacity:0.4;stroke:#ffffff;stroke-linejoin:miter;"/>
   </g>
   <g id="patch_160">
    <path clip-path="url(#pdb2d5ed978)" d="M 243.218898 362.857563 
L 243.218898 362.857563 
L 243.218898 362.857563 
L 243.218898 362.857563 
z
" style="fill:#4c72b0;opacity:0.4;stroke:#ffffff;stroke-linejoin:miter;"/>
   </g>
   <g id="patch_161">
    <path clip-path="url(#pdb2d5ed978)" d="M 243.218898 362.857563 
L 243.218898 362.857563 
L 243.218898 362.857562 
L 243.218898 362.857562 
z
" style="fill:#4c72b0;opacity:0.4;stroke:#ffffff;stroke-linejoin:miter;"/>
   </g>
   <g id="patch_162">
    <path clip-path="url(#pdb2d5ed978)" d="M 243.218898 362.857563 
L 243.218898 362.857563 
L 243.218898 215.919467 
L 243.218898 215.919467 
z
" style="fill:#dd8452;opacity:0.4;stroke:#ffffff;stroke-linejoin:miter;"/>
   </g>
   <g id="patch_163">
    <path clip-path="url(#pdb2d5ed978)" d="M 243.218898 362.857563 
L 243.218898 362.857563 
L 243.218898 362.75451 
L 243.218898 362.75451 
z
" style="fill:#dd8452;opacity:0.4;stroke:#ffffff;stroke-linejoin:miter;"/>
   </g>
   <g id="patch_164">
    <path clip-path="url(#pdb2d5ed978)" d="M 243.218898 362.857563 
L 243.218898 362.857563 
L 243.218898 362.813397 
L 243.218898 362.813397 
z
" style="fill:#dd8452;opacity:0.4;stroke:#ffffff;stroke-linejoin:miter;"/>
   </g>
   <g id="patch_165">
    <path clip-path="url(#pdb2d5ed978)" d="M 243.218898 362.857563 
L 243.218898 362.857563 
L 243.218898 362.783954 
L 243.218898 362.783954 
z
" style="fill:#dd8452;opacity:0.4;stroke:#ffffff;stroke-linejoin:miter;"/>
   </g>
   <g id="patch_166">
    <path clip-path="url(#pdb2d5ed978)" d="M 243.218898 362.857563 
L 243.218898 362.857563 
L 243.218898 362.842841 
L 243.218898 362.842841 
z
" style="fill:#dd8452;opacity:0.4;stroke:#ffffff;stroke-linejoin:miter;"/>
   </g>
   <g id="patch_167">
    <path clip-path="url(#pdb2d5ed978)" d="M 243.218898 362.857563 
L 243.218898 362.857563 
L 243.218898 362.842841 
L 243.218898 362.842841 
z
" style="fill:#dd8452;opacity:0.4;stroke:#ffffff;stroke-linejoin:miter;"/>
   </g>
   <g id="patch_168">
    <path clip-path="url(#pdb2d5ed978)" d="M 243.218898 362.857563 
L 243.218898 362.857563 
L 243.218898 362.842841 
L 243.218898 362.842841 
z
" style="fill:#dd8452;opacity:0.4;stroke:#ffffff;stroke-linejoin:miter;"/>
   </g>
   <g id="patch_169">
    <path clip-path="url(#pdb2d5ed978)" d="M 243.218898 362.857563 
L 243.218898 362.857563 
L 243.218898 362.857563 
L 243.218898 362.857563 
z
" style="fill:#dd8452;opacity:0.4;stroke:#ffffff;stroke-linejoin:miter;"/>
   </g>
   <g id="patch_170">
    <path clip-path="url(#pdb2d5ed978)" d="M 243.218898 362.857563 
L 243.218898 362.857563 
L 243.218898 362.842841 
L 243.218898 362.842841 
z
" style="fill:#dd8452;opacity:0.4;stroke:#ffffff;stroke-linejoin:miter;"/>
   </g>
   <g id="patch_171">
    <path clip-path="url(#pdb2d5ed978)" d="M 243.218898 362.857563 
L 243.218898 362.857563 
L 243.218898 362.842841 
L 243.218898 362.842841 
z
" style="fill:#dd8452;opacity:0.4;stroke:#ffffff;stroke-linejoin:miter;"/>
   </g>
   <g id="patch_172">
    <path clip-path="url(#pdb2d5ed978)" d="M 243.218898 362.857563 
L 243.218898 362.857563 
L 243.218898 362.842841 
L 243.218898 362.842841 
z
" style="fill:#dd8452;opacity:0.4;stroke:#ffffff;stroke-linejoin:miter;"/>
   </g>
   <g id="patch_173">
    <path clip-path="url(#pdb2d5ed978)" d="M 243.218898 362.857563 
L 243.218898 362.857563 
L 243.218898 362.857563 
L 243.218898 362.857563 
z
" style="fill:#dd8452;opacity:0.4;stroke:#ffffff;stroke-linejoin:miter;"/>
   </g>
   <g id="patch_174">
    <path clip-path="url(#pdb2d5ed978)" d="M 243.218898 362.857563 
L 243.218898 362.857563 
L 243.218898 362.857563 
L 243.218898 362.857563 
z
" style="fill:#dd8452;opacity:0.4;stroke:#ffffff;stroke-linejoin:miter;"/>
   </g>
   <g id="patch_175">
    <path clip-path="url(#pdb2d5ed978)" d="M 243.218898 362.857563 
L 243.218898 362.857563 
L 243.218898 362.857563 
L 243.218898 362.857563 
z
" style="fill:#dd8452;opacity:0.4;stroke:#ffffff;stroke-linejoin:miter;"/>
   </g>
   <g id="patch_176">
    <path clip-path="url(#pdb2d5ed978)" d="M 243.218898 362.857563 
L 243.218898 362.857563 
L 243.218898 362.857563 
L 243.218898 362.857563 
z
" style="fill:#dd8452;opacity:0.4;stroke:#ffffff;stroke-linejoin:miter;"/>
   </g>
   <g id="patch_177">
    <path clip-path="url(#pdb2d5ed978)" d="M 243.218898 362.857563 
L 243.218898 362.857563 
L 243.218898 362.857563 
L 243.218898 362.857563 
z
" style="fill:#dd8452;opacity:0.4;stroke:#ffffff;stroke-linejoin:miter;"/>
   </g>
   <g id="patch_178">
    <path clip-path="url(#pdb2d5ed978)" d="M 243.218898 362.857563 
L 243.218898 362.857563 
L 243.218898 362.857563 
L 243.218898 362.857563 
z
" style="fill:#dd8452;opacity:0.4;stroke:#ffffff;stroke-linejoin:miter;"/>
   </g>
   <g id="patch_179">
    <path clip-path="url(#pdb2d5ed978)" d="M 243.218898 362.857563 
L 243.218898 362.857563 
L 243.218898 362.857563 
L 243.218898 362.857563 
z
" style="fill:#dd8452;opacity:0.4;stroke:#ffffff;stroke-linejoin:miter;"/>
   </g>
   <g id="patch_180">
    <path clip-path="url(#pdb2d5ed978)" d="M 243.218898 362.857563 
L 243.218898 362.857563 
L 243.218898 362.857563 
L 243.218898 362.857563 
z
" style="fill:#dd8452;opacity:0.4;stroke:#ffffff;stroke-linejoin:miter;"/>
   </g>
   <g id="patch_181">
    <path clip-path="url(#pdb2d5ed978)" d="M 243.218898 362.857563 
L 243.218898 362.857563 
L 243.218898 362.842841 
L 243.218898 362.842841 
z
" style="fill:#dd8452;opacity:0.4;stroke:#ffffff;stroke-linejoin:miter;"/>
   </g>
   <g id="line2d_7">
    <path clip-path="url(#pdb2d5ed978)" d="M 243.218898 362.857562 
L 243.218898 362.857563 
L 243.218898 362.857542 
L 243.218898 362.857556 
" style="fill:none;stroke:#4c72b0;stroke-linecap:round;stroke-width:1.5;"/>
   </g>
   <g id="line2d_8">
    <path clip-path="url(#pdb2d5ed978)" d="M 243.218898 362.857563 
L 243.218898 361.506452 
L 243.218898 362.639257 
" style="fill:none;stroke:#dd8452;stroke-linecap:round;stroke-width:1.5;"/>
   </g>
   <g id="patch_182">
    <path d="M 225.383595 362.857563 
L 225.383595 208.572563 
" style="fill:none;stroke:#ffffff;stroke-linecap:square;stroke-linejoin:miter;stroke-width:1.25;"/>
   </g>
   <g id="patch_183">
    <path d="M 225.383595 362.857563 
L 385.68744 362.857563 
" style="fill:none;stroke:#ffffff;stroke-linecap:square;stroke-linejoin:miter;stroke-width:1.25;"/>
   </g>
   <g id="text_22">
    <g id="patch_184">
     <path d="M 265.459556 312.242469 
L 347.191119 312.242469 
Q 351.391119 312.242469 351.391119 308.042469 
L 351.391119 278.816156 
Q 351.391119 274.616156 347.191119 274.616156 
L 265.459556 274.616156 
Q 261.259556 274.616156 261.259556 278.816156 
L 261.259556 308.042469 
Q 261.259556 312.242469 265.459556 312.242469 
z
" style="fill:#f5deb3;opacity:0.5;stroke:#ffffff;stroke-linejoin:miter;"/>
    </g>
    <!-- lss pwr: 1.0 -->
    <g style="fill:#262626;" transform="translate(265.459556 289.453969)scale(0.14 -0.14)">
     <use xlink:href="#DejaVuSans-108"/>
     <use x="27.783203" xlink:href="#DejaVuSans-115"/>
     <use x="79.882812" xlink:href="#DejaVuSans-115"/>
     <use x="131.982422" xlink:href="#DejaVuSans-32"/>
     <use x="163.769531" xlink:href="#DejaVuSans-112"/>
     <use x="227.246094" xlink:href="#DejaVuSans-119"/>
     <use x="309.033203" xlink:href="#DejaVuSans-114"/>
     <use x="350.130859" xlink:href="#DejaVuSans-58"/>
     <use x="383.822266" xlink:href="#DejaVuSans-32"/>
     <use x="415.609375" xlink:href="#DejaVuSans-49"/>
     <use x="479.232422" xlink:href="#DejaVuSans-46"/>
     <use x="511.019531" xlink:href="#DejaVuSans-48"/>
    </g>
    <!-- lsa pwr: 1.0 -->
    <g style="fill:#262626;" transform="translate(265.459556 305.130906)scale(0.14 -0.14)">
     <use xlink:href="#DejaVuSans-108"/>
     <use x="27.783203" xlink:href="#DejaVuSans-115"/>
     <use x="79.882812" xlink:href="#DejaVuSans-97"/>
     <use x="141.162109" xlink:href="#DejaVuSans-32"/>
     <use x="172.949219" xlink:href="#DejaVuSans-112"/>
     <use x="236.425781" xlink:href="#DejaVuSans-119"/>
     <use x="318.212891" xlink:href="#DejaVuSans-114"/>
     <use x="359.310547" xlink:href="#DejaVuSans-58"/>
     <use x="393.001953" xlink:href="#DejaVuSans-32"/>
     <use x="424.789062" xlink:href="#DejaVuSans-49"/>
     <use x="488.412109" xlink:href="#DejaVuSans-46"/>
     <use x="520.199219" xlink:href="#DejaVuSans-48"/>
    </g>
   </g>
   <g id="text_23">
    <g id="patch_185">
     <path d="M 265.459556 312.242469 
L 347.191119 312.242469 
Q 351.391119 312.242469 351.391119 308.042469 
L 351.391119 278.816156 
Q 351.391119 274.616156 347.191119 274.616156 
L 265.459556 274.616156 
Q 261.259556 274.616156 261.259556 278.816156 
L 261.259556 308.042469 
Q 261.259556 312.242469 265.459556 312.242469 
z
" style="fill:#f5deb3;opacity:0.5;stroke:#ffffff;stroke-linejoin:miter;"/>
    </g>
    <!-- lss pwr: 1.0 -->
    <g style="fill:#262626;" transform="translate(265.459556 289.453969)scale(0.14 -0.14)">
     <use xlink:href="#DejaVuSans-108"/>
     <use x="27.783203" xlink:href="#DejaVuSans-115"/>
     <use x="79.882812" xlink:href="#DejaVuSans-115"/>
     <use x="131.982422" xlink:href="#DejaVuSans-32"/>
     <use x="163.769531" xlink:href="#DejaVuSans-112"/>
     <use x="227.246094" xlink:href="#DejaVuSans-119"/>
     <use x="309.033203" xlink:href="#DejaVuSans-114"/>
     <use x="350.130859" xlink:href="#DejaVuSans-58"/>
     <use x="383.822266" xlink:href="#DejaVuSans-32"/>
     <use x="415.609375" xlink:href="#DejaVuSans-49"/>
     <use x="479.232422" xlink:href="#DejaVuSans-46"/>
     <use x="511.019531" xlink:href="#DejaVuSans-48"/>
    </g>
    <!-- lsa pwr: 1.0 -->
    <g style="fill:#262626;" transform="translate(265.459556 305.130906)scale(0.14 -0.14)">
     <use xlink:href="#DejaVuSans-108"/>
     <use x="27.783203" xlink:href="#DejaVuSans-115"/>
     <use x="79.882812" xlink:href="#DejaVuSans-97"/>
     <use x="141.162109" xlink:href="#DejaVuSans-32"/>
     <use x="172.949219" xlink:href="#DejaVuSans-112"/>
     <use x="236.425781" xlink:href="#DejaVuSans-119"/>
     <use x="318.212891" xlink:href="#DejaVuSans-114"/>
     <use x="359.310547" xlink:href="#DejaVuSans-58"/>
     <use x="393.001953" xlink:href="#DejaVuSans-32"/>
     <use x="424.789062" xlink:href="#DejaVuSans-49"/>
     <use x="488.412109" xlink:href="#DejaVuSans-46"/>
     <use x="520.199219" xlink:href="#DejaVuSans-48"/>
    </g>
   </g>
   <g id="text_24">
    <g id="patch_186">
     <path d="M 384.837517 191.075469 
L 384.837517 380.354656 
L 408.481267 380.354656 
L 408.481267 191.075469 
z
" style="fill:#ffffff;stroke:#ffffff;stroke-linejoin:miter;"/>
    </g>
    <!-- signal_magnitude = 10 -->
    <g style="fill:#262626;" transform="translate(392.571704 195.131469)rotate(-270)scale(0.156 -0.156)">
     <use xlink:href="#DejaVuSans-115"/>
     <use x="52.099609" xlink:href="#DejaVuSans-105"/>
     <use x="79.882812" xlink:href="#DejaVuSans-103"/>
     <use x="143.359375" xlink:href="#DejaVuSans-110"/>
     <use x="206.738281" xlink:href="#DejaVuSans-97"/>
     <use x="268.017578" xlink:href="#DejaVuSans-108"/>
     <use x="295.800781" xlink:href="#DejaVuSans-95"/>
     <use x="345.800781" xlink:href="#DejaVuSans-109"/>
     <use x="443.212891" xlink:href="#DejaVuSans-97"/>
     <use x="504.492188" xlink:href="#DejaVuSans-103"/>
     <use x="567.96875" xlink:href="#DejaVuSans-110"/>
     <use x="631.347656" xlink:href="#DejaVuSans-105"/>
     <use x="659.130859" xlink:href="#DejaVuSans-116"/>
     <use x="698.339844" xlink:href="#DejaVuSans-117"/>
     <use x="761.71875" xlink:href="#DejaVuSans-100"/>
     <use x="825.195312" xlink:href="#DejaVuSans-101"/>
     <use x="886.71875" xlink:href="#DejaVuSans-32"/>
     <use x="918.505859" xlink:href="#DejaVuSans-61"/>
     <use x="1002.294922" xlink:href="#DejaVuSans-32"/>
     <use x="1034.082031" xlink:href="#DejaVuSans-49"/>
     <use x="1097.705078" xlink:href="#DejaVuSans-48"/>
    </g>
   </g>
  </g>
 </g>
 <defs>
  <clipPath id="p117ba6dbcc">
   <rect height="154.285" width="160.303845" x="36.23175" y="25.053562"/>
  </clipPath>
  <clipPath id="p5addabf98f">
   <rect height="154.285" width="160.303845" x="225.383595" y="25.053562"/>
  </clipPath>
  <clipPath id="p2f56f207d8">
   <rect height="154.285" width="160.303845" x="36.23175" y="208.572563"/>
  </clipPath>
  <clipPath id="pdb2d5ed978">
   <rect height="154.285" width="160.303845" x="225.383595" y="208.572563"/>
  </clipPath>
 </defs>
</svg>
